{"glyphs":{"0":{"ha":800,"x_min":54,"x_max":772,"o":"m 475 958 q 696 867 619 958 q 772 603 772 775 q 732 317 772 460 q 598 75 692 174 q 351 -24 504 -24 q 130 69 206 -24 q 54 335 54 161 q 94 622 54 479 q 228 861 133 764 q 475 958 322 958 m 464 796 q 383 765 417 796 q 326 660 350 733 q 285 463 301 588 q 269 289 269 349 q 292 174 269 208 q 364 139 315 139 q 444 169 411 139 q 500 273 476 200 q 542 474 524 346 q 558 649 558 586 q 535 763 558 729 q 464 796 513 796 z "},"1":{"ha":631,"x_min":68,"x_max":599,"o":"m 257 0 l 358 713 l 142 589 l 68 747 l 407 939 l 599 939 l 468 0 l 257 0 z "},"2":{"ha":704,"x_min":-12,"x_max":690,"o":"m 399 958 q 557 926 492 958 q 656 840 622 894 q 690 715 690 785 q 659 572 690 642 q 533 405 628 503 q 256 167 439 307 l 635 168 l 588 0 l -12 0 l 7 158 q 308 433 215 342 q 434 578 401 524 q 467 689 467 632 q 438 764 467 738 q 363 790 410 790 q 271 766 313 790 q 182 690 229 742 l 61 806 q 217 919 132 879 q 399 958 303 958 z "},"3":{"ha":708,"x_min":-40,"x_max":683,"o":"m 403 958 q 610 897 538 958 q 683 736 683 835 q 633 592 683 660 q 469 494 582 525 q 601 438 550 486 q 651 303 651 389 q 613 156 651 231 q 485 28 574 81 q 260 -24 397 -24 q 82 14 157 -24 q -40 121 7 51 l 92 229 q 169 163 128 183 q 263 143 210 143 q 384 190 336 143 q 432 315 432 236 q 399 391 432 368 q 299 414 367 414 l 219 414 l 265 565 l 317 565 q 433 610 396 565 q 469 708 469 656 q 442 773 469 750 q 365 796 414 796 q 267 775 314 796 q 171 713 219 754 l 76 838 q 403 958 226 958 z "},"4":{"ha":771,"x_min":13,"x_max":743,"o":"m 617 203 l 588 0 l 376 0 l 404 203 l 13 203 l 33 349 l 375 963 l 556 893 l 269 367 l 429 367 l 485 589 l 671 589 l 639 367 l 743 367 l 719 203 l 617 203 z "},"5":{"ha":731,"x_min":-19,"x_max":725,"o":"m 344 782 l 314 585 q 453 615 381 615 q 620 548 558 615 q 682 357 682 481 q 640 183 682 271 q 506 36 597 96 q 276 -24 415 -24 q 102 14 174 -24 q -19 117 31 51 l 113 229 q 282 142 181 142 q 415 201 367 142 q 463 347 463 261 q 353 465 463 465 q 297 457 324 465 q 235 431 269 449 l 88 432 l 157 939 l 725 939 l 679 782 l 344 782 z "},"6":{"ha":768,"x_min":49,"x_max":735,"o":"m 504 632 q 669 565 607 632 q 732 379 732 499 q 693 199 732 293 q 569 41 654 106 q 357 -24 485 -24 q 124 65 200 -24 q 49 315 49 154 q 57 435 49 371 q 144 710 79 592 q 309 894 210 829 q 531 958 408 958 q 735 893 650 958 l 639 765 q 521 801 588 801 q 385 736 443 801 q 299 550 326 671 q 504 632 393 632 m 365 133 q 454 174 421 133 q 501 272 488 215 q 515 378 515 328 q 494 457 515 433 q 428 481 472 481 q 278 404 354 481 q 268 275 268 314 q 291 167 268 200 q 365 133 314 133 z "},"7":{"ha":636,"x_min":33,"x_max":693,"o":"m 224 -22 l 33 44 l 444 774 l 72 774 l 96 939 l 693 939 l 672 790 l 224 -22 z "},"8":{"ha":793,"x_min":21,"x_max":769,"o":"m 589 501 q 740 281 740 422 q 692 128 740 199 q 553 17 643 58 q 343 -24 463 -24 q 169 9 242 -24 q 59 99 97 42 q 21 231 21 157 q 71 375 21 308 q 232 486 121 442 q 122 676 122 557 q 163 816 122 751 q 284 919 204 881 q 472 958 364 958 q 687 898 604 958 q 769 735 769 838 q 726 608 769 668 q 589 501 683 549 m 464 810 q 361 771 393 810 q 329 683 329 732 q 352 618 329 644 q 424 569 375 592 l 450 560 q 560 726 560 629 q 535 788 560 765 q 464 810 510 810 m 363 133 q 481 177 438 133 q 524 286 524 221 q 496 355 524 328 q 401 408 468 382 l 360 424 q 266 340 293 390 q 239 240 239 290 q 272 162 239 190 q 363 133 304 133 z "},"9":{"ha":765,"x_min":67,"x_max":760,"o":"m 447 958 q 678 876 597 958 q 760 657 760 794 q 614 221 760 414 q 94 -40 468 28 l 67 115 q 349 224 249 158 q 492 407 449 290 q 405 346 451 367 q 299 325 358 325 q 182 356 233 325 q 101 446 131 388 q 71 582 71 504 q 111 758 71 672 q 236 901 151 844 q 447 958 321 958 m 286 590 q 310 506 286 533 q 376 479 335 479 q 458 501 418 479 q 531 567 497 524 q 540 675 540 626 q 516 772 540 742 q 440 801 492 801 q 322 736 358 801 q 286 590 286 671 z "},"\r":{"ha":315,"x_min":0,"x_max":0,"o":""}," ":{"ha":315,"x_min":0,"x_max":0,"o":""},"A":{"ha":807,"x_min":-71,"x_max":774,"o":"m 239 207 l 163 0 l -71 0 l 351 963 l 622 963 l 774 0 l 538 0 l 518 207 l 239 207 m 461 810 l 300 372 l 503 372 l 461 810 z "},"Á":{"ha":807,"x_min":-71,"x_max":774,"o":"m 239 207 l 163 0 l -71 0 l 351 963 l 622 963 l 774 0 l 538 0 l 518 207 l 239 207 m 461 810 l 300 372 l 503 372 l 461 810 m 376 1038 l 322 1149 l 632 1329 l 711 1164 l 376 1038 z "},"Ă":{"ha":807,"x_min":-71,"x_max":774,"o":"m 239 207 l 163 0 l -71 0 l 351 963 l 622 963 l 774 0 l 538 0 l 518 207 l 239 207 m 461 810 l 300 372 l 503 372 l 461 810 m 488 1043 q 331 1109 385 1043 q 282 1271 278 1175 l 400 1288 q 432 1220 407 1246 q 500 1194 457 1194 q 579 1222 546 1194 q 632 1292 613 1249 l 751 1265 q 660 1107 731 1171 q 488 1043 590 1043 z "},"Â":{"ha":807,"x_min":-71,"x_max":776,"o":"m 239 207 l 163 0 l -71 0 l 351 963 l 622 963 l 774 0 l 538 0 l 518 207 l 239 207 m 461 810 l 300 372 l 503 372 l 461 810 m 329 1049 l 258 1139 l 476 1318 l 608 1318 l 776 1139 l 692 1049 l 526 1165 l 329 1049 z "},"Ä":{"ha":807,"x_min":-71,"x_max":786,"o":"m 239 207 l 163 0 l -71 0 l 351 963 l 622 963 l 774 0 l 538 0 l 518 207 l 239 207 m 461 810 l 300 372 l 503 372 l 461 810 m 371 1285 q 442 1258 414 1285 q 469 1189 469 1231 q 468 1171 469 1176 q 428 1096 463 1126 q 347 1065 393 1065 q 276 1094 304 1065 q 247 1165 247 1122 q 284 1249 247 1214 q 371 1285 321 1285 m 688 1285 q 758 1258 731 1285 q 786 1189 786 1231 q 785 1171 786 1176 q 744 1096 779 1126 q 664 1065 710 1065 q 592 1094 621 1065 q 564 1165 564 1122 q 601 1249 564 1214 q 688 1285 638 1285 z "},"À":{"ha":807,"x_min":-71,"x_max":774,"o":"m 239 207 l 163 0 l -71 0 l 351 963 l 622 963 l 774 0 l 538 0 l 518 207 l 239 207 m 461 810 l 300 372 l 503 372 l 461 810 m 651 1039 l 328 1165 l 418 1331 l 714 1150 l 651 1039 z "},"Ā":{"ha":807,"x_min":-71,"x_max":774,"o":"m 239 207 l 163 0 l -71 0 l 351 963 l 622 963 l 774 0 l 538 0 l 518 207 l 239 207 m 461 810 l 300 372 l 503 372 l 461 810 m 317 1238 l 735 1238 l 713 1085 l 294 1085 l 317 1238 z "},"Ą":{"ha":807,"x_min":-71,"x_max":774,"o":"m 671 0 q 485 -158 485 -67 q 546 -204 485 -204 q 633 -193 582 -204 l 603 -331 q 508 -340 563 -340 q 374 -301 425 -340 q 324 -196 324 -262 q 535 36 324 -49 l 518 207 l 239 207 l 163 0 l -71 0 l 351 963 l 622 963 l 774 0 l 671 0 m 461 810 l 300 372 l 503 372 l 461 810 z "},"Å":{"ha":807,"x_min":-71,"x_max":774,"o":"m 239 207 l 163 0 l -71 0 l 351 963 l 622 963 l 774 0 l 538 0 l 518 207 l 239 207 m 461 810 l 300 372 l 503 372 l 461 810 m 542 1379 q 666 1334 621 1379 q 711 1219 711 1289 q 684 1119 711 1167 q 608 1044 657 1072 q 499 1015 560 1015 q 375 1060 421 1015 q 329 1174 329 1106 q 356 1275 329 1228 q 431 1351 383 1322 q 542 1379 479 1379 m 532 1268 q 481 1249 501 1268 q 456 1192 461 1229 q 467 1144 451 1161 q 508 1128 482 1128 q 558 1147 538 1128 q 583 1203 578 1165 q 585 1217 585 1208 q 571 1255 585 1242 q 532 1268 557 1268 z "},"Ã":{"ha":807,"x_min":-71,"x_max":781,"o":"m 239 207 l 163 0 l -71 0 l 351 963 l 622 963 l 774 0 l 538 0 l 518 207 l 239 207 m 461 810 l 300 372 l 503 372 l 461 810 m 588 1057 q 540 1067 561 1057 q 492 1094 518 1076 q 438 1119 457 1119 q 394 1104 413 1119 q 353 1056 376 1089 l 251 1114 q 340 1230 289 1185 q 447 1275 390 1275 q 500 1265 478 1275 q 546 1236 522 1254 q 571 1219 558 1226 q 596 1213 583 1213 q 638 1227 619 1213 q 679 1275 657 1242 l 781 1218 q 692 1101 743 1146 q 588 1057 642 1057 z "},"Æ":{"ha":1156,"x_min":-81,"x_max":1144,"o":"m 743 567 l 1076 567 l 1056 407 l 753 407 l 768 164 l 1083 164 l 1060 0 l 568 0 l 560 207 l 258 207 l 161 0 l -81 0 l 415 963 l 1144 963 l 1099 800 l 728 800 l 743 567 m 535 796 l 336 372 l 553 372 l 535 796 z "},"Ǽ":{"ha":1156,"x_min":-81,"x_max":1144,"o":"m 743 567 l 1076 567 l 1056 407 l 753 407 l 768 164 l 1083 164 l 1060 0 l 568 0 l 560 207 l 258 207 l 161 0 l -81 0 l 415 963 l 1144 963 l 1099 800 l 728 800 l 743 567 m 535 796 l 336 372 l 553 372 l 535 796 m 635 1038 l 581 1149 l 890 1329 l 969 1164 l 635 1038 z "},"B":{"ha":843,"x_min":38,"x_max":818,"o":"m 607 508 q 745 447 693 493 q 797 307 797 400 q 691 84 797 168 q 344 0 585 0 l 38 0 l 172 963 l 454 963 q 818 744 818 963 q 758 588 818 647 q 607 508 697 529 m 425 578 q 547 617 507 578 q 588 719 588 657 q 555 783 588 764 q 457 801 522 801 l 372 801 l 342 578 l 425 578 m 364 165 q 522 207 478 165 q 567 324 567 249 q 422 426 567 426 l 319 426 l 283 165 l 364 165 z "},"C":{"ha":785,"x_min":54,"x_max":833,"o":"m 549 986 q 833 872 731 986 l 710 750 q 637 801 674 785 q 553 818 600 818 q 399 747 458 818 q 313 573 339 675 q 286 374 286 471 q 331 207 286 261 q 456 153 375 153 q 551 174 507 153 q 651 235 596 194 l 738 99 q 597 11 678 46 q 426 -24 517 -24 q 153 79 253 -24 q 54 374 54 182 q 106 659 54 518 q 268 893 157 800 q 549 986 379 986 z "},"Ć":{"ha":785,"x_min":54,"x_max":833,"o":"m 549 986 q 833 872 731 986 l 710 750 q 637 801 674 785 q 553 818 600 818 q 399 747 458 818 q 313 573 339 675 q 286 374 286 471 q 331 207 286 261 q 456 153 375 153 q 551 174 507 153 q 651 235 596 194 l 738 99 q 597 11 678 46 q 426 -24 517 -24 q 153 79 253 -24 q 54 374 54 182 q 106 659 54 518 q 268 893 157 800 q 549 986 379 986 m 457 1038 l 403 1149 l 713 1329 l 792 1164 l 457 1038 z "},"Č":{"ha":785,"x_min":54,"x_max":856,"o":"m 549 986 q 833 872 731 986 l 710 750 q 637 801 674 785 q 553 818 600 818 q 399 747 458 818 q 313 573 339 675 q 286 374 286 471 q 331 207 286 261 q 456 153 375 153 q 551 174 507 153 q 651 235 596 194 l 738 99 q 597 11 678 46 q 426 -24 517 -24 q 153 79 253 -24 q 54 374 54 182 q 106 659 54 518 q 268 893 157 800 q 549 986 379 986 m 639 1042 l 507 1042 l 338 1221 l 425 1310 l 589 1193 l 788 1310 l 856 1221 l 639 1042 z "},"Ç":{"ha":785,"x_min":54,"x_max":833,"o":"m 738 99 q 608 16 681 49 q 451 -22 535 -17 l 444 -67 q 539 -106 507 -74 q 571 -189 571 -139 q 549 -271 571 -231 q 476 -337 526 -311 q 347 -364 425 -364 q 197 -319 260 -364 l 260 -221 q 340 -244 296 -244 q 394 -233 374 -244 q 415 -197 415 -221 q 388 -165 415 -175 q 296 -156 361 -156 l 331 -15 q 127 110 200 11 q 54 374 54 210 q 106 659 54 518 q 268 893 157 800 q 549 986 379 986 q 833 872 731 986 l 710 750 q 637 801 674 785 q 553 818 600 818 q 399 747 458 818 q 313 573 339 675 q 286 374 286 471 q 331 207 286 261 q 456 153 375 153 q 551 174 507 153 q 651 235 596 194 l 738 99 z "},"Ĉ":{"ha":785,"x_min":54,"x_max":857,"o":"m 549 986 q 833 872 731 986 l 710 750 q 637 801 674 785 q 553 818 600 818 q 399 747 458 818 q 313 573 339 675 q 286 374 286 471 q 331 207 286 261 q 456 153 375 153 q 551 174 507 153 q 651 235 596 194 l 738 99 q 597 11 678 46 q 426 -24 517 -24 q 153 79 253 -24 q 54 374 54 182 q 106 659 54 518 q 268 893 157 800 q 549 986 379 986 m 410 1049 l 339 1139 l 557 1318 l 689 1318 l 857 1139 l 772 1049 l 607 1165 l 410 1049 z "},"Ċ":{"ha":785,"x_min":54,"x_max":833,"o":"m 549 986 q 833 872 731 986 l 710 750 q 637 801 674 785 q 553 818 600 818 q 399 747 458 818 q 313 573 339 675 q 286 374 286 471 q 331 207 286 261 q 456 153 375 153 q 551 174 507 153 q 651 235 596 194 l 738 99 q 597 11 678 46 q 426 -24 517 -24 q 153 79 253 -24 q 54 374 54 182 q 106 659 54 518 q 268 893 157 800 q 549 986 379 986 m 611 1301 q 695 1269 664 1301 q 726 1188 726 1238 q 685 1091 726 1131 q 583 1051 643 1051 q 499 1083 531 1051 q 468 1161 468 1114 q 510 1260 468 1219 q 611 1301 551 1301 z "},"D":{"ha":892,"x_min":38,"x_max":871,"o":"m 433 963 q 751 883 632 963 q 871 597 871 803 q 742 167 871 335 q 325 0 613 0 l 38 0 l 172 963 l 433 963 m 285 165 l 358 165 q 576 294 511 165 q 640 597 640 424 q 590 755 640 713 q 447 797 540 797 l 374 797 l 285 165 z "},"Ð":{"ha":906,"x_min":28,"x_max":883,"o":"m 447 963 q 764 883 644 963 q 883 597 883 803 q 754 167 883 335 q 338 0 625 0 l 51 0 l 111 422 l 28 422 l 46 558 l 129 558 l 186 963 l 447 963 m 371 165 q 588 294 524 165 q 653 597 653 424 q 603 755 653 713 q 460 797 553 797 l 386 797 l 353 558 l 542 558 l 524 422 l 333 422 l 297 165 l 371 165 z "},"Ď":{"ha":892,"x_min":38,"x_max":871,"o":"m 433 963 q 751 883 632 963 q 871 597 871 803 q 742 167 871 335 q 325 0 613 0 l 38 0 l 172 963 l 433 963 m 285 165 l 358 165 q 576 294 511 165 q 640 597 640 424 q 590 755 640 713 q 447 797 540 797 l 374 797 l 285 165 m 560 1042 l 428 1042 l 258 1221 l 346 1310 l 510 1193 l 708 1310 l 776 1221 l 560 1042 z "},"Đ":{"ha":906,"x_min":28,"x_max":883,"o":"m 447 963 q 764 883 644 963 q 883 597 883 803 q 754 167 883 335 q 338 0 625 0 l 51 0 l 111 422 l 28 422 l 46 558 l 129 558 l 186 963 l 447 963 m 371 165 q 588 294 524 165 q 653 597 653 424 q 603 755 653 713 q 460 797 553 797 l 386 797 l 353 558 l 542 558 l 524 422 l 333 422 l 297 165 l 371 165 z "},"E":{"ha":718,"x_min":38,"x_max":754,"o":"m 374 800 l 340 569 l 632 569 l 611 410 l 319 410 l 285 164 l 642 164 l 619 0 l 38 0 l 172 963 l 754 963 l 707 800 l 374 800 z "},"É":{"ha":718,"x_min":38,"x_max":754,"o":"m 374 800 l 340 569 l 632 569 l 611 410 l 319 410 l 285 164 l 642 164 l 619 0 l 38 0 l 172 963 l 754 963 l 707 800 l 374 800 m 356 1038 l 301 1149 l 611 1329 l 690 1164 l 356 1038 z "},"Ĕ":{"ha":718,"x_min":38,"x_max":754,"o":"m 374 800 l 340 569 l 632 569 l 611 410 l 319 410 l 285 164 l 642 164 l 619 0 l 38 0 l 172 963 l 754 963 l 707 800 l 374 800 m 465 1043 q 309 1109 363 1043 q 260 1271 256 1175 l 378 1288 q 410 1220 385 1246 q 478 1194 435 1194 q 557 1222 524 1194 q 610 1292 590 1249 l 729 1265 q 638 1107 708 1171 q 465 1043 568 1043 z "},"Ě":{"ha":718,"x_min":38,"x_max":754,"o":"m 374 800 l 340 569 l 632 569 l 611 410 l 319 410 l 285 164 l 642 164 l 619 0 l 38 0 l 172 963 l 754 963 l 707 800 l 374 800 m 538 1042 l 406 1042 l 236 1221 l 324 1310 l 488 1193 l 686 1310 l 754 1221 l 538 1042 z "},"Ê":{"ha":718,"x_min":38,"x_max":756,"o":"m 374 800 l 340 569 l 632 569 l 611 410 l 319 410 l 285 164 l 642 164 l 619 0 l 38 0 l 172 963 l 754 963 l 707 800 l 374 800 m 308 1049 l 238 1139 l 456 1318 l 588 1318 l 756 1139 l 671 1049 l 506 1165 l 308 1049 z "},"Ë":{"ha":718,"x_min":38,"x_max":764,"o":"m 374 800 l 340 569 l 632 569 l 611 410 l 319 410 l 285 164 l 642 164 l 619 0 l 38 0 l 172 963 l 754 963 l 707 800 l 374 800 m 349 1285 q 419 1258 392 1285 q 447 1189 447 1231 q 446 1171 447 1176 q 406 1096 440 1126 q 325 1065 371 1065 q 253 1094 282 1065 q 225 1165 225 1122 q 262 1249 225 1214 q 349 1285 299 1285 m 665 1285 q 736 1258 708 1285 q 764 1189 764 1231 q 763 1171 764 1176 q 722 1096 757 1126 q 642 1065 688 1065 q 570 1094 599 1065 q 542 1165 542 1122 q 578 1249 542 1214 q 665 1285 615 1285 z "},"Ė":{"ha":718,"x_min":38,"x_max":754,"o":"m 374 800 l 340 569 l 632 569 l 611 410 l 319 410 l 285 164 l 642 164 l 619 0 l 38 0 l 172 963 l 754 963 l 707 800 l 374 800 m 510 1301 q 594 1269 563 1301 q 625 1188 625 1238 q 583 1091 625 1131 q 482 1051 542 1051 q 398 1083 429 1051 q 367 1161 367 1114 q 408 1260 367 1219 q 510 1301 450 1301 z "},"È":{"ha":718,"x_min":38,"x_max":754,"o":"m 374 800 l 340 569 l 632 569 l 611 410 l 319 410 l 285 164 l 642 164 l 619 0 l 38 0 l 172 963 l 754 963 l 707 800 l 374 800 m 631 1039 l 307 1165 l 397 1331 l 693 1150 l 631 1039 z "},"Ē":{"ha":718,"x_min":38,"x_max":754,"o":"m 374 800 l 340 569 l 632 569 l 611 410 l 319 410 l 285 164 l 642 164 l 619 0 l 38 0 l 172 963 l 754 963 l 707 800 l 374 800 m 294 1238 l 713 1238 l 690 1085 l 272 1085 l 294 1238 z "},"Ę":{"ha":718,"x_min":38,"x_max":754,"o":"m 340 569 l 632 569 l 611 410 l 319 410 l 285 164 l 642 164 l 619 0 l 567 0 q 381 -158 381 -67 q 442 -204 381 -204 q 529 -193 478 -204 l 499 -331 q 404 -340 458 -340 q 270 -301 321 -340 q 219 -196 219 -262 q 354 0 219 -78 l 38 0 l 172 963 l 754 963 l 707 800 l 374 800 l 340 569 z "},"F":{"ha":665,"x_min":38,"x_max":738,"o":"m 374 800 l 338 544 l 615 544 l 593 382 l 315 382 l 261 0 l 38 0 l 172 963 l 738 963 l 692 800 l 374 800 z "},"G":{"ha":882,"x_min":53,"x_max":883,"o":"m 579 986 q 883 864 768 986 l 753 747 q 672 803 711 786 q 576 821 632 821 q 404 748 469 821 q 311 566 339 675 q 283 340 283 457 q 322 189 283 235 q 440 143 361 143 q 575 176 511 143 l 606 393 l 483 393 l 485 554 l 846 554 l 781 78 q 610 3 703 29 q 426 -24 518 -24 q 147 74 240 -24 q 53 360 53 171 q 108 658 53 515 q 281 894 163 801 q 579 986 400 986 z "},"Ğ":{"ha":882,"x_min":53,"x_max":883,"o":"m 579 986 q 883 864 768 986 l 753 747 q 672 803 711 786 q 576 821 632 821 q 404 748 469 821 q 311 566 339 675 q 283 340 283 457 q 322 189 283 235 q 440 143 361 143 q 575 176 511 143 l 606 393 l 483 393 l 485 554 l 846 554 l 781 78 q 610 3 703 29 q 426 -24 518 -24 q 147 74 240 -24 q 53 360 53 171 q 108 658 53 515 q 281 894 163 801 q 579 986 400 986 m 564 1043 q 408 1109 461 1043 q 358 1271 354 1175 l 476 1288 q 508 1220 483 1246 q 576 1194 533 1194 q 656 1222 622 1194 q 708 1292 689 1249 l 828 1265 q 737 1107 807 1171 q 564 1043 667 1043 z "},"Ĝ":{"ha":882,"x_min":53,"x_max":883,"o":"m 579 986 q 883 864 768 986 l 753 747 q 672 803 711 786 q 576 821 632 821 q 404 748 469 821 q 311 566 339 675 q 283 340 283 457 q 322 189 283 235 q 440 143 361 143 q 575 176 511 143 l 606 393 l 483 393 l 485 554 l 846 554 l 781 78 q 610 3 703 29 q 426 -24 518 -24 q 147 74 240 -24 q 53 360 53 171 q 108 658 53 515 q 281 894 163 801 q 579 986 400 986 m 407 1049 l 336 1139 l 554 1318 l 686 1318 l 854 1139 l 769 1049 l 604 1165 l 407 1049 z "},"Ģ":{"ha":882,"x_min":53,"x_max":883,"o":"m 579 986 q 883 864 768 986 l 753 747 q 672 803 711 786 q 576 821 632 821 q 404 748 469 821 q 311 566 339 675 q 283 340 283 457 q 322 189 283 235 q 440 143 361 143 q 575 176 511 143 l 606 393 l 483 393 l 485 554 l 846 554 l 781 78 q 610 3 703 29 q 426 -24 518 -24 q 147 74 240 -24 q 53 360 53 171 q 108 658 53 515 q 281 894 163 801 q 579 986 400 986 m 410 -94 q 481 -122 454 -94 q 507 -190 507 -149 q 495 -250 507 -222 q 454 -324 483 -278 l 372 -451 l 264 -451 l 328 -289 q 290 -214 290 -258 q 325 -128 290 -161 q 410 -94 360 -94 z "},"Ġ":{"ha":882,"x_min":53,"x_max":883,"o":"m 579 986 q 883 864 768 986 l 753 747 q 672 803 711 786 q 576 821 632 821 q 404 748 469 821 q 311 566 339 675 q 283 340 283 457 q 322 189 283 235 q 440 143 361 143 q 575 176 511 143 l 606 393 l 483 393 l 485 554 l 846 554 l 781 78 q 610 3 703 29 q 426 -24 518 -24 q 147 74 240 -24 q 53 360 53 171 q 108 658 53 515 q 281 894 163 801 q 579 986 400 986 m 608 1301 q 692 1269 661 1301 q 724 1188 724 1238 q 682 1091 724 1131 q 581 1051 640 1051 q 497 1083 528 1051 q 465 1161 465 1114 q 507 1260 465 1219 q 608 1301 549 1301 z "},"H":{"ha":911,"x_min":38,"x_max":906,"o":"m 319 413 l 261 0 l 38 0 l 172 963 l 396 963 l 343 590 l 629 590 l 682 963 l 906 963 l 771 0 l 547 0 l 603 413 l 319 413 z "},"Ħ":{"ha":936,"x_min":47,"x_max":975,"o":"m 878 694 l 781 0 l 557 0 l 614 413 l 329 413 l 272 0 l 47 0 l 144 694 l 67 694 l 86 822 l 163 822 l 182 963 l 407 963 l 388 822 l 672 822 l 692 963 l 915 963 l 896 822 l 975 822 l 956 694 l 878 694 m 369 694 l 354 590 l 639 590 l 654 694 l 369 694 z "},"Ĥ":{"ha":911,"x_min":38,"x_max":906,"o":"m 319 413 l 261 0 l 38 0 l 172 963 l 396 963 l 343 590 l 629 590 l 682 963 l 906 963 l 771 0 l 547 0 l 603 413 l 319 413 m 382 1049 l 311 1139 l 529 1318 l 661 1318 l 829 1139 l 744 1049 l 579 1165 l 382 1049 z "},"I":{"ha":403,"x_min":38,"x_max":397,"o":"m 38 0 l 172 963 l 397 963 l 263 0 l 38 0 z "},"Ĳ":{"ha":835,"x_min":38,"x_max":832,"o":"m 38 0 l 172 963 l 397 963 l 263 0 l 38 0 m 718 144 q 651 -46 701 29 q 528 -163 600 -121 q 361 -236 457 -206 l 321 -74 q 419 -19 383 -50 q 470 53 454 13 q 494 157 486 94 l 608 963 l 832 963 l 718 144 z "},"Í":{"ha":403,"x_min":38,"x_max":510,"o":"m 38 0 l 172 963 l 397 963 l 263 0 l 38 0 m 175 1038 l 121 1149 l 431 1329 l 510 1164 l 175 1038 z "},"Ĭ":{"ha":403,"x_min":38,"x_max":549,"o":"m 38 0 l 172 963 l 397 963 l 263 0 l 38 0 m 285 1043 q 128 1109 182 1043 q 79 1271 75 1175 l 197 1288 q 229 1220 204 1246 q 297 1194 254 1194 q 376 1222 343 1194 q 429 1292 410 1249 l 549 1265 q 458 1107 528 1171 q 285 1043 388 1043 z "},"Î":{"ha":403,"x_min":38,"x_max":575,"o":"m 38 0 l 172 963 l 397 963 l 263 0 l 38 0 m 128 1049 l 57 1139 l 275 1318 l 407 1318 l 575 1139 l 490 1049 l 325 1165 l 128 1049 z "},"Ï":{"ha":403,"x_min":38,"x_max":583,"o":"m 38 0 l 172 963 l 397 963 l 263 0 l 38 0 m 168 1285 q 239 1258 211 1285 q 267 1189 267 1231 q 265 1171 267 1176 q 225 1096 260 1126 q 144 1065 190 1065 q 73 1094 101 1065 q 44 1165 44 1122 q 81 1249 44 1214 q 168 1285 118 1285 m 485 1285 q 556 1258 528 1285 q 583 1189 583 1231 q 582 1171 583 1176 q 542 1096 576 1126 q 461 1065 507 1065 q 390 1094 418 1065 q 361 1165 361 1122 q 398 1249 361 1214 q 485 1285 435 1285 z "},"İ":{"ha":403,"x_min":38,"x_max":444,"o":"m 38 0 l 172 963 l 397 963 l 263 0 l 38 0 m 329 1301 q 413 1269 382 1301 q 444 1188 444 1238 q 403 1091 444 1131 q 301 1051 361 1051 q 217 1083 249 1051 q 186 1161 186 1114 q 228 1260 186 1219 q 329 1301 269 1301 z "},"Ì":{"ha":403,"x_min":38,"x_max":513,"o":"m 38 0 l 172 963 l 397 963 l 263 0 l 38 0 m 450 1039 l 126 1165 l 217 1331 l 513 1150 l 450 1039 z "},"Ī":{"ha":403,"x_min":38,"x_max":532,"o":"m 38 0 l 172 963 l 397 963 l 263 0 l 38 0 m 114 1238 l 532 1238 l 510 1085 l 92 1085 l 114 1238 z "},"Į":{"ha":403,"x_min":-121,"x_max":397,"o":"m 263 0 l 226 0 q 40 -158 40 -67 q 101 -204 40 -204 q 189 -193 138 -204 l 158 -331 q 64 -340 118 -340 q -70 -301 -19 -340 q -121 -196 -121 -262 q 39 14 -121 -67 l 172 963 l 397 963 l 263 0 z "},"Ĩ":{"ha":403,"x_min":38,"x_max":578,"o":"m 38 0 l 172 963 l 397 963 l 263 0 l 38 0 m 385 1057 q 337 1067 358 1057 q 289 1094 315 1076 q 235 1119 254 1119 q 192 1104 210 1119 q 150 1056 174 1089 l 49 1114 q 137 1230 86 1185 q 244 1275 188 1275 q 297 1265 275 1275 q 343 1236 319 1254 q 368 1219 356 1226 q 393 1213 381 1213 q 435 1227 417 1213 q 476 1275 454 1242 l 578 1218 q 490 1101 540 1146 q 385 1057 439 1057 z "},"J":{"ha":431,"x_min":-82,"x_max":429,"o":"m 315 144 q 248 -46 299 29 q 126 -163 197 -121 q -42 -236 54 -206 l -82 -74 q 16 -19 -19 -50 q 67 53 51 13 q 92 157 83 94 l 206 963 l 429 963 l 315 144 z "},"Ĵ":{"ha":431,"x_min":-82,"x_max":607,"o":"m 315 144 q 248 -46 299 29 q 126 -163 197 -121 q -42 -236 54 -206 l -82 -74 q 16 -19 -19 -50 q 67 53 51 13 q 92 157 83 94 l 206 963 l 429 963 l 315 144 m 160 1049 l 89 1139 l 307 1318 l 439 1318 l 607 1139 l 522 1049 l 357 1165 l 160 1049 z "},"K":{"ha":865,"x_min":38,"x_max":942,"o":"m 38 0 l 172 963 l 396 963 l 261 0 l 38 0 m 831 0 l 575 0 l 342 514 l 701 963 l 942 963 l 575 517 l 831 0 z "},"Ķ":{"ha":865,"x_min":38,"x_max":942,"o":"m 38 0 l 172 963 l 396 963 l 261 0 l 38 0 m 831 0 l 575 0 l 342 514 l 701 963 l 942 963 l 575 517 l 831 0 m 379 -94 q 450 -122 424 -94 q 476 -190 476 -149 q 465 -250 476 -222 q 424 -324 453 -278 l 342 -451 l 233 -451 l 297 -289 q 260 -214 260 -258 q 294 -128 260 -161 q 379 -94 329 -94 z "},"L":{"ha":703,"x_min":38,"x_max":656,"o":"m 656 181 l 608 0 l 38 0 l 172 963 l 396 963 l 288 181 l 656 181 z "},"Ĺ":{"ha":703,"x_min":38,"x_max":656,"o":"m 656 181 l 608 0 l 38 0 l 172 963 l 396 963 l 288 181 l 656 181 m 174 1038 l 119 1149 l 429 1329 l 508 1164 l 174 1038 z "},"Ľ":{"ha":703,"x_min":38,"x_max":664,"o":"m 656 181 l 608 0 l 38 0 l 172 963 l 396 963 l 288 181 l 656 181 m 558 664 l 447 675 l 504 982 l 664 963 l 558 664 z "},"Ļ":{"ha":703,"x_min":38,"x_max":656,"o":"m 656 181 l 608 0 l 38 0 l 172 963 l 396 963 l 288 181 l 656 181 m 308 -94 q 379 -122 353 -94 q 406 -190 406 -149 q 394 -250 406 -222 q 353 -324 382 -278 l 271 -451 l 163 -451 l 226 -289 q 189 -214 189 -258 q 224 -128 189 -161 q 308 -94 258 -94 z "},"Ŀ":{"ha":703,"x_min":38,"x_max":699,"o":"m 656 181 l 608 0 l 38 0 l 172 963 l 396 963 l 288 181 l 656 181 m 583 678 q 667 647 636 678 q 699 567 699 615 q 658 468 699 508 q 556 428 617 428 q 473 459 504 428 q 442 538 442 490 q 483 637 442 596 q 583 678 524 678 z "},"Ł":{"ha":750,"x_min":13,"x_max":703,"o":"m 85 0 l 128 310 l 68 275 l 13 396 l 151 476 l 219 963 l 443 963 l 394 618 l 586 729 l 644 610 l 371 451 l 333 181 l 703 181 l 654 0 l 85 0 z "},"M":{"ha":1088,"x_min":-6,"x_max":1043,"o":"m 761 0 l 796 379 q 849 788 815 590 l 608 101 l 393 101 l 331 785 q 282 371 322 585 l 214 0 l -6 0 l 201 963 l 475 963 l 528 294 l 751 963 l 1043 963 l 981 0 l 761 0 z "},"N":{"ha":907,"x_min":38,"x_max":901,"o":"m 483 0 l 306 774 q 308 658 308 699 q 285 342 308 511 l 236 0 l 38 0 l 172 963 l 454 963 l 635 189 q 631 333 631 267 q 649 585 631 454 l 703 963 l 901 963 l 767 0 l 483 0 z "},"Ń":{"ha":907,"x_min":38,"x_max":901,"o":"m 483 0 l 306 774 q 308 658 308 699 q 285 342 308 511 l 236 0 l 38 0 l 172 963 l 454 963 l 635 189 q 631 333 631 267 q 649 585 631 454 l 703 963 l 901 963 l 767 0 l 483 0 m 433 1038 l 379 1149 l 689 1329 l 768 1164 l 433 1038 z "},"Ň":{"ha":907,"x_min":38,"x_max":901,"o":"m 483 0 l 306 774 q 308 658 308 699 q 285 342 308 511 l 236 0 l 38 0 l 172 963 l 454 963 l 635 189 q 631 333 631 267 q 649 585 631 454 l 703 963 l 901 963 l 767 0 l 483 0 m 615 1042 l 483 1042 l 314 1221 l 401 1310 l 565 1193 l 764 1310 l 832 1221 l 615 1042 z "},"Ņ":{"ha":907,"x_min":38,"x_max":901,"o":"m 483 0 l 306 774 q 308 658 308 699 q 285 342 308 511 l 236 0 l 38 0 l 172 963 l 454 963 l 635 189 q 631 333 631 267 q 649 585 631 454 l 703 963 l 901 963 l 767 0 l 483 0 m 389 -94 q 460 -122 433 -94 q 486 -190 486 -149 q 474 -250 486 -222 q 433 -324 463 -278 l 351 -451 l 243 -451 l 307 -289 q 269 -214 269 -258 q 304 -128 269 -161 q 389 -94 339 -94 z "},"Ŋ":{"ha":907,"x_min":38,"x_max":901,"o":"m 767 0 q 669 -192 749 -119 q 435 -308 589 -265 l 385 -158 q 510 -94 468 -128 q 571 0 551 -61 l 483 0 l 306 774 q 308 658 308 699 q 285 342 308 511 l 236 0 l 38 0 l 172 963 l 454 963 l 635 189 q 631 333 631 267 q 649 585 631 454 l 703 963 l 901 963 l 767 0 z "},"Ñ":{"ha":907,"x_min":38,"x_max":901,"o":"m 483 0 l 306 774 q 308 658 308 699 q 285 342 308 511 l 236 0 l 38 0 l 172 963 l 454 963 l 635 189 q 631 333 631 267 q 649 585 631 454 l 703 963 l 901 963 l 767 0 l 483 0 m 644 1057 q 597 1067 618 1057 q 549 1094 575 1076 q 494 1119 514 1119 q 451 1104 469 1119 q 410 1056 433 1089 l 308 1114 q 397 1230 346 1185 q 504 1275 447 1275 q 557 1265 535 1275 q 603 1236 579 1254 q 628 1219 615 1226 q 653 1213 640 1213 q 695 1227 676 1213 q 736 1275 714 1242 l 838 1218 q 749 1101 800 1146 q 644 1057 699 1057 z "},"O":{"ha":946,"x_min":54,"x_max":924,"o":"m 557 986 q 828 883 732 986 q 924 592 924 781 q 875 306 924 446 q 714 71 826 165 q 422 -24 601 -24 q 150 80 246 -24 q 54 371 54 183 q 103 656 54 515 q 265 891 153 796 q 557 986 378 986 m 540 819 q 386 742 443 819 q 307 556 329 664 q 285 346 285 449 q 438 143 285 143 q 592 221 535 143 q 671 408 649 299 q 693 621 693 517 q 655 772 693 724 q 540 819 617 819 z "},"Ó":{"ha":946,"x_min":54,"x_max":924,"o":"m 557 986 q 828 883 732 986 q 924 592 924 781 q 875 306 924 446 q 714 71 826 165 q 422 -24 601 -24 q 150 80 246 -24 q 54 371 54 183 q 103 656 54 515 q 265 891 153 796 q 557 986 378 986 m 540 819 q 386 742 443 819 q 307 556 329 664 q 285 346 285 449 q 438 143 285 143 q 592 221 535 143 q 671 408 649 299 q 693 621 693 517 q 655 772 693 724 q 540 819 617 819 m 449 1038 l 394 1149 l 704 1329 l 783 1164 l 449 1038 z "},"Ŏ":{"ha":946,"x_min":54,"x_max":924,"o":"m 557 986 q 828 883 732 986 q 924 592 924 781 q 875 306 924 446 q 714 71 826 165 q 422 -24 601 -24 q 150 80 246 -24 q 54 371 54 183 q 103 656 54 515 q 265 891 153 796 q 557 986 378 986 m 540 819 q 386 742 443 819 q 307 556 329 664 q 285 346 285 449 q 438 143 285 143 q 592 221 535 143 q 671 408 649 299 q 693 621 693 517 q 655 772 693 724 q 540 819 617 819 m 558 1043 q 402 1109 456 1043 q 353 1271 349 1175 l 471 1288 q 503 1220 478 1246 q 571 1194 528 1194 q 650 1222 617 1194 q 703 1292 683 1249 l 822 1265 q 731 1107 801 1171 q 558 1043 661 1043 z "},"Ô":{"ha":946,"x_min":54,"x_max":924,"o":"m 557 986 q 828 883 732 986 q 924 592 924 781 q 875 306 924 446 q 714 71 826 165 q 422 -24 601 -24 q 150 80 246 -24 q 54 371 54 183 q 103 656 54 515 q 265 891 153 796 q 557 986 378 986 m 540 819 q 386 742 443 819 q 307 556 329 664 q 285 346 285 449 q 438 143 285 143 q 592 221 535 143 q 671 408 649 299 q 693 621 693 517 q 655 772 693 724 q 540 819 617 819 m 401 1049 l 331 1139 l 549 1318 l 681 1318 l 849 1139 l 764 1049 l 599 1165 l 401 1049 z "},"Ö":{"ha":946,"x_min":54,"x_max":924,"o":"m 557 986 q 828 883 732 986 q 924 592 924 781 q 875 306 924 446 q 714 71 826 165 q 422 -24 601 -24 q 150 80 246 -24 q 54 371 54 183 q 103 656 54 515 q 265 891 153 796 q 557 986 378 986 m 540 819 q 386 742 443 819 q 307 556 329 664 q 285 346 285 449 q 438 143 285 143 q 592 221 535 143 q 671 408 649 299 q 693 621 693 517 q 655 772 693 724 q 540 819 617 819 m 442 1285 q 513 1258 485 1285 q 540 1189 540 1231 q 539 1171 540 1176 q 499 1096 533 1126 q 418 1065 464 1065 q 347 1094 375 1065 q 318 1165 318 1122 q 355 1249 318 1214 q 442 1285 392 1285 m 758 1285 q 829 1258 801 1285 q 857 1189 857 1231 q 856 1171 857 1176 q 815 1096 850 1126 q 735 1065 781 1065 q 663 1094 692 1065 q 635 1165 635 1122 q 672 1249 635 1214 q 758 1285 708 1285 z "},"Ò":{"ha":946,"x_min":54,"x_max":924,"o":"m 557 986 q 828 883 732 986 q 924 592 924 781 q 875 306 924 446 q 714 71 826 165 q 422 -24 601 -24 q 150 80 246 -24 q 54 371 54 183 q 103 656 54 515 q 265 891 153 796 q 557 986 378 986 m 540 819 q 386 742 443 819 q 307 556 329 664 q 285 346 285 449 q 438 143 285 143 q 592 221 535 143 q 671 408 649 299 q 693 621 693 517 q 655 772 693 724 q 540 819 617 819 m 724 1039 l 400 1165 l 490 1331 l 786 1150 l 724 1039 z "},"Ő":{"ha":946,"x_min":54,"x_max":924,"o":"m 557 986 q 828 883 732 986 q 924 592 924 781 q 875 306 924 446 q 714 71 826 165 q 422 -24 601 -24 q 150 80 246 -24 q 54 371 54 183 q 103 656 54 515 q 265 891 153 796 q 557 986 378 986 m 540 819 q 386 742 443 819 q 307 556 329 664 q 285 346 285 449 q 438 143 285 143 q 592 221 535 143 q 671 408 649 299 q 693 621 693 517 q 655 772 693 724 q 540 819 617 819 m 435 1050 l 326 1096 l 485 1369 l 622 1300 l 435 1050 m 661 1043 l 556 1096 l 725 1369 l 861 1296 l 661 1043 z "},"Ō":{"ha":946,"x_min":54,"x_max":924,"o":"m 557 986 q 828 883 732 986 q 924 592 924 781 q 875 306 924 446 q 714 71 826 165 q 422 -24 601 -24 q 150 80 246 -24 q 54 371 54 183 q 103 656 54 515 q 265 891 153 796 q 557 986 378 986 m 540 819 q 386 742 443 819 q 307 556 329 664 q 285 346 285 449 q 438 143 285 143 q 592 221 535 143 q 671 408 649 299 q 693 621 693 517 q 655 772 693 724 q 540 819 617 819 m 388 1238 l 806 1238 l 783 1085 l 365 1085 l 388 1238 z "},"Ø":{"ha":946,"x_min":54,"x_max":924,"o":"m 782 924 q 888 790 851 874 q 924 592 924 707 q 875 306 924 446 q 714 71 826 165 q 422 -24 601 -24 q 351 -19 385 -24 l 278 -186 l 114 -142 l 196 40 q 90 173 126 89 q 54 371 54 257 q 103 656 54 515 q 265 891 153 796 q 557 986 378 986 q 625 982 592 986 l 700 1150 l 863 1104 l 782 924 m 540 819 q 385 742 443 819 q 304 556 328 664 q 281 346 281 447 q 307 201 281 247 l 575 818 q 540 819 564 819 m 438 143 q 592 222 535 143 q 673 408 650 300 q 696 621 696 517 q 671 763 696 717 l 401 144 q 438 143 413 143 z "},"Ǿ":{"ha":946,"x_min":54,"x_max":924,"o":"m 782 924 q 888 790 851 874 q 924 592 924 707 q 875 306 924 446 q 714 71 826 165 q 422 -24 601 -24 q 351 -19 385 -24 l 278 -186 l 114 -142 l 196 40 q 90 173 126 89 q 54 371 54 257 q 103 656 54 515 q 265 891 153 796 q 557 986 378 986 q 625 982 592 986 l 700 1150 l 863 1104 l 782 924 m 540 819 q 385 742 443 819 q 304 556 328 664 q 281 346 281 447 q 307 201 281 247 l 575 818 q 540 819 564 819 m 438 143 q 592 222 535 143 q 673 408 650 300 q 696 621 696 517 q 671 763 696 717 l 401 144 q 438 143 413 143 m 450 1085 l 396 1196 l 706 1376 l 785 1211 l 450 1085 z "},"Õ":{"ha":946,"x_min":54,"x_max":924,"o":"m 557 986 q 828 883 732 986 q 924 592 924 781 q 875 306 924 446 q 714 71 826 165 q 422 -24 601 -24 q 150 80 246 -24 q 54 371 54 183 q 103 656 54 515 q 265 891 153 796 q 557 986 378 986 m 540 819 q 386 742 443 819 q 307 556 329 664 q 285 346 285 449 q 438 143 285 143 q 592 221 535 143 q 671 408 649 299 q 693 621 693 517 q 655 772 693 724 q 540 819 617 819 m 658 1057 q 610 1067 632 1057 q 563 1094 589 1076 q 508 1119 528 1119 q 465 1104 483 1119 q 424 1056 447 1089 l 322 1114 q 410 1230 360 1185 q 518 1275 461 1275 q 571 1265 549 1275 q 617 1236 593 1254 q 642 1219 629 1226 q 667 1213 654 1213 q 709 1227 690 1213 q 750 1275 728 1242 l 851 1218 q 763 1101 814 1146 q 658 1057 713 1057 z "},"Œ":{"ha":1242,"x_min":54,"x_max":1271,"o":"m 838 800 q 890 569 890 708 l 1150 569 l 1129 410 l 875 410 q 756 164 844 261 l 1160 164 l 1138 0 l 533 0 q 400 -24 469 -24 q 146 79 238 -24 q 54 369 54 182 q 103 653 54 511 q 259 890 151 794 q 533 986 367 986 q 665 963 606 986 l 1271 963 l 1225 800 l 838 800 m 283 344 q 422 143 283 143 q 607 288 550 143 q 664 624 664 433 q 525 819 664 819 q 382 747 436 819 q 306 566 328 674 q 283 344 283 458 z "},"P":{"ha":821,"x_min":38,"x_max":836,"o":"m 478 963 q 742 894 649 963 q 836 694 836 826 q 793 514 836 599 q 654 375 750 429 q 411 321 558 321 l 306 321 l 261 0 l 38 0 l 172 963 l 478 963 m 411 485 q 559 544 515 485 q 603 683 603 603 q 566 772 603 744 q 456 800 529 800 l 374 800 l 329 485 l 411 485 z "},"Þ":{"ha":821,"x_min":38,"x_max":814,"o":"m 456 813 q 721 744 628 813 q 814 536 814 675 q 774 358 814 444 q 638 215 733 272 q 388 158 542 158 l 283 158 l 261 0 l 38 0 l 172 963 l 396 963 l 375 813 l 456 813 m 388 324 q 538 386 493 324 q 582 531 582 449 q 435 650 582 650 l 353 650 l 307 324 l 388 324 z "},"Q":{"ha":944,"x_min":54,"x_max":924,"o":"m 924 592 q 858 277 924 425 q 651 60 793 129 q 804 33 743 56 q 915 -31 865 11 l 758 -206 q 618 -71 693 -118 q 422 -24 543 -24 q 150 80 246 -24 q 54 371 54 183 q 103 656 54 515 q 265 891 153 796 q 557 986 378 986 q 828 883 732 986 q 924 592 924 781 m 285 346 q 438 143 285 143 q 592 221 535 143 q 671 408 649 299 q 693 621 693 517 q 655 772 693 724 q 540 819 617 819 q 386 742 443 819 q 307 556 329 664 q 285 346 285 449 z "},"R":{"ha":843,"x_min":38,"x_max":835,"o":"m 835 719 q 787 536 835 615 q 615 404 739 457 l 796 0 l 551 0 l 406 367 l 313 368 l 261 0 l 38 0 l 172 963 l 482 963 q 747 903 658 963 q 835 719 835 843 m 433 525 q 565 578 526 525 q 603 703 603 632 q 567 778 603 754 q 458 803 532 803 l 374 803 l 335 525 l 433 525 z "},"Ŕ":{"ha":843,"x_min":38,"x_max":835,"o":"m 835 719 q 787 536 835 615 q 615 404 739 457 l 796 0 l 551 0 l 406 367 l 313 368 l 261 0 l 38 0 l 172 963 l 482 963 q 747 903 658 963 q 835 719 835 843 m 433 525 q 565 578 526 525 q 603 703 603 632 q 567 778 603 754 q 458 803 532 803 l 374 803 l 335 525 l 433 525 m 393 1038 l 339 1149 l 649 1329 l 728 1164 l 393 1038 z "},"Ř":{"ha":843,"x_min":38,"x_max":835,"o":"m 835 719 q 787 536 835 615 q 615 404 739 457 l 796 0 l 551 0 l 406 367 l 313 368 l 261 0 l 38 0 l 172 963 l 482 963 q 747 903 658 963 q 835 719 835 843 m 433 525 q 565 578 526 525 q 603 703 603 632 q 567 778 603 754 q 458 803 532 803 l 374 803 l 335 525 l 433 525 m 575 1042 l 443 1042 l 274 1221 l 361 1310 l 525 1193 l 724 1310 l 792 1221 l 575 1042 z "},"Ŗ":{"ha":843,"x_min":38,"x_max":835,"o":"m 835 719 q 787 536 835 615 q 615 404 739 457 l 796 0 l 551 0 l 406 367 l 313 368 l 261 0 l 38 0 l 172 963 l 482 963 q 747 903 658 963 q 835 719 835 843 m 433 525 q 565 578 526 525 q 603 703 603 632 q 567 778 603 754 q 458 803 532 803 l 374 803 l 335 525 l 433 525 m 361 -94 q 432 -122 406 -94 q 458 -190 458 -149 q 447 -250 458 -222 q 406 -324 435 -278 l 324 -451 l 215 -451 l 279 -289 q 242 -214 242 -258 q 276 -128 242 -161 q 361 -94 311 -94 z "},"S":{"ha":781,"x_min":-22,"x_max":790,"o":"m 475 986 q 790 860 671 986 l 671 740 q 476 819 588 819 q 371 791 411 819 q 331 713 331 763 q 345 665 331 685 q 393 629 360 646 q 492 589 426 613 q 676 485 614 549 q 739 315 739 421 q 699 156 739 233 q 566 27 658 78 q 328 -24 474 -24 q 124 15 211 -24 q -22 117 38 53 l 107 244 q 328 150 199 150 q 455 185 407 150 q 503 278 503 219 q 469 356 503 326 q 351 417 436 386 q 156 525 217 460 q 96 688 96 590 q 137 831 96 763 q 263 942 178 899 q 475 986 349 986 z "},"Ś":{"ha":781,"x_min":-22,"x_max":790,"o":"m 475 986 q 790 860 671 986 l 671 740 q 476 819 588 819 q 371 791 411 819 q 331 713 331 763 q 345 665 331 685 q 393 629 360 646 q 492 589 426 613 q 676 485 614 549 q 739 315 739 421 q 699 156 739 233 q 566 27 658 78 q 328 -24 474 -24 q 124 15 211 -24 q -22 117 38 53 l 107 244 q 328 150 199 150 q 455 185 407 150 q 503 278 503 219 q 469 356 503 326 q 351 417 436 386 q 156 525 217 460 q 96 688 96 590 q 137 831 96 763 q 263 942 178 899 q 475 986 349 986 m 376 1038 l 322 1149 l 632 1329 l 711 1164 l 376 1038 z "},"Š":{"ha":781,"x_min":-22,"x_max":790,"o":"m 475 986 q 790 860 671 986 l 671 740 q 476 819 588 819 q 371 791 411 819 q 331 713 331 763 q 345 665 331 685 q 393 629 360 646 q 492 589 426 613 q 676 485 614 549 q 739 315 739 421 q 699 156 739 233 q 566 27 658 78 q 328 -24 474 -24 q 124 15 211 -24 q -22 117 38 53 l 107 244 q 328 150 199 150 q 455 185 407 150 q 503 278 503 219 q 469 356 503 326 q 351 417 436 386 q 156 525 217 460 q 96 688 96 590 q 137 831 96 763 q 263 942 178 899 q 475 986 349 986 m 558 1042 l 426 1042 l 257 1221 l 344 1310 l 508 1193 l 707 1310 l 775 1221 l 558 1042 z "},"Ş":{"ha":781,"x_min":-22,"x_max":790,"o":"m 492 589 q 676 485 614 549 q 739 315 739 421 q 703 164 739 238 q 585 38 667 90 q 374 -22 503 -14 l 365 -67 q 460 -106 428 -74 q 492 -189 492 -139 q 469 -271 492 -231 q 397 -337 447 -311 q 268 -364 346 -364 q 118 -319 181 -364 l 181 -221 q 261 -244 217 -244 q 315 -233 294 -244 q 336 -197 336 -221 q 309 -165 336 -175 q 217 -156 282 -156 l 251 -19 q -22 117 82 3 l 107 244 q 328 150 199 150 q 455 185 407 150 q 503 278 503 219 q 469 356 503 326 q 351 417 436 386 q 156 525 217 460 q 96 688 96 590 q 137 831 96 763 q 263 942 178 899 q 475 986 349 986 q 790 860 671 986 l 671 740 q 476 819 588 819 q 371 791 411 819 q 331 713 331 763 q 345 665 331 685 q 393 629 360 646 q 492 589 426 613 z "},"Ŝ":{"ha":781,"x_min":-22,"x_max":790,"o":"m 475 986 q 790 860 671 986 l 671 740 q 476 819 588 819 q 371 791 411 819 q 331 713 331 763 q 345 665 331 685 q 393 629 360 646 q 492 589 426 613 q 676 485 614 549 q 739 315 739 421 q 699 156 739 233 q 566 27 658 78 q 328 -24 474 -24 q 124 15 211 -24 q -22 117 38 53 l 107 244 q 328 150 199 150 q 455 185 407 150 q 503 278 503 219 q 469 356 503 326 q 351 417 436 386 q 156 525 217 460 q 96 688 96 590 q 137 831 96 763 q 263 942 178 899 q 475 986 349 986 m 329 1049 l 258 1139 l 476 1318 l 608 1318 l 776 1139 l 692 1049 l 526 1165 l 329 1049 z "},"Ș":{"ha":781,"x_min":-22,"x_max":790,"o":"m 475 986 q 790 860 671 986 l 671 740 q 476 819 588 819 q 371 791 411 819 q 331 713 331 763 q 345 665 331 685 q 393 629 360 646 q 492 589 426 613 q 676 485 614 549 q 739 315 739 421 q 699 156 739 233 q 566 27 658 78 q 328 -24 474 -24 q 124 15 211 -24 q -22 117 38 53 l 107 244 q 328 150 199 150 q 455 185 407 150 q 503 278 503 219 q 469 356 503 326 q 351 417 436 386 q 156 525 217 460 q 96 688 96 590 q 137 831 96 763 q 263 942 178 899 q 475 986 349 986 m 321 -94 q 392 -122 365 -94 q 418 -190 418 -149 q 406 -250 418 -222 q 365 -324 394 -278 l 283 -451 l 175 -451 l 239 -289 q 201 -214 201 -258 q 236 -128 201 -161 q 321 -94 271 -94 z "},"T":{"ha":736,"x_min":69,"x_max":821,"o":"m 539 788 l 429 0 l 204 0 l 315 788 l 69 788 l 94 963 l 821 963 l 772 788 l 539 788 z "},"Ŧ":{"ha":738,"x_min":69,"x_max":821,"o":"m 661 542 l 644 414 l 488 414 l 429 0 l 204 0 l 263 414 l 106 414 l 122 542 l 281 542 l 315 788 l 69 788 l 94 963 l 821 963 l 772 788 l 539 788 l 504 542 l 661 542 z "},"Ť":{"ha":736,"x_min":69,"x_max":821,"o":"m 539 788 l 429 0 l 204 0 l 315 788 l 69 788 l 94 963 l 821 963 l 772 788 l 539 788 m 524 1042 l 392 1042 l 222 1221 l 310 1310 l 474 1193 l 672 1310 l 740 1221 l 524 1042 z "},"Ţ":{"ha":736,"x_min":69,"x_max":821,"o":"m 418 -67 q 512 -106 481 -74 q 543 -190 543 -137 q 520 -270 543 -231 q 447 -337 497 -310 q 319 -364 397 -364 q 169 -319 232 -364 l 232 -221 q 313 -244 268 -244 q 367 -233 346 -244 q 388 -197 388 -221 q 360 -165 388 -175 q 268 -156 333 -156 l 307 0 l 204 0 l 315 788 l 69 788 l 94 963 l 821 963 l 772 788 l 539 788 l 429 0 l 418 -67 z "},"Ț":{"ha":736,"x_min":69,"x_max":821,"o":"m 539 788 l 429 0 l 204 0 l 315 788 l 69 788 l 94 963 l 821 963 l 772 788 l 539 788 m 303 -94 q 374 -122 347 -94 q 400 -190 400 -149 q 388 -250 400 -222 q 347 -324 376 -278 l 265 -451 l 157 -451 l 221 -289 q 183 -214 183 -258 q 218 -128 183 -161 q 303 -94 253 -94 z "},"U":{"ha":890,"x_min":64,"x_max":899,"o":"m 808 318 q 678 71 786 165 q 393 -24 571 -24 q 147 53 231 -24 q 64 261 64 129 q 68 322 64 292 l 158 963 l 382 963 l 293 326 q 289 271 289 296 q 318 176 289 207 q 410 146 347 146 q 528 192 486 146 q 585 331 571 238 l 674 963 l 899 963 l 808 318 z "},"Ú":{"ha":890,"x_min":64,"x_max":899,"o":"m 808 318 q 678 71 786 165 q 393 -24 571 -24 q 147 53 231 -24 q 64 261 64 129 q 68 322 64 292 l 158 963 l 382 963 l 293 326 q 289 271 289 296 q 318 176 289 207 q 410 146 347 146 q 528 192 486 146 q 585 331 571 238 l 674 963 l 899 963 l 808 318 m 418 1038 l 364 1149 l 674 1329 l 753 1164 l 418 1038 z "},"Ŭ":{"ha":890,"x_min":64,"x_max":899,"o":"m 808 318 q 678 71 786 165 q 393 -24 571 -24 q 147 53 231 -24 q 64 261 64 129 q 68 322 64 292 l 158 963 l 382 963 l 293 326 q 289 271 289 296 q 318 176 289 207 q 410 146 347 146 q 528 192 486 146 q 585 331 571 238 l 674 963 l 899 963 l 808 318 m 528 1043 q 372 1109 425 1043 q 322 1271 318 1175 l 440 1288 q 472 1220 447 1246 q 540 1194 497 1194 q 619 1222 586 1194 q 672 1292 653 1249 l 792 1265 q 701 1107 771 1171 q 528 1043 631 1043 z "},"Û":{"ha":890,"x_min":64,"x_max":899,"o":"m 808 318 q 678 71 786 165 q 393 -24 571 -24 q 147 53 231 -24 q 64 261 64 129 q 68 322 64 292 l 158 963 l 382 963 l 293 326 q 289 271 289 296 q 318 176 289 207 q 410 146 347 146 q 528 192 486 146 q 585 331 571 238 l 674 963 l 899 963 l 808 318 m 371 1049 l 300 1139 l 518 1318 l 650 1318 l 818 1139 l 733 1049 l 568 1165 l 371 1049 z "},"Ü":{"ha":890,"x_min":64,"x_max":899,"o":"m 808 318 q 678 71 786 165 q 393 -24 571 -24 q 147 53 231 -24 q 64 261 64 129 q 68 322 64 292 l 158 963 l 382 963 l 293 326 q 289 271 289 296 q 318 176 289 207 q 410 146 347 146 q 528 192 486 146 q 585 331 571 238 l 674 963 l 899 963 l 808 318 m 411 1285 q 482 1258 454 1285 q 510 1189 510 1231 q 508 1171 510 1176 q 468 1096 503 1126 q 388 1065 433 1065 q 316 1094 344 1065 q 288 1165 288 1122 q 324 1249 288 1214 q 411 1285 361 1285 m 728 1285 q 799 1258 771 1285 q 826 1189 826 1231 q 825 1171 826 1176 q 785 1096 819 1126 q 704 1065 750 1065 q 633 1094 661 1065 q 604 1165 604 1122 q 641 1249 604 1214 q 728 1285 678 1285 z "},"Ù":{"ha":890,"x_min":64,"x_max":899,"o":"m 808 318 q 678 71 786 165 q 393 -24 571 -24 q 147 53 231 -24 q 64 261 64 129 q 68 322 64 292 l 158 963 l 382 963 l 293 326 q 289 271 289 296 q 318 176 289 207 q 410 146 347 146 q 528 192 486 146 q 585 331 571 238 l 674 963 l 899 963 l 808 318 m 693 1039 l 369 1165 l 460 1331 l 756 1150 l 693 1039 z "},"Ű":{"ha":890,"x_min":64,"x_max":899,"o":"m 808 318 q 678 71 786 165 q 393 -24 571 -24 q 147 53 231 -24 q 64 261 64 129 q 68 322 64 292 l 158 963 l 382 963 l 293 326 q 289 271 289 296 q 318 176 289 207 q 410 146 347 146 q 528 192 486 146 q 585 331 571 238 l 674 963 l 899 963 l 808 318 m 404 1050 l 296 1096 l 454 1369 l 592 1300 l 404 1050 m 631 1043 l 525 1096 l 694 1369 l 831 1296 l 631 1043 z "},"Ū":{"ha":890,"x_min":64,"x_max":899,"o":"m 808 318 q 678 71 786 165 q 393 -24 571 -24 q 147 53 231 -24 q 64 261 64 129 q 68 322 64 292 l 158 963 l 382 963 l 293 326 q 289 271 289 296 q 318 176 289 207 q 410 146 347 146 q 528 192 486 146 q 585 331 571 238 l 674 963 l 899 963 l 808 318 m 358 1238 l 776 1238 l 754 1085 l 336 1085 l 358 1238 z "},"Ų":{"ha":890,"x_min":64,"x_max":899,"o":"m 808 318 q 722 115 792 200 q 538 -4 653 29 q 371 -151 371 -68 q 438 -206 371 -206 q 525 -194 474 -206 l 497 -331 q 400 -342 450 -342 q 262 -301 315 -342 q 208 -193 208 -261 q 243 -92 208 -136 q 340 -21 278 -49 q 134 67 204 -8 q 64 261 64 142 q 68 322 64 292 l 158 963 l 382 963 l 293 326 q 289 271 289 296 q 318 176 289 207 q 410 146 347 146 q 528 192 486 146 q 585 331 571 238 l 674 963 l 899 963 l 808 318 z "},"Ů":{"ha":890,"x_min":64,"x_max":899,"o":"m 808 318 q 678 71 786 165 q 393 -24 571 -24 q 147 53 231 -24 q 64 261 64 129 q 68 322 64 292 l 158 963 l 382 963 l 293 326 q 289 271 289 296 q 318 176 289 207 q 410 146 347 146 q 528 192 486 146 q 585 331 571 238 l 674 963 l 899 963 l 808 318 m 582 1379 q 706 1334 661 1379 q 751 1219 751 1289 q 724 1119 751 1167 q 649 1044 697 1072 q 539 1015 600 1015 q 415 1060 461 1015 q 369 1174 369 1106 q 397 1275 369 1228 q 472 1351 424 1322 q 582 1379 519 1379 m 572 1268 q 522 1249 542 1268 q 496 1192 501 1229 q 507 1144 492 1161 q 549 1128 522 1128 q 598 1147 578 1128 q 624 1203 618 1165 q 625 1217 625 1208 q 611 1255 625 1242 q 572 1268 597 1268 z "},"Ũ":{"ha":890,"x_min":64,"x_max":899,"o":"m 808 318 q 678 71 786 165 q 393 -24 571 -24 q 147 53 231 -24 q 64 261 64 129 q 68 322 64 292 l 158 963 l 382 963 l 293 326 q 289 271 289 296 q 318 176 289 207 q 410 146 347 146 q 528 192 486 146 q 585 331 571 238 l 674 963 l 899 963 l 808 318 m 629 1057 q 581 1067 603 1057 q 533 1094 560 1076 q 479 1119 499 1119 q 436 1104 454 1119 q 394 1056 418 1089 l 293 1114 q 381 1230 331 1185 q 489 1275 432 1275 q 542 1265 519 1275 q 588 1236 564 1254 q 613 1219 600 1226 q 638 1213 625 1213 q 680 1227 661 1213 q 721 1275 699 1242 l 822 1218 q 734 1101 785 1146 q 629 1057 683 1057 z "},"V":{"ha":779,"x_min":65,"x_max":882,"o":"m 206 0 l 65 963 l 299 963 l 368 178 l 649 963 l 882 963 l 483 0 l 206 0 z "},"W":{"ha":1163,"x_min":99,"x_max":1231,"o":"m 647 0 l 632 735 l 403 0 l 119 0 l 99 963 l 319 963 l 303 172 l 546 963 l 782 963 l 794 172 l 1015 963 l 1231 963 l 938 0 l 647 0 z "},"Ẃ":{"ha":1163,"x_min":99,"x_max":1231,"o":"m 647 0 l 632 735 l 403 0 l 119 0 l 99 963 l 319 963 l 303 172 l 546 963 l 782 963 l 794 172 l 1015 963 l 1231 963 l 938 0 l 647 0 m 557 1038 l 503 1149 l 813 1329 l 892 1164 l 557 1038 z "},"Ŵ":{"ha":1163,"x_min":99,"x_max":1231,"o":"m 647 0 l 632 735 l 403 0 l 119 0 l 99 963 l 319 963 l 303 172 l 546 963 l 782 963 l 794 172 l 1015 963 l 1231 963 l 938 0 l 647 0 m 510 1049 l 439 1139 l 657 1318 l 789 1318 l 957 1139 l 872 1049 l 707 1165 l 510 1049 z "},"Ẅ":{"ha":1163,"x_min":99,"x_max":1231,"o":"m 647 0 l 632 735 l 403 0 l 119 0 l 99 963 l 319 963 l 303 172 l 546 963 l 782 963 l 794 172 l 1015 963 l 1231 963 l 938 0 l 647 0 m 550 1285 q 621 1258 593 1285 q 649 1189 649 1231 q 647 1171 649 1176 q 607 1096 642 1126 q 526 1065 572 1065 q 455 1094 483 1065 q 426 1165 426 1122 q 463 1249 426 1214 q 550 1285 500 1285 m 867 1285 q 938 1258 910 1285 q 965 1189 965 1231 q 964 1171 965 1176 q 924 1096 958 1126 q 843 1065 889 1065 q 772 1094 800 1065 q 743 1165 743 1122 q 780 1249 743 1214 q 867 1285 817 1285 z "},"Ẁ":{"ha":1163,"x_min":99,"x_max":1231,"o":"m 647 0 l 632 735 l 403 0 l 119 0 l 99 963 l 319 963 l 303 172 l 546 963 l 782 963 l 794 172 l 1015 963 l 1231 963 l 938 0 l 647 0 m 832 1039 l 508 1165 l 599 1331 l 894 1150 l 832 1039 z "},"X":{"ha":793,"x_min":-58,"x_max":860,"o":"m 749 0 l 507 0 l 396 375 l 183 0 l -58 0 l 278 511 l 279 513 l 99 963 l 338 963 l 429 646 l 619 963 l 860 963 l 549 519 l 547 518 l 749 0 z "},"Y":{"ha":811,"x_min":74,"x_max":906,"o":"m 467 0 l 242 0 l 293 360 l 74 963 l 313 963 l 429 539 l 664 963 l 906 963 l 517 361 l 467 0 z "},"Ý":{"ha":811,"x_min":74,"x_max":906,"o":"m 467 0 l 242 0 l 293 360 l 74 963 l 313 963 l 429 539 l 664 963 l 906 963 l 517 361 l 467 0 m 381 1038 l 326 1149 l 636 1329 l 715 1164 l 381 1038 z "},"Ŷ":{"ha":811,"x_min":74,"x_max":906,"o":"m 467 0 l 242 0 l 293 360 l 74 963 l 313 963 l 429 539 l 664 963 l 906 963 l 517 361 l 467 0 m 333 1049 l 263 1139 l 481 1318 l 613 1318 l 781 1139 l 696 1049 l 531 1165 l 333 1049 z "},"Ÿ":{"ha":811,"x_min":74,"x_max":906,"o":"m 467 0 l 242 0 l 293 360 l 74 963 l 313 963 l 429 539 l 664 963 l 906 963 l 517 361 l 467 0 m 374 1285 q 444 1258 417 1285 q 472 1189 472 1231 q 471 1171 472 1176 q 431 1096 465 1126 q 350 1065 396 1065 q 278 1094 307 1065 q 250 1165 250 1122 q 287 1249 250 1214 q 374 1285 324 1285 m 690 1285 q 761 1258 733 1285 q 789 1189 789 1231 q 788 1171 789 1176 q 747 1096 782 1126 q 667 1065 713 1065 q 595 1094 624 1065 q 567 1165 567 1122 q 603 1249 567 1214 q 690 1285 640 1285 z "},"Ỳ":{"ha":811,"x_min":74,"x_max":906,"o":"m 467 0 l 242 0 l 293 360 l 74 963 l 313 963 l 429 539 l 664 963 l 906 963 l 517 361 l 467 0 m 656 1039 l 332 1165 l 422 1331 l 718 1150 l 656 1039 z "},"Z":{"ha":742,"x_min":-28,"x_max":782,"o":"m 263 181 l 681 182 l 632 0 l -28 0 l -6 171 l 500 786 l 125 786 l 150 963 l 782 963 l 758 790 l 263 181 z "},"Ź":{"ha":742,"x_min":-28,"x_max":782,"o":"m 263 181 l 681 182 l 632 0 l -28 0 l -6 171 l 500 786 l 125 786 l 150 963 l 782 963 l 758 790 l 263 181 m 350 1038 l 296 1149 l 606 1329 l 685 1164 l 350 1038 z "},"Ž":{"ha":742,"x_min":-28,"x_max":782,"o":"m 263 181 l 681 182 l 632 0 l -28 0 l -6 171 l 500 786 l 125 786 l 150 963 l 782 963 l 758 790 l 263 181 m 532 1042 l 400 1042 l 231 1221 l 318 1310 l 482 1193 l 681 1310 l 749 1221 l 532 1042 z "},"Ż":{"ha":742,"x_min":-28,"x_max":782,"o":"m 263 181 l 681 182 l 632 0 l -28 0 l -6 171 l 500 786 l 125 786 l 150 963 l 782 963 l 758 790 l 263 181 m 506 1301 q 590 1269 558 1301 q 621 1188 621 1238 q 579 1091 621 1131 q 478 1051 538 1051 q 394 1083 425 1051 q 363 1161 363 1114 q 404 1260 363 1219 q 506 1301 446 1301 z "},"a":{"ha":794,"x_min":35,"x_max":761,"o":"m 458 761 q 761 683 619 761 l 690 211 q 688 181 688 189 q 697 143 688 156 q 726 122 707 131 l 665 -19 q 555 16 600 -14 q 494 103 510 46 q 276 -24 406 -24 q 97 55 158 -24 q 35 269 35 133 q 78 499 35 386 q 217 686 121 611 q 458 761 313 761 m 453 606 q 341 554 385 606 q 278 426 297 503 q 258 271 258 350 q 281 167 258 197 q 343 138 303 138 q 482 240 415 138 l 535 592 q 453 606 494 606 z "},"á":{"ha":794,"x_min":35,"x_max":761,"o":"m 458 761 q 761 683 619 761 l 690 211 q 688 181 688 189 q 697 143 688 156 q 726 122 707 131 l 665 -19 q 555 16 600 -14 q 494 103 510 46 q 276 -24 406 -24 q 97 55 158 -24 q 35 269 35 133 q 78 499 35 386 q 217 686 121 611 q 458 761 313 761 m 453 606 q 341 554 385 606 q 278 426 297 503 q 258 271 258 350 q 281 167 258 197 q 343 138 303 138 q 482 240 415 138 l 535 592 q 453 606 494 606 m 347 864 l 304 976 l 625 1160 l 688 996 l 347 864 z "},"ă":{"ha":794,"x_min":35,"x_max":761,"o":"m 458 761 q 761 683 619 761 l 690 211 q 688 181 688 189 q 697 143 688 156 q 726 122 707 131 l 665 -19 q 555 16 600 -14 q 494 103 510 46 q 276 -24 406 -24 q 97 55 158 -24 q 35 269 35 133 q 78 499 35 386 q 217 686 121 611 q 458 761 313 761 m 453 606 q 341 554 385 606 q 278 426 297 503 q 258 271 258 350 q 281 167 258 197 q 343 138 303 138 q 482 240 415 138 l 535 592 q 453 606 494 606 m 496 878 q 339 947 392 878 q 290 1119 286 1015 l 411 1138 q 510 1031 422 1031 q 591 1060 557 1031 q 644 1142 625 1089 l 761 1115 q 669 944 739 1011 q 496 878 599 878 z "},"â":{"ha":794,"x_min":35,"x_max":763,"o":"m 458 761 q 761 683 619 761 l 690 211 q 688 181 688 189 q 697 143 688 156 q 726 122 707 131 l 665 -19 q 555 16 600 -14 q 494 103 510 46 q 276 -24 406 -24 q 97 55 158 -24 q 35 269 35 133 q 78 499 35 386 q 217 686 121 611 q 458 761 313 761 m 453 606 q 341 554 385 606 q 278 426 297 503 q 258 271 258 350 q 281 167 258 197 q 343 138 303 138 q 482 240 415 138 l 535 592 q 453 606 494 606 m 464 1142 l 596 1142 l 763 951 l 675 861 l 511 989 l 314 861 l 244 951 l 464 1142 z "},"ä":{"ha":794,"x_min":35,"x_max":772,"o":"m 458 761 q 761 683 619 761 l 690 211 q 688 181 688 189 q 697 143 688 156 q 726 122 707 131 l 665 -19 q 555 16 600 -14 q 494 103 510 46 q 276 -24 406 -24 q 97 55 158 -24 q 35 269 35 133 q 78 499 35 386 q 217 686 121 611 q 458 761 313 761 m 453 606 q 341 554 385 606 q 278 426 297 503 q 258 271 258 350 q 281 167 258 197 q 343 138 303 138 q 482 240 415 138 l 535 592 q 453 606 494 606 m 356 1110 q 427 1082 399 1110 q 456 1013 456 1054 q 419 926 456 963 q 332 890 382 890 q 261 918 289 890 q 233 988 233 946 q 270 1074 233 1038 q 356 1110 307 1110 m 672 1110 q 744 1083 717 1110 q 772 1014 772 1056 q 736 926 772 963 q 649 890 700 890 q 578 918 606 890 q 550 988 550 946 q 587 1074 550 1038 q 672 1110 624 1110 z "},"à":{"ha":794,"x_min":35,"x_max":761,"o":"m 458 761 q 761 683 619 761 l 690 211 q 688 181 688 189 q 697 143 688 156 q 726 122 707 131 l 665 -19 q 555 16 600 -14 q 494 103 510 46 q 276 -24 406 -24 q 97 55 158 -24 q 35 269 35 133 q 78 499 35 386 q 217 686 121 611 q 458 761 313 761 m 453 606 q 341 554 385 606 q 278 426 297 503 q 258 271 258 350 q 281 167 258 197 q 343 138 303 138 q 482 240 415 138 l 535 592 q 453 606 494 606 m 639 864 l 333 996 l 440 1160 l 711 975 l 639 864 z "},"ā":{"ha":794,"x_min":35,"x_max":761,"o":"m 458 761 q 761 683 619 761 l 690 211 q 688 181 688 189 q 697 143 688 156 q 726 122 707 131 l 665 -19 q 555 16 600 -14 q 494 103 510 46 q 276 -24 406 -24 q 97 55 158 -24 q 35 269 35 133 q 78 499 35 386 q 217 686 121 611 q 458 761 313 761 m 453 606 q 341 554 385 606 q 278 426 297 503 q 258 271 258 350 q 281 167 258 197 q 343 138 303 138 q 482 240 415 138 l 535 592 q 453 606 494 606 m 310 1063 l 728 1063 l 707 910 l 289 910 l 310 1063 z "},"ą":{"ha":794,"x_min":35,"x_max":761,"o":"m 688 181 q 697 143 688 156 q 726 122 707 131 l 665 -19 q 479 -178 479 -86 q 540 -224 479 -224 q 628 -212 576 -224 l 597 -350 q 503 -360 557 -360 q 369 -321 419 -360 q 318 -215 318 -282 q 546 22 318 -62 q 494 103 508 51 q 276 -24 406 -24 q 97 55 158 -24 q 35 269 35 133 q 78 499 35 386 q 217 686 121 611 q 458 761 313 761 q 761 683 619 761 l 690 211 q 688 181 688 189 m 535 592 q 453 606 494 606 q 341 554 385 606 q 278 426 297 503 q 258 271 258 350 q 281 167 258 197 q 343 138 303 138 q 482 240 415 138 l 535 592 z "},"å":{"ha":794,"x_min":35,"x_max":761,"o":"m 458 761 q 761 683 619 761 l 690 211 q 688 181 688 189 q 697 143 688 156 q 726 122 707 131 l 665 -19 q 555 16 600 -14 q 494 103 510 46 q 276 -24 406 -24 q 97 55 158 -24 q 35 269 35 133 q 78 499 35 386 q 217 686 121 611 q 458 761 313 761 m 453 606 q 341 554 385 606 q 278 426 297 503 q 258 271 258 350 q 281 167 258 197 q 343 138 303 138 q 482 240 415 138 l 535 592 q 453 606 494 606 m 536 1204 q 659 1159 614 1204 q 704 1044 704 1114 q 677 944 704 992 q 601 869 650 897 q 492 840 553 840 q 369 885 414 840 q 324 1000 324 931 q 351 1101 324 1054 q 426 1176 378 1149 q 536 1204 475 1204 m 526 1093 q 476 1074 496 1093 q 450 1017 456 1054 q 449 1003 449 1011 q 463 965 449 978 q 503 953 478 953 q 552 972 532 953 q 578 1028 572 992 q 567 1076 582 1058 q 526 1093 553 1093 z "},"ã":{"ha":794,"x_min":35,"x_max":775,"o":"m 458 761 q 761 683 619 761 l 690 211 q 688 181 688 189 q 697 143 688 156 q 726 122 707 131 l 665 -19 q 555 16 600 -14 q 494 103 510 46 q 276 -24 406 -24 q 97 55 158 -24 q 35 269 35 133 q 78 499 35 386 q 217 686 121 611 q 458 761 313 761 m 453 606 q 341 554 385 606 q 278 426 297 503 q 258 271 258 350 q 281 167 258 197 q 343 138 303 138 q 482 240 415 138 l 535 592 q 453 606 494 606 m 582 882 q 535 891 554 882 q 485 919 515 900 q 455 938 467 932 q 431 944 443 944 q 388 929 406 944 q 346 881 369 914 l 246 939 q 333 1056 283 1011 q 440 1100 383 1100 q 492 1090 471 1100 q 540 1061 514 1079 q 567 1043 556 1049 q 590 1038 578 1038 q 631 1052 613 1038 q 674 1100 650 1067 l 775 1043 q 686 926 736 969 q 582 882 636 882 z "},"æ":{"ha":1178,"x_min":18,"x_max":1151,"o":"m 415 761 q 547 736 496 761 q 629 663 597 711 q 738 734 671 707 q 879 761 804 761 q 1080 704 1008 761 q 1151 560 1151 647 q 1019 354 1151 418 q 676 269 888 290 q 715 167 681 196 q 810 138 749 138 q 901 154 856 138 q 997 206 946 171 l 1075 75 q 782 -24 939 -24 q 620 8 688 -24 q 515 99 553 39 q 390 4 457 32 q 242 -24 322 -24 q 78 31 139 -24 q 18 176 18 86 q 106 369 18 292 q 401 447 194 447 l 483 447 q 508 521 494 490 q 465 579 503 558 q 367 600 426 600 q 178 564 288 600 l 143 710 q 415 761 282 761 m 858 615 q 745 555 788 615 q 686 403 703 494 q 874 454 815 414 q 933 547 933 494 q 916 596 933 576 q 858 615 899 615 m 407 321 q 289 292 331 321 q 247 204 247 264 q 321 133 247 133 q 395 155 360 133 q 469 219 431 176 q 465 321 463 257 l 407 321 z "},"ǽ":{"ha":1178,"x_min":18,"x_max":1151,"o":"m 415 761 q 547 736 496 761 q 629 663 597 711 q 738 734 671 707 q 879 761 804 761 q 1080 704 1008 761 q 1151 560 1151 647 q 1019 354 1151 418 q 676 269 888 290 q 715 167 681 196 q 810 138 749 138 q 901 154 856 138 q 997 206 946 171 l 1075 75 q 782 -24 939 -24 q 620 8 688 -24 q 515 99 553 39 q 390 4 457 32 q 242 -24 322 -24 q 78 31 139 -24 q 18 176 18 86 q 106 369 18 292 q 401 447 194 447 l 483 447 q 508 521 494 490 q 465 579 503 558 q 367 600 426 600 q 178 564 288 600 l 143 710 q 415 761 282 761 m 858 615 q 745 555 788 615 q 686 403 703 494 q 874 454 815 414 q 933 547 933 494 q 916 596 933 576 q 858 615 899 615 m 407 321 q 289 292 331 321 q 247 204 247 264 q 321 133 247 133 q 395 155 360 133 q 469 219 431 176 q 465 321 463 257 l 407 321 m 515 864 l 472 976 l 793 1160 l 856 996 l 515 864 z "},"b":{"ha":807,"x_min":39,"x_max":771,"o":"m 343 675 q 438 738 383 715 q 544 761 492 761 q 713 687 656 761 q 771 474 771 613 q 732 240 771 351 q 597 52 693 128 q 340 -24 500 -24 q 39 38 196 -24 l 178 1031 l 396 1054 l 343 675 m 461 600 q 321 515 388 600 l 271 154 q 364 136 317 136 q 469 188 428 136 q 531 316 511 239 q 550 469 550 393 q 526 571 550 542 q 461 600 503 600 z "},"c":{"ha":651,"x_min":36,"x_max":685,"o":"m 449 761 q 685 667 593 761 l 579 542 q 518 581 549 569 q 450 593 488 593 q 306 499 349 593 q 263 286 263 406 q 292 181 263 213 q 378 150 322 150 q 448 163 415 150 q 525 201 481 175 l 604 61 q 351 -24 489 -24 q 119 62 203 -24 q 36 294 36 147 q 80 508 36 400 q 217 688 124 615 q 449 761 310 761 z "},"ć":{"ha":651,"x_min":36,"x_max":685,"o":"m 449 761 q 685 667 593 761 l 579 542 q 518 581 549 569 q 450 593 488 593 q 306 499 349 593 q 263 286 263 406 q 292 181 263 213 q 378 150 322 150 q 448 163 415 150 q 525 201 481 175 l 604 61 q 351 -24 489 -24 q 119 62 203 -24 q 36 294 36 147 q 80 508 36 400 q 217 688 124 615 q 449 761 310 761 m 321 864 l 278 976 l 599 1160 l 661 996 l 321 864 z "},"č":{"ha":651,"x_min":36,"x_max":750,"o":"m 449 761 q 685 667 593 761 l 579 542 q 518 581 549 569 q 450 593 488 593 q 306 499 349 593 q 263 286 263 406 q 292 181 263 213 q 378 150 322 150 q 448 163 415 150 q 525 201 481 175 l 604 61 q 351 -24 489 -24 q 119 62 203 -24 q 36 294 36 147 q 80 508 36 400 q 217 688 124 615 q 449 761 310 761 m 532 849 l 400 849 l 232 1039 l 315 1129 l 479 1003 l 681 1129 l 750 1039 l 532 849 z "},"ç":{"ha":651,"x_min":36,"x_max":685,"o":"m 604 61 q 385 -22 500 -14 l 378 -67 q 472 -106 440 -74 q 504 -189 504 -139 q 482 -271 504 -231 q 409 -337 460 -311 q 281 -364 358 -364 q 131 -319 193 -364 l 193 -221 q 274 -244 229 -244 q 328 -233 307 -244 q 349 -197 349 -221 q 322 -165 349 -175 q 229 -156 294 -156 l 264 -15 q 96 90 156 8 q 36 294 36 171 q 80 508 36 400 q 217 688 124 615 q 449 761 310 761 q 685 667 593 761 l 579 542 q 518 581 549 569 q 450 593 488 593 q 306 499 349 593 q 263 286 263 406 q 292 181 263 213 q 378 150 322 150 q 448 163 415 150 q 525 201 481 175 l 604 61 z "},"ĉ":{"ha":651,"x_min":36,"x_max":738,"o":"m 449 761 q 685 667 593 761 l 579 542 q 518 581 549 569 q 450 593 488 593 q 306 499 349 593 q 263 286 263 406 q 292 181 263 213 q 378 150 322 150 q 448 163 415 150 q 525 201 481 175 l 604 61 q 351 -24 489 -24 q 119 62 203 -24 q 36 294 36 147 q 80 508 36 400 q 217 688 124 615 q 449 761 310 761 m 439 1142 l 571 1142 l 738 951 l 650 861 l 486 989 l 289 861 l 219 951 l 439 1142 z "},"ċ":{"ha":651,"x_min":36,"x_max":685,"o":"m 449 761 q 685 667 593 761 l 579 542 q 518 581 549 569 q 450 593 488 593 q 306 499 349 593 q 263 286 263 406 q 292 181 263 213 q 378 150 322 150 q 448 163 415 150 q 525 201 481 175 l 604 61 q 351 -24 489 -24 q 119 62 203 -24 q 36 294 36 147 q 80 508 36 400 q 217 688 124 615 q 449 761 310 761 m 499 1126 q 583 1095 551 1126 q 614 1015 614 1064 q 573 917 614 957 q 471 876 532 876 q 388 908 419 876 q 357 986 357 939 q 398 1085 357 1044 q 499 1126 439 1126 z "},"d":{"ha":821,"x_min":43,"x_max":829,"o":"m 685 0 l 493 0 l 494 106 q 401 12 456 47 q 275 -24 346 -24 q 101 54 160 -24 q 43 274 43 132 q 80 498 43 386 q 197 685 117 610 q 403 761 278 761 q 493 742 451 761 q 564 690 535 722 l 615 1054 l 829 1031 l 685 0 m 443 601 q 340 548 379 601 q 283 419 300 494 q 267 272 267 343 q 288 168 267 199 q 349 138 310 138 q 429 174 390 138 q 506 274 468 211 l 544 547 q 500 588 524 575 q 443 601 476 601 z "},"ð":{"ha":790,"x_min":32,"x_max":753,"o":"m 564 928 q 708 749 663 850 q 753 521 753 649 q 742 379 753 446 q 672 174 725 265 q 534 29 619 82 q 339 -24 449 -24 q 181 11 250 -24 q 72 112 111 46 q 32 269 32 178 q 69 456 32 364 q 181 606 106 547 q 367 665 257 665 q 543 600 474 665 q 507 717 532 667 q 433 811 482 767 l 346 733 l 218 797 l 307 879 q 189 908 242 900 l 247 1053 q 438 999 351 1035 l 554 1108 l 653 1010 l 564 928 m 353 136 q 521 361 486 136 q 532 454 529 419 q 410 513 489 513 q 288 436 324 513 q 253 264 253 360 q 353 136 253 136 z "},"ď":{"ha":985,"x_min":40,"x_max":1086,"o":"m 683 0 l 492 0 l 493 106 q 399 12 454 47 q 274 -24 344 -24 q 100 54 158 -24 q 42 274 42 132 q 78 498 42 386 q 196 685 115 610 q 401 761 276 761 q 492 742 450 761 q 563 690 533 722 l 614 1054 l 828 1031 l 683 0 m 442 601 q 338 548 378 601 q 282 419 299 494 q 265 272 265 343 q 287 168 265 199 q 347 138 308 138 q 428 174 389 138 q 504 274 467 211 l 543 547 q 499 588 522 575 q 442 601 475 601 m 981 732 l 869 743 l 926 1050 l 1086 1031 l 981 732 z "},"đ":{"ha":833,"x_min":43,"x_max":903,"o":"m 801 828 l 685 0 l 493 0 l 494 106 q 401 12 456 47 q 275 -24 346 -24 q 101 54 160 -24 q 43 274 43 132 q 80 498 43 386 q 197 685 117 610 q 403 761 278 761 q 493 742 451 761 q 564 690 535 722 l 583 828 l 406 828 l 407 956 l 601 956 l 615 1054 l 829 1031 l 818 956 l 903 956 l 885 828 l 801 828 m 544 547 q 500 588 524 575 q 443 601 476 601 q 340 548 379 601 q 283 419 300 494 q 267 272 267 343 q 288 168 267 199 q 349 138 310 138 q 429 174 390 138 q 506 274 468 211 l 544 547 z "},"e":{"ha":743,"x_min":38,"x_max":728,"o":"m 728 560 q 597 354 728 419 q 254 268 465 289 q 386 138 261 138 q 477 154 432 138 q 574 206 522 171 l 651 75 q 358 -24 515 -24 q 119 60 201 -24 q 38 289 38 144 q 80 508 38 400 q 217 689 122 617 q 456 761 311 761 q 656 704 585 761 q 728 560 728 647 m 264 401 q 451 452 392 411 q 510 547 510 493 q 492 596 510 576 q 435 615 475 615 q 322 554 364 615 q 264 401 281 493 z "},"é":{"ha":743,"x_min":38,"x_max":728,"o":"m 728 560 q 597 354 728 419 q 254 268 465 289 q 386 138 261 138 q 477 154 432 138 q 574 206 522 171 l 651 75 q 358 -24 515 -24 q 119 60 201 -24 q 38 289 38 144 q 80 508 38 400 q 217 689 122 617 q 456 761 311 761 q 656 704 585 761 q 728 560 728 647 m 264 401 q 451 452 392 411 q 510 547 510 493 q 492 596 510 576 q 435 615 475 615 q 322 554 364 615 q 264 401 281 493 m 311 864 l 268 976 l 589 1160 l 651 996 l 311 864 z "},"ĕ":{"ha":743,"x_min":38,"x_max":728,"o":"m 728 560 q 597 354 728 419 q 254 268 465 289 q 386 138 261 138 q 477 154 432 138 q 574 206 522 171 l 651 75 q 358 -24 515 -24 q 119 60 201 -24 q 38 289 38 144 q 80 508 38 400 q 217 689 122 617 q 456 761 311 761 q 656 704 585 761 q 728 560 728 647 m 264 401 q 451 452 392 411 q 510 547 510 493 q 492 596 510 576 q 435 615 475 615 q 322 554 364 615 q 264 401 281 493 m 461 878 q 304 947 357 878 q 256 1119 251 1015 l 376 1138 q 475 1031 388 1031 q 556 1060 522 1031 q 610 1142 590 1089 l 726 1115 q 634 944 704 1011 q 461 878 564 878 z "},"ě":{"ha":743,"x_min":38,"x_max":739,"o":"m 728 560 q 597 354 728 419 q 254 268 465 289 q 386 138 261 138 q 477 154 432 138 q 574 206 522 171 l 651 75 q 358 -24 515 -24 q 119 60 201 -24 q 38 289 38 144 q 80 508 38 400 q 217 689 122 617 q 456 761 311 761 q 656 704 585 761 q 728 560 728 647 m 264 401 q 451 452 392 411 q 510 547 510 493 q 492 596 510 576 q 435 615 475 615 q 322 554 364 615 q 264 401 281 493 m 521 849 l 389 849 l 221 1039 l 304 1129 l 468 1003 l 669 1129 l 739 1039 l 521 849 z "},"ê":{"ha":743,"x_min":38,"x_max":728,"o":"m 728 560 q 597 354 728 419 q 254 268 465 289 q 386 138 261 138 q 477 154 432 138 q 574 206 522 171 l 651 75 q 358 -24 515 -24 q 119 60 201 -24 q 38 289 38 144 q 80 508 38 400 q 217 689 122 617 q 456 761 311 761 q 656 704 585 761 q 728 560 728 647 m 264 401 q 451 452 392 411 q 510 547 510 493 q 492 596 510 576 q 435 615 475 615 q 322 554 364 615 q 264 401 281 493 m 428 1142 l 560 1142 l 726 951 l 639 861 l 475 989 l 278 861 l 208 951 l 428 1142 z "},"ë":{"ha":743,"x_min":38,"x_max":738,"o":"m 728 560 q 597 354 728 419 q 254 268 465 289 q 386 138 261 138 q 477 154 432 138 q 574 206 522 171 l 651 75 q 358 -24 515 -24 q 119 60 201 -24 q 38 289 38 144 q 80 508 38 400 q 217 689 122 617 q 456 761 311 761 q 656 704 585 761 q 728 560 728 647 m 264 401 q 451 452 392 411 q 510 547 510 493 q 492 596 510 576 q 435 615 475 615 q 322 554 364 615 q 264 401 281 493 m 321 1110 q 392 1082 364 1110 q 421 1013 421 1054 q 384 926 421 963 q 297 890 347 890 q 226 918 254 890 q 199 988 199 946 q 235 1074 199 1038 q 321 1110 272 1110 m 638 1110 q 710 1083 682 1110 q 738 1014 738 1056 q 701 926 738 963 q 614 890 665 890 q 543 918 571 890 q 515 988 515 946 q 552 1074 515 1038 q 638 1110 589 1110 z "},"ė":{"ha":743,"x_min":38,"x_max":728,"o":"m 728 560 q 597 354 728 419 q 254 268 465 289 q 386 138 261 138 q 477 154 432 138 q 574 206 522 171 l 651 75 q 358 -24 515 -24 q 119 60 201 -24 q 38 289 38 144 q 80 508 38 400 q 217 689 122 617 q 456 761 311 761 q 656 704 585 761 q 728 560 728 647 m 264 401 q 451 452 392 411 q 510 547 510 493 q 492 596 510 576 q 435 615 475 615 q 322 554 364 615 q 264 401 281 493 m 488 1126 q 572 1095 540 1126 q 603 1015 603 1064 q 562 917 603 957 q 460 876 521 876 q 377 908 408 876 q 346 986 346 939 q 387 1085 346 1044 q 488 1126 428 1126 z "},"è":{"ha":743,"x_min":38,"x_max":728,"o":"m 728 560 q 597 354 728 419 q 254 268 465 289 q 386 138 261 138 q 477 154 432 138 q 574 206 522 171 l 651 75 q 358 -24 515 -24 q 119 60 201 -24 q 38 289 38 144 q 80 508 38 400 q 217 689 122 617 q 456 761 311 761 q 656 704 585 761 q 728 560 728 647 m 264 401 q 451 452 392 411 q 510 547 510 493 q 492 596 510 576 q 435 615 475 615 q 322 554 364 615 q 264 401 281 493 m 603 864 l 297 996 l 404 1160 l 675 975 l 603 864 z "},"ē":{"ha":743,"x_min":38,"x_max":728,"o":"m 728 560 q 597 354 728 419 q 254 268 465 289 q 386 138 261 138 q 477 154 432 138 q 574 206 522 171 l 651 75 q 358 -24 515 -24 q 119 60 201 -24 q 38 289 38 144 q 80 508 38 400 q 217 689 122 617 q 456 761 311 761 q 656 704 585 761 q 728 560 728 647 m 264 401 q 451 452 392 411 q 510 547 510 493 q 492 596 510 576 q 435 615 475 615 q 322 554 364 615 q 264 401 281 493 m 274 1063 l 692 1063 l 671 910 l 253 910 l 274 1063 z "},"ę":{"ha":743,"x_min":38,"x_max":728,"o":"m 728 560 q 597 354 728 419 q 254 268 465 289 q 386 138 261 138 q 477 154 432 138 q 574 206 522 171 l 651 75 q 485 -7 576 19 q 354 -139 354 -65 q 421 -193 354 -193 q 508 -182 457 -193 l 481 -318 q 383 -329 433 -329 q 245 -289 299 -329 q 192 -181 192 -249 q 300 -21 192 -81 q 104 76 171 -6 q 38 289 38 158 q 80 508 38 400 q 217 689 122 617 q 456 761 311 761 q 656 704 585 761 q 728 560 728 647 m 264 401 q 451 452 392 411 q 510 547 510 493 q 492 596 510 576 q 435 615 475 615 q 322 554 364 615 q 264 401 281 493 z "},"f":{"ha":481,"x_min":-111,"x_max":681,"o":"m 493 892 q 419 868 444 892 q 386 792 393 844 l 379 738 l 550 738 l 506 585 l 357 585 l 286 81 q 225 -109 271 -35 q 111 -228 179 -183 q -57 -308 43 -272 l -111 -150 q 15 -71 -26 -118 q 69 72 57 -24 l 142 585 l 32 585 l 53 738 l 163 738 l 172 806 q 267 985 188 917 q 475 1054 346 1054 q 681 993 589 1054 l 604 861 q 493 892 558 892 z "},"g":{"ha":799,"x_min":10,"x_max":765,"o":"m 463 761 q 765 683 625 761 l 675 57 q 555 -224 647 -137 q 286 -310 463 -310 q 144 -287 218 -310 q 10 -228 69 -265 l 82 -85 q 282 -143 188 -143 q 401 -108 354 -143 q 461 25 447 -74 l 471 96 q 383 26 432 51 q 278 0 333 0 q 98 78 161 0 q 35 286 35 156 q 78 508 35 399 q 219 689 122 617 q 463 761 315 761 m 458 606 q 344 557 389 606 q 278 436 299 508 q 258 292 258 364 q 344 163 258 163 q 490 265 417 163 l 540 592 q 458 606 499 606 z "},"ğ":{"ha":799,"x_min":10,"x_max":765,"o":"m 463 761 q 765 683 625 761 l 675 57 q 555 -224 647 -137 q 286 -310 463 -310 q 144 -287 218 -310 q 10 -228 69 -265 l 82 -85 q 282 -143 188 -143 q 401 -108 354 -143 q 461 25 447 -74 l 471 96 q 383 26 432 51 q 278 0 333 0 q 98 78 161 0 q 35 286 35 156 q 78 508 35 399 q 219 689 122 617 q 463 761 315 761 m 458 606 q 344 557 389 606 q 278 436 299 508 q 258 292 258 364 q 344 163 258 163 q 490 265 417 163 l 540 592 q 458 606 499 606 m 482 878 q 325 947 378 878 q 276 1119 272 1015 l 397 1138 q 496 1031 408 1031 q 577 1060 543 1031 q 631 1142 611 1089 l 747 1115 q 655 944 725 1011 q 482 878 585 878 z "},"ĝ":{"ha":799,"x_min":10,"x_max":765,"o":"m 463 761 q 765 683 625 761 l 675 57 q 555 -224 647 -137 q 286 -310 463 -310 q 144 -287 218 -310 q 10 -228 69 -265 l 82 -85 q 282 -143 188 -143 q 401 -108 354 -143 q 461 25 447 -74 l 471 96 q 383 26 432 51 q 278 0 333 0 q 98 78 161 0 q 35 286 35 156 q 78 508 35 399 q 219 689 122 617 q 463 761 315 761 m 458 606 q 344 557 389 606 q 278 436 299 508 q 258 292 258 364 q 344 163 258 163 q 490 265 417 163 l 540 592 q 458 606 499 606 m 450 1142 l 582 1142 l 749 951 l 661 861 l 497 989 l 300 861 l 231 951 l 450 1142 z "},"ģ":{"ha":799,"x_min":10,"x_max":765,"o":"m 463 761 q 765 683 625 761 l 675 57 q 555 -224 647 -137 q 286 -310 463 -310 q 144 -287 218 -310 q 10 -228 69 -265 l 82 -85 q 282 -143 188 -143 q 401 -108 354 -143 q 461 25 447 -74 l 471 96 q 383 26 432 51 q 278 0 333 0 q 98 78 161 0 q 35 286 35 156 q 78 508 35 399 q 219 689 122 617 q 463 761 315 761 m 458 606 q 344 557 389 606 q 278 436 299 508 q 258 292 258 364 q 344 163 258 163 q 490 265 417 163 l 540 592 q 458 606 499 606 m 475 832 q 406 859 432 832 q 379 928 379 886 q 391 988 379 960 q 432 1061 403 1017 l 514 1189 l 621 1189 l 558 1026 q 596 951 596 996 q 560 865 596 899 q 475 832 525 832 z "},"ġ":{"ha":799,"x_min":10,"x_max":765,"o":"m 463 761 q 765 683 625 761 l 675 57 q 555 -224 647 -137 q 286 -310 463 -310 q 144 -287 218 -310 q 10 -228 69 -265 l 82 -85 q 282 -143 188 -143 q 401 -108 354 -143 q 461 25 447 -74 l 471 96 q 383 26 432 51 q 278 0 333 0 q 98 78 161 0 q 35 286 35 156 q 78 508 35 399 q 219 689 122 617 q 463 761 315 761 m 458 606 q 344 557 389 606 q 278 436 299 508 q 258 292 258 364 q 344 163 258 163 q 490 265 417 163 l 540 592 q 458 606 499 606 m 510 1126 q 594 1095 563 1126 q 625 1015 625 1064 q 584 917 625 957 q 482 876 543 876 q 399 908 431 876 q 368 986 368 939 q 409 1085 368 1044 q 510 1126 450 1126 z "},"h":{"ha":789,"x_min":33,"x_max":738,"o":"m 567 761 q 692 714 647 761 q 738 583 738 667 q 735 536 738 553 l 660 0 l 443 0 l 515 488 q 518 525 518 501 q 505 569 518 557 q 467 582 492 582 q 389 535 431 582 q 306 406 347 488 l 249 0 l 33 0 l 178 1031 l 396 1053 l 332 611 q 437 720 372 679 q 567 761 501 761 z "},"ħ":{"ha":801,"x_min":46,"x_max":750,"o":"m 579 761 q 705 714 660 761 q 750 583 750 667 q 747 536 750 553 l 672 0 l 457 0 l 529 488 q 532 522 532 513 q 519 569 532 557 q 481 582 506 582 q 401 535 443 582 q 319 406 360 488 l 261 0 l 46 0 l 163 828 l 78 828 l 96 956 l 179 956 l 190 1031 l 408 1053 l 394 956 l 586 956 l 550 828 l 376 828 l 346 611 q 450 720 386 679 q 579 761 514 761 z "},"ĥ":{"ha":789,"x_min":33,"x_max":776,"o":"m 567 761 q 692 714 647 761 q 738 583 738 667 q 735 536 738 553 l 660 0 l 443 0 l 515 488 q 518 525 518 501 q 505 569 518 557 q 467 582 492 582 q 389 535 431 582 q 306 406 347 488 l 249 0 l 33 0 l 178 1031 l 396 1053 l 332 611 q 437 720 372 679 q 567 761 501 761 m 329 1117 l 258 1207 l 476 1386 l 608 1386 l 776 1207 l 692 1117 l 526 1233 l 329 1117 z "},"i":{"ha":386,"x_min":33,"x_max":410,"o":"m 33 0 l 136 738 l 353 738 l 250 0 l 33 0 m 294 1126 q 378 1095 347 1126 q 410 1015 410 1064 q 369 917 410 957 q 267 876 328 876 q 184 908 215 876 q 153 986 153 939 q 194 1085 153 1044 q 294 1126 235 1126 z "},"ı":{"ha":386,"x_min":33,"x_max":353,"o":"m 33 0 l 136 738 l 353 738 l 250 0 l 33 0 z "},"í":{"ha":386,"x_min":33,"x_max":458,"o":"m 33 0 l 136 738 l 353 738 l 250 0 l 33 0 m 118 864 l 75 976 l 396 1160 l 458 996 l 118 864 z "},"ĭ":{"ha":386,"x_min":33,"x_max":532,"o":"m 33 0 l 136 738 l 353 738 l 250 0 l 33 0 m 267 878 q 110 947 163 878 q 61 1119 57 1015 l 182 1138 q 281 1031 193 1031 q 362 1060 328 1031 q 415 1142 396 1089 l 532 1115 q 440 944 510 1011 q 267 878 369 878 z "},"î":{"ha":386,"x_min":15,"x_max":533,"o":"m 33 0 l 136 738 l 353 738 l 250 0 l 33 0 m 235 1142 l 367 1142 l 533 951 l 446 861 l 282 989 l 85 861 l 15 951 l 235 1142 z "},"ï":{"ha":386,"x_min":4,"x_max":543,"o":"m 33 0 l 136 738 l 353 738 l 250 0 l 33 0 m 126 1110 q 198 1082 169 1110 q 226 1013 226 1054 q 190 926 226 963 q 103 890 153 890 q 32 918 60 890 q 4 988 4 946 q 41 1074 4 1038 q 126 1110 78 1110 m 443 1110 q 515 1083 488 1110 q 543 1014 543 1056 q 507 926 543 963 q 419 890 471 890 q 349 918 376 890 q 321 988 321 946 q 358 1074 321 1038 q 443 1110 394 1110 z "},"ì":{"ha":386,"x_min":33,"x_max":482,"o":"m 33 0 l 136 738 l 353 738 l 250 0 l 33 0 m 410 864 l 104 996 l 211 1160 l 482 975 l 410 864 z "},"ĳ":{"ha":764,"x_min":33,"x_max":790,"o":"m 294 1126 q 378 1095 347 1126 q 410 1015 410 1064 q 369 917 410 957 q 267 876 328 876 q 184 908 215 876 q 153 986 153 939 q 194 1085 153 1044 q 294 1126 235 1126 m 675 1126 q 759 1095 728 1126 q 790 1015 790 1064 q 749 917 790 957 q 647 876 708 876 q 565 908 596 876 q 533 986 533 939 q 574 1085 533 1044 q 675 1126 615 1126 m 33 0 l 136 738 l 353 738 l 250 0 l 33 0 m 640 81 q 578 -109 625 -35 q 464 -228 532 -183 q 296 -308 396 -272 l 242 -150 q 369 -71 326 -118 q 424 72 411 -24 l 517 738 l 732 738 l 640 81 z "},"ī":{"ha":386,"x_min":33,"x_max":497,"o":"m 33 0 l 136 738 l 353 738 l 250 0 l 33 0 m 79 1063 l 497 1063 l 476 910 l 58 910 l 79 1063 z "},"į":{"ha":386,"x_min":-129,"x_max":410,"o":"m 294 1126 q 378 1095 347 1126 q 410 1015 410 1064 q 369 917 410 957 q 267 876 328 876 q 184 908 215 876 q 153 986 153 939 q 194 1085 153 1044 q 294 1126 235 1126 m 353 738 l 250 0 l 218 0 q 32 -158 32 -67 q 93 -204 32 -204 q 181 -193 129 -204 l 150 -331 q 56 -340 110 -340 q -78 -301 -28 -340 q -129 -196 -129 -262 q 36 15 -129 -64 l 136 738 l 353 738 z "},"ĩ":{"ha":386,"x_min":15,"x_max":544,"o":"m 33 0 l 136 738 l 353 738 l 250 0 l 33 0 m 351 882 q 304 891 324 882 q 254 919 285 900 q 224 938 236 932 q 200 944 213 944 q 157 929 175 944 q 115 881 139 914 l 15 939 q 103 1056 53 1011 q 210 1100 153 1100 q 262 1090 240 1100 q 310 1061 283 1079 q 336 1043 325 1049 q 360 1038 347 1038 q 401 1052 382 1038 q 443 1100 419 1067 l 544 1043 q 456 926 506 969 q 351 882 406 882 z "},"j":{"ha":379,"x_min":-144,"x_max":404,"o":"m 254 81 q 192 -109 239 -35 q 78 -228 146 -183 q -90 -308 10 -272 l -144 -150 q -17 -71 -60 -118 q 38 72 25 -24 l 131 738 l 346 738 l 254 81 m 289 1126 q 373 1095 342 1126 q 404 1015 404 1064 q 363 917 404 957 q 261 876 322 876 q 178 908 210 876 q 147 986 147 939 q 188 1085 147 1044 q 289 1126 229 1126 z "},"ȷ":{"ha":379,"x_min":-144,"x_max":346,"o":"m 254 81 q 192 -109 239 -35 q 78 -228 146 -183 q -90 -308 10 -272 l -144 -150 q -17 -71 -60 -118 q 38 72 25 -24 l 131 738 l 346 738 l 254 81 z "},"ĵ":{"ha":379,"x_min":-144,"x_max":528,"o":"m 254 81 q 192 -109 239 -35 q 78 -228 146 -183 q -90 -308 10 -272 l -144 -150 q -17 -71 -60 -118 q 38 72 25 -24 l 131 738 l 346 738 l 254 81 m 229 1142 l 361 1142 l 528 951 l 440 861 l 276 989 l 79 861 l 10 951 l 229 1142 z "},"k":{"ha":788,"x_min":33,"x_max":781,"o":"m 339 642 q 583 761 444 761 q 727 713 674 761 q 781 588 781 664 q 581 328 781 407 l 718 0 l 481 0 l 347 356 q 513 440 464 393 q 561 547 561 486 q 544 593 561 578 q 497 608 528 608 q 405 571 453 608 q 314 457 357 533 l 250 0 l 33 0 l 178 1031 l 396 1054 l 339 642 z "},"ķ":{"ha":788,"x_min":33,"x_max":781,"o":"m 339 642 q 583 761 444 761 q 727 713 674 761 q 781 588 781 664 q 581 328 781 407 l 718 0 l 481 0 l 347 356 q 513 440 464 393 q 561 547 561 486 q 544 593 561 578 q 497 608 528 608 q 405 571 453 608 q 314 457 357 533 l 250 0 l 33 0 l 178 1031 l 396 1054 l 339 642 m 344 -94 q 414 -122 388 -94 q 440 -190 440 -149 q 428 -251 440 -222 q 388 -324 417 -279 l 306 -451 l 199 -451 l 261 -289 q 224 -214 224 -258 q 259 -128 224 -161 q 344 -94 294 -94 z "},"ĸ":{"ha":750,"x_min":33,"x_max":799,"o":"m 33 0 l 136 738 l 353 738 l 250 0 l 33 0 m 714 0 l 478 0 l 308 389 l 565 738 l 799 738 l 533 392 l 714 0 z "},"l":{"ha":401,"x_min":50,"x_max":389,"o":"m 269 201 q 268 183 268 194 q 299 150 268 150 q 335 158 310 150 l 360 4 q 221 -24 297 -24 q 94 19 139 -24 q 50 146 50 63 q 53 193 50 176 l 171 1031 l 389 1054 l 269 201 z "},"ĺ":{"ha":401,"x_min":50,"x_max":503,"o":"m 269 201 q 268 183 268 194 q 299 150 268 150 q 335 158 310 150 l 360 4 q 221 -24 297 -24 q 94 19 139 -24 q 50 146 50 63 q 53 193 50 176 l 171 1031 l 389 1054 l 269 201 m 168 1106 l 114 1217 l 424 1397 l 503 1232 l 168 1106 z "},"ľ":{"ha":521,"x_min":13,"x_max":617,"o":"m 233 201 q 232 183 232 194 q 263 150 232 150 q 299 158 274 150 l 324 4 q 185 -24 261 -24 q 58 19 103 -24 q 14 146 14 63 q 17 193 14 176 l 135 1031 l 353 1054 l 233 201 m 511 732 l 400 743 l 457 1050 l 617 1031 l 511 732 z "},"ļ":{"ha":401,"x_min":26,"x_max":389,"o":"m 269 201 q 268 183 268 194 q 299 150 268 150 q 335 158 310 150 l 360 4 q 221 -24 297 -24 q 94 19 139 -24 q 50 146 50 63 q 53 193 50 176 l 171 1031 l 389 1054 l 269 201 m 172 -94 q 242 -122 215 -94 q 268 -190 268 -149 q 256 -251 268 -222 q 215 -324 244 -279 l 133 -451 l 26 -451 l 89 -289 q 51 -214 51 -258 q 87 -128 51 -161 q 172 -94 122 -94 z "},"ŀ":{"ha":607,"x_min":-8,"x_max":578,"o":"m 213 201 q 211 183 211 194 q 242 150 211 150 q 278 158 253 150 l 303 4 q 164 -24 240 -24 q 38 19 82 -24 q -7 146 -7 63 q -4 193 -7 176 l 114 1031 l 332 1054 l 213 201 m 463 646 q 547 615 515 646 q 578 535 578 583 q 537 436 578 476 q 435 396 496 396 q 352 427 383 396 q 321 506 321 458 q 362 605 321 564 q 463 646 403 646 z "},"ł":{"ha":465,"x_min":10,"x_max":494,"o":"m 329 150 q 365 158 340 150 l 390 4 q 253 -24 331 -24 q 125 19 169 -24 q 81 143 81 61 q 85 193 81 167 l 111 378 l 44 340 l 10 475 l 133 547 l 201 1031 l 419 1054 l 367 682 l 461 736 l 494 599 l 343 513 l 300 201 q 304 162 297 174 q 329 150 311 150 z "},"m":{"ha":1154,"x_min":33,"x_max":1103,"o":"m 938 761 q 1059 714 1015 761 q 1103 583 1103 667 q 1100 536 1103 553 l 1025 0 l 810 0 l 882 488 q 885 524 885 501 q 839 582 885 582 q 767 538 804 582 q 696 417 731 493 l 636 0 l 421 0 l 493 488 q 496 524 496 501 q 450 582 496 582 q 376 535 415 582 q 306 408 338 488 l 249 0 l 33 0 l 136 738 l 324 738 l 319 618 q 424 724 365 686 q 549 761 483 761 q 658 726 615 761 q 713 624 701 690 q 817 724 757 688 q 938 761 876 761 z "},"n":{"ha":789,"x_min":33,"x_max":738,"o":"m 567 761 q 692 714 647 761 q 738 583 738 667 q 735 536 738 553 l 660 0 l 443 0 l 515 488 q 518 525 518 501 q 505 569 518 557 q 467 582 492 582 q 389 535 431 582 q 306 406 347 488 l 249 0 l 33 0 l 136 738 l 324 738 l 319 608 q 434 719 367 678 q 567 761 501 761 z "},"ń":{"ha":789,"x_min":33,"x_max":738,"o":"m 567 761 q 692 714 647 761 q 738 583 738 667 q 735 536 738 553 l 660 0 l 443 0 l 515 488 q 518 525 518 501 q 505 569 518 557 q 467 582 492 582 q 389 535 431 582 q 306 406 347 488 l 249 0 l 33 0 l 136 738 l 324 738 l 319 608 q 434 719 367 678 q 567 761 501 761 m 326 864 l 283 976 l 604 1160 l 667 996 l 326 864 z "},"ŉ":{"ha":939,"x_min":33,"x_max":738,"o":"m 567 761 q 692 714 647 761 q 738 583 738 667 q 735 536 738 553 l 660 0 l 443 0 l 515 488 q 518 525 518 501 q 505 569 518 557 q 467 582 492 582 q 389 535 431 582 q 306 406 347 488 l 249 0 l 33 0 l 136 738 l 324 738 l 319 608 q 434 719 367 678 q 567 761 501 761 m 274 1053 q 335 1029 311 1053 q 360 969 360 1006 q 350 920 360 943 q 313 853 340 897 l 240 740 l 144 740 l 200 882 q 168 951 168 908 q 199 1022 168 992 q 274 1053 231 1053 z "},"ň":{"ha":789,"x_min":33,"x_max":754,"o":"m 567 761 q 692 714 647 761 q 738 583 738 667 q 735 536 738 553 l 660 0 l 443 0 l 515 488 q 518 525 518 501 q 505 569 518 557 q 467 582 492 582 q 389 535 431 582 q 306 406 347 488 l 249 0 l 33 0 l 136 738 l 324 738 l 319 608 q 434 719 367 678 q 567 761 501 761 m 536 849 l 404 849 l 236 1039 l 319 1129 l 483 1003 l 685 1129 l 754 1039 l 536 849 z "},"ņ":{"ha":789,"x_min":33,"x_max":738,"o":"m 567 761 q 692 714 647 761 q 738 583 738 667 q 735 536 738 553 l 660 0 l 443 0 l 515 488 q 518 525 518 501 q 505 569 518 557 q 467 582 492 582 q 389 535 431 582 q 306 406 347 488 l 249 0 l 33 0 l 136 738 l 324 738 l 319 608 q 434 719 367 678 q 567 761 501 761 m 328 -94 q 397 -122 371 -94 q 424 -190 424 -149 q 412 -251 424 -222 q 371 -324 400 -279 l 289 -451 l 182 -451 l 244 -289 q 207 -214 207 -258 q 242 -128 207 -161 q 328 -94 278 -94 z "},"ŋ":{"ha":788,"x_min":33,"x_max":738,"o":"m 567 761 q 692 715 647 761 q 738 583 738 668 q 735 536 738 553 l 669 81 q 608 -109 654 -35 q 494 -228 563 -183 q 326 -308 426 -272 l 272 -150 q 399 -72 357 -119 q 456 72 442 -24 l 515 488 q 518 524 518 515 q 505 569 518 557 q 467 582 492 582 q 389 535 431 582 q 306 406 347 488 l 249 0 l 33 0 l 136 738 l 324 738 l 319 604 q 433 717 364 674 q 567 761 501 761 z "},"ñ":{"ha":789,"x_min":33,"x_max":753,"o":"m 567 761 q 692 714 647 761 q 738 583 738 667 q 735 536 738 553 l 660 0 l 443 0 l 515 488 q 518 525 518 501 q 505 569 518 557 q 467 582 492 582 q 389 535 431 582 q 306 406 347 488 l 249 0 l 33 0 l 136 738 l 324 738 l 319 608 q 434 719 367 678 q 567 761 501 761 m 560 882 q 513 891 532 882 q 463 919 493 900 q 433 938 444 932 q 408 944 421 944 q 365 929 383 944 q 324 881 347 914 l 224 939 q 311 1056 261 1011 q 418 1100 361 1100 q 470 1090 449 1100 q 518 1061 492 1079 q 544 1043 533 1049 q 568 1038 556 1038 q 609 1052 590 1038 q 651 1100 628 1067 l 753 1043 q 664 926 714 969 q 560 882 614 882 z "},"o":{"ha":797,"x_min":39,"x_max":758,"o":"m 450 761 q 676 678 594 761 q 758 451 758 594 q 718 229 758 338 q 585 49 678 121 q 347 -24 493 -24 q 120 60 201 -24 q 39 290 39 143 q 79 512 39 404 q 212 690 119 619 q 450 761 304 761 m 435 600 q 299 497 339 600 q 260 276 260 394 q 285 171 260 204 q 363 138 311 138 q 498 242 460 138 q 536 467 536 347 q 511 568 536 536 q 435 600 486 600 z "},"ó":{"ha":797,"x_min":39,"x_max":758,"o":"m 450 761 q 676 678 594 761 q 758 451 758 594 q 718 229 758 338 q 585 49 678 121 q 347 -24 493 -24 q 120 60 201 -24 q 39 290 39 143 q 79 512 39 404 q 212 690 119 619 q 450 761 304 761 m 435 600 q 299 497 339 600 q 260 276 260 394 q 285 171 260 204 q 363 138 311 138 q 498 242 460 138 q 536 467 536 347 q 511 568 536 536 q 435 600 486 600 m 315 864 l 272 976 l 593 1160 l 656 996 l 315 864 z "},"ŏ":{"ha":797,"x_min":39,"x_max":758,"o":"m 450 761 q 676 678 594 761 q 758 451 758 594 q 718 229 758 338 q 585 49 678 121 q 347 -24 493 -24 q 120 60 201 -24 q 39 290 39 143 q 79 512 39 404 q 212 690 119 619 q 450 761 304 761 m 435 600 q 299 497 339 600 q 260 276 260 394 q 285 171 260 204 q 363 138 311 138 q 498 242 460 138 q 536 467 536 347 q 511 568 536 536 q 435 600 486 600 m 465 878 q 308 947 361 878 q 260 1119 256 1015 l 381 1138 q 479 1031 392 1031 q 560 1060 526 1031 q 614 1142 594 1089 l 731 1115 q 638 944 708 1011 q 465 878 568 878 z "},"ô":{"ha":797,"x_min":39,"x_max":758,"o":"m 450 761 q 676 678 594 761 q 758 451 758 594 q 718 229 758 338 q 585 49 678 121 q 347 -24 493 -24 q 120 60 201 -24 q 39 290 39 143 q 79 512 39 404 q 212 690 119 619 q 450 761 304 761 m 435 600 q 299 497 339 600 q 260 276 260 394 q 285 171 260 204 q 363 138 311 138 q 498 242 460 138 q 536 467 536 347 q 511 568 536 536 q 435 600 486 600 m 433 1142 l 565 1142 l 732 951 l 644 861 l 481 989 l 283 861 l 214 951 l 433 1142 z "},"ö":{"ha":797,"x_min":39,"x_max":758,"o":"m 450 761 q 676 678 594 761 q 758 451 758 594 q 718 229 758 338 q 585 49 678 121 q 347 -24 493 -24 q 120 60 201 -24 q 39 290 39 143 q 79 512 39 404 q 212 690 119 619 q 450 761 304 761 m 435 600 q 299 497 339 600 q 260 276 260 394 q 285 171 260 204 q 363 138 311 138 q 498 242 460 138 q 536 467 536 347 q 511 568 536 536 q 435 600 486 600 m 325 1110 q 397 1082 368 1110 q 425 1013 425 1054 q 388 926 425 963 q 301 890 351 890 q 231 918 258 890 q 203 988 203 946 q 240 1074 203 1038 q 325 1110 276 1110 m 642 1110 q 714 1083 686 1110 q 742 1014 742 1056 q 706 926 742 963 q 618 890 669 890 q 547 918 575 890 q 519 988 519 946 q 556 1074 519 1038 q 642 1110 593 1110 z "},"ò":{"ha":797,"x_min":39,"x_max":758,"o":"m 450 761 q 676 678 594 761 q 758 451 758 594 q 718 229 758 338 q 585 49 678 121 q 347 -24 493 -24 q 120 60 201 -24 q 39 290 39 143 q 79 512 39 404 q 212 690 119 619 q 450 761 304 761 m 435 600 q 299 497 339 600 q 260 276 260 394 q 285 171 260 204 q 363 138 311 138 q 498 242 460 138 q 536 467 536 347 q 511 568 536 536 q 435 600 486 600 m 607 864 l 301 996 l 408 1160 l 679 975 l 607 864 z "},"ő":{"ha":797,"x_min":39,"x_max":814,"o":"m 450 761 q 676 678 594 761 q 758 451 758 594 q 718 229 758 338 q 585 49 678 121 q 347 -24 493 -24 q 120 60 201 -24 q 39 290 39 143 q 79 512 39 404 q 212 690 119 619 q 450 761 304 761 m 435 600 q 299 497 339 600 q 260 276 260 394 q 285 171 260 204 q 363 138 311 138 q 498 242 460 138 q 536 467 536 347 q 511 568 536 536 q 435 600 486 600 m 388 875 l 279 921 l 439 1194 l 576 1125 l 388 875 m 614 868 l 508 921 l 678 1194 l 814 1121 l 614 868 z "},"ō":{"ha":797,"x_min":39,"x_max":758,"o":"m 450 761 q 676 678 594 761 q 758 451 758 594 q 718 229 758 338 q 585 49 678 121 q 347 -24 493 -24 q 120 60 201 -24 q 39 290 39 143 q 79 512 39 404 q 212 690 119 619 q 450 761 304 761 m 435 600 q 299 497 339 600 q 260 276 260 394 q 285 171 260 204 q 363 138 311 138 q 498 242 460 138 q 536 467 536 347 q 511 568 536 536 q 435 600 486 600 m 278 1063 l 696 1063 l 675 910 l 257 910 l 278 1063 z "},"ø":{"ha":797,"x_min":36,"x_max":760,"o":"m 646 706 q 731 601 701 665 q 760 453 760 536 q 719 230 760 339 q 585 49 678 121 q 347 -24 493 -24 q 299 -21 332 -24 l 225 -187 l 72 -140 l 151 32 q 66 138 96 72 q 36 290 36 204 q 77 512 36 404 q 211 690 118 619 q 450 761 304 761 q 499 758 468 761 l 575 926 l 728 879 l 646 706 m 435 600 q 326 547 368 600 q 267 419 285 493 q 250 276 250 344 q 267 199 250 224 l 453 599 q 435 600 447 600 m 365 138 q 471 191 431 138 q 528 319 511 244 q 547 461 546 393 q 532 535 547 511 l 346 139 l 365 138 z "},"ǿ":{"ha":797,"x_min":36,"x_max":760,"o":"m 646 706 q 731 601 701 665 q 760 453 760 536 q 719 230 760 339 q 585 49 678 121 q 347 -24 493 -24 q 299 -21 332 -24 l 225 -187 l 72 -140 l 151 32 q 66 138 96 72 q 36 290 36 204 q 77 512 36 404 q 211 690 118 619 q 450 761 304 761 q 499 758 468 761 l 575 926 l 728 879 l 646 706 m 435 600 q 326 547 368 600 q 267 419 285 493 q 250 276 250 344 q 267 199 250 224 l 453 599 q 435 600 447 600 m 365 138 q 471 191 431 138 q 528 319 511 244 q 547 461 546 393 q 532 535 547 511 l 346 139 l 365 138 m 314 897 l 271 1010 l 592 1193 l 654 1029 l 314 897 z "},"õ":{"ha":797,"x_min":39,"x_max":758,"o":"m 450 761 q 676 678 594 761 q 758 451 758 594 q 718 229 758 338 q 585 49 678 121 q 347 -24 493 -24 q 120 60 201 -24 q 39 290 39 143 q 79 512 39 404 q 212 690 119 619 q 450 761 304 761 m 435 600 q 299 497 339 600 q 260 276 260 394 q 285 171 260 204 q 363 138 311 138 q 498 242 460 138 q 536 467 536 347 q 511 568 536 536 q 435 600 486 600 m 550 882 q 503 891 522 882 q 453 919 483 900 q 423 938 435 932 q 399 944 411 944 q 356 929 374 944 q 314 881 338 914 l 214 939 q 301 1056 251 1011 q 408 1100 351 1100 q 460 1090 439 1100 q 508 1061 482 1079 q 535 1043 524 1049 q 558 1038 546 1038 q 599 1052 581 1038 q 642 1100 618 1067 l 743 1043 q 654 926 704 969 q 550 882 604 882 z "},"œ":{"ha":1231,"x_min":36,"x_max":1215,"o":"m 1215 560 q 1084 354 1215 419 q 743 269 953 289 q 781 168 747 199 q 874 138 815 138 q 965 154 921 138 q 1061 206 1008 171 l 1140 75 q 846 -24 1001 -24 q 603 85 685 -24 q 347 -24 506 -24 q 118 60 200 -24 q 36 290 36 143 q 77 512 36 404 q 211 690 118 619 q 450 761 304 761 q 580 730 522 761 q 678 647 638 699 q 943 761 781 761 q 1144 704 1072 761 q 1215 560 1215 647 m 753 401 q 938 452 879 411 q 997 547 997 493 q 981 596 997 576 q 922 615 964 615 q 810 554 851 615 q 753 401 769 493 m 363 138 q 498 240 458 138 q 539 461 538 343 q 513 567 539 533 q 435 600 486 600 q 298 497 338 600 q 258 276 258 394 q 285 171 258 204 q 363 138 311 138 z "},"p":{"ha":815,"x_min":-10,"x_max":771,"o":"m 544 761 q 713 687 656 761 q 771 474 771 613 q 732 242 771 356 q 606 52 693 128 q 381 -24 518 -24 q 246 -4 307 -24 l 208 -286 l -10 -310 l 136 738 l 326 738 l 326 656 q 544 761 425 761 m 461 600 q 321 515 388 600 l 271 154 q 364 136 317 136 q 469 188 428 136 q 531 316 511 239 q 550 469 550 393 q 526 571 550 542 q 461 600 503 600 z "},"þ":{"ha":815,"x_min":-11,"x_max":771,"o":"m 544 761 q 713 687 656 761 q 771 474 771 613 q 733 241 771 354 q 606 52 694 128 q 376 -24 518 -24 q 249 -3 303 -24 l 208 -286 l -11 -310 l 178 1031 l 396 1054 l 343 676 q 438 738 385 715 q 544 761 492 761 m 364 136 q 469 188 428 136 q 531 316 511 239 q 550 469 550 393 q 526 571 550 542 q 461 600 503 600 q 321 515 388 600 l 271 154 q 364 136 317 136 z "},"q":{"ha":796,"x_min":33,"x_max":763,"o":"m 460 761 q 763 683 621 761 l 626 -286 l 404 -310 l 463 65 q 385 3 438 31 q 272 -24 333 -24 q 95 55 157 -24 q 33 269 33 133 q 78 501 33 389 q 218 688 122 614 q 460 761 314 761 m 454 606 q 342 554 386 606 q 277 426 297 503 q 257 271 257 350 q 281 167 257 197 q 346 138 304 138 q 417 163 383 138 q 485 240 450 189 l 538 592 q 454 606 496 606 z "},"r":{"ha":544,"x_min":33,"x_max":603,"o":"m 529 758 q 603 747 565 758 l 540 536 q 479 546 501 546 q 373 493 415 546 q 297 342 331 440 l 249 0 l 33 0 l 136 738 l 324 738 l 321 600 q 414 717 357 675 q 529 758 471 758 z "},"ŕ":{"ha":544,"x_min":33,"x_max":603,"o":"m 529 758 q 603 747 565 758 l 540 536 q 479 546 501 546 q 373 493 415 546 q 297 342 331 440 l 249 0 l 33 0 l 136 738 l 324 738 l 321 600 q 414 717 357 675 q 529 758 471 758 m 244 864 l 201 976 l 522 1160 l 585 996 l 244 864 z "},"ř":{"ha":544,"x_min":33,"x_max":672,"o":"m 529 758 q 603 747 565 758 l 540 536 q 479 546 501 546 q 373 493 415 546 q 297 342 331 440 l 249 0 l 33 0 l 136 738 l 324 738 l 321 600 q 414 717 357 675 q 529 758 471 758 m 454 849 l 322 849 l 154 1039 l 238 1129 l 401 1003 l 603 1129 l 672 1039 l 454 849 z "},"ŗ":{"ha":544,"x_min":-19,"x_max":603,"o":"m 529 758 q 603 747 565 758 l 540 536 q 479 546 501 546 q 373 493 415 546 q 297 342 331 440 l 249 0 l 33 0 l 136 738 l 324 738 l 321 600 q 414 717 357 675 q 529 758 471 758 m 126 -94 q 196 -122 169 -94 q 222 -190 222 -149 q 210 -251 222 -222 q 169 -324 199 -279 l 88 -451 l -19 -451 l 43 -289 q 6 -214 6 -258 q 41 -128 6 -161 q 126 -94 76 -94 z "},"s":{"ha":657,"x_min":-25,"x_max":646,"o":"m 379 761 q 526 735 454 761 q 646 667 599 710 l 549 544 q 469 589 515 574 q 379 604 424 604 q 279 544 279 604 q 291 513 279 525 q 331 488 303 500 q 421 457 358 476 q 565 372 517 426 q 613 232 613 318 q 576 103 613 161 q 466 11 540 46 q 282 -24 392 -24 q 106 10 186 -24 q -25 97 25 43 l 88 214 q 174 156 124 178 q 282 133 224 133 q 368 154 339 133 q 397 207 397 175 q 385 247 397 232 q 344 274 374 261 q 251 310 315 288 q 64 525 64 374 q 101 643 64 589 q 208 729 138 697 q 379 761 279 761 z "},"ś":{"ha":657,"x_min":-25,"x_max":646,"o":"m 379 761 q 526 735 454 761 q 646 667 599 710 l 549 544 q 469 589 515 574 q 379 604 424 604 q 279 544 279 604 q 291 513 279 525 q 331 488 303 500 q 421 457 358 476 q 565 372 517 426 q 613 232 613 318 q 576 103 613 161 q 466 11 540 46 q 282 -24 392 -24 q 106 10 186 -24 q -25 97 25 43 l 88 214 q 174 156 124 178 q 282 133 224 133 q 368 154 339 133 q 397 207 397 175 q 385 247 397 232 q 344 274 374 261 q 251 310 315 288 q 64 525 64 374 q 101 643 64 589 q 208 729 138 697 q 379 761 279 761 m 261 864 l 218 976 l 539 1160 l 601 996 l 261 864 z "},"š":{"ha":657,"x_min":-25,"x_max":690,"o":"m 379 761 q 526 735 454 761 q 646 667 599 710 l 549 544 q 469 589 515 574 q 379 604 424 604 q 279 544 279 604 q 291 513 279 525 q 331 488 303 500 q 421 457 358 476 q 565 372 517 426 q 613 232 613 318 q 576 103 613 161 q 466 11 540 46 q 282 -24 392 -24 q 106 10 186 -24 q -25 97 25 43 l 88 214 q 174 156 124 178 q 282 133 224 133 q 368 154 339 133 q 397 207 397 175 q 385 247 397 232 q 344 274 374 261 q 251 310 315 288 q 64 525 64 374 q 101 643 64 589 q 208 729 138 697 q 379 761 279 761 m 472 849 l 340 849 l 172 1039 l 256 1129 l 419 1003 l 621 1129 l 690 1039 l 472 849 z "},"ş":{"ha":657,"x_min":-25,"x_max":646,"o":"m 421 457 q 565 372 517 426 q 613 232 613 318 q 542 61 613 132 q 333 -21 471 -10 l 325 -67 q 419 -106 388 -74 q 451 -189 451 -139 q 429 -271 451 -231 q 356 -337 407 -311 q 228 -364 306 -364 q 78 -319 140 -364 l 140 -221 q 221 -244 176 -244 q 275 -233 254 -244 q 296 -197 296 -221 q 269 -165 296 -175 q 176 -156 242 -156 l 211 -18 q 76 22 138 -8 q -25 97 15 53 l 88 214 q 174 156 124 178 q 282 133 224 133 q 368 154 339 133 q 397 207 397 175 q 385 247 397 232 q 344 274 374 261 q 251 310 315 288 q 64 525 64 374 q 101 643 64 589 q 208 729 138 697 q 379 761 279 761 q 526 735 454 761 q 646 667 599 710 l 549 544 q 469 589 515 574 q 379 604 424 604 q 279 544 279 604 q 291 513 279 525 q 331 488 303 500 q 421 457 358 476 z "},"ŝ":{"ha":657,"x_min":-25,"x_max":678,"o":"m 379 761 q 526 735 454 761 q 646 667 599 710 l 549 544 q 469 589 515 574 q 379 604 424 604 q 279 544 279 604 q 291 513 279 525 q 331 488 303 500 q 421 457 358 476 q 565 372 517 426 q 613 232 613 318 q 576 103 613 161 q 466 11 540 46 q 282 -24 392 -24 q 106 10 186 -24 q -25 97 25 43 l 88 214 q 174 156 124 178 q 282 133 224 133 q 368 154 339 133 q 397 207 397 175 q 385 247 397 232 q 344 274 374 261 q 251 310 315 288 q 64 525 64 374 q 101 643 64 589 q 208 729 138 697 q 379 761 279 761 m 379 1142 l 511 1142 l 678 951 l 590 861 l 426 989 l 229 861 l 160 951 l 379 1142 z "},"ș":{"ha":657,"x_min":-25,"x_max":646,"o":"m 379 761 q 526 735 454 761 q 646 667 599 710 l 549 544 q 469 589 515 574 q 379 604 424 604 q 279 544 279 604 q 291 513 279 525 q 331 488 303 500 q 421 457 358 476 q 565 372 517 426 q 613 232 613 318 q 576 103 613 161 q 466 11 540 46 q 282 -24 392 -24 q 106 10 186 -24 q -25 97 25 43 l 88 214 q 174 156 124 178 q 282 133 224 133 q 368 154 339 133 q 397 207 397 175 q 385 247 397 232 q 344 274 374 261 q 251 310 315 288 q 64 525 64 374 q 101 643 64 589 q 208 729 138 697 q 379 761 279 761 m 263 -94 q 332 -122 306 -94 q 358 -190 358 -149 q 347 -251 358 -222 q 306 -324 335 -279 l 224 -451 l 117 -451 l 179 -289 q 142 -214 142 -258 q 177 -128 142 -161 q 263 -94 213 -94 z "},"ß":{"ha":826,"x_min":-137,"x_max":786,"o":"m 585 588 q 602 541 585 561 q 656 492 619 521 q 722 431 696 458 q 767 361 749 404 q 786 258 786 318 q 753 125 786 190 q 649 18 719 60 q 475 -24 579 -24 q 383 -12 428 -24 q 304 18 339 0 l 385 163 q 458 144 421 144 q 539 177 514 144 q 564 247 564 210 q 543 318 564 289 q 481 383 522 347 q 413 456 436 422 q 390 539 390 489 q 413 636 390 599 q 479 714 436 674 q 533 774 515 749 q 550 839 550 800 q 532 883 550 868 q 481 899 514 899 q 353 744 374 899 l 260 81 q 199 -109 244 -35 q 85 -228 153 -183 q -83 -308 17 -272 l -137 -150 q -13 -76 -56 -119 q 40 53 29 -33 l 138 743 q 251 972 157 890 q 499 1054 344 1054 q 690 998 622 1054 q 757 854 757 942 q 731 760 757 796 q 656 685 706 725 q 602 636 619 657 q 585 588 585 615 z "},"t":{"ha":522,"x_min":32,"x_max":536,"o":"m 301 244 q 299 210 299 219 q 312 165 299 178 q 351 151 325 151 q 435 175 393 151 l 493 31 q 393 -10 447 4 q 290 -24 339 -24 q 81 181 81 -22 q 85 244 81 211 l 133 585 l 32 585 l 53 738 l 164 738 l 210 901 l 396 922 l 369 738 l 536 738 l 493 585 l 349 585 l 301 244 z "},"ŧ":{"ha":528,"x_min":15,"x_max":536,"o":"m 338 501 l 485 501 l 443 357 l 317 357 l 301 244 q 299 210 299 219 q 312 165 299 178 q 351 151 325 151 q 435 175 393 151 l 493 31 q 393 -10 447 4 q 290 -24 339 -24 q 81 181 81 -22 q 85 244 81 211 l 101 357 l 15 357 l 35 501 l 122 501 l 133 585 l 32 585 l 53 738 l 164 738 l 210 901 l 396 922 l 369 738 l 536 738 l 493 585 l 349 585 l 338 501 z "},"ť":{"ha":522,"x_min":32,"x_max":650,"o":"m 301 244 q 299 210 299 219 q 312 165 299 178 q 351 151 325 151 q 435 175 393 151 l 493 31 q 393 -10 447 4 q 290 -24 339 -24 q 81 181 81 -22 q 85 244 81 211 l 133 585 l 32 585 l 53 738 l 164 738 l 210 901 l 396 922 l 369 738 l 536 738 l 493 585 l 349 585 l 301 244 m 544 790 l 433 801 l 490 1108 l 650 1089 l 544 790 z "},"ţ":{"ha":522,"x_min":32,"x_max":536,"o":"m 301 244 q 299 210 299 219 q 312 165 299 178 q 351 151 325 151 q 435 175 393 151 l 493 31 q 322 -22 418 -12 l 314 -67 q 408 -106 376 -74 q 440 -189 440 -139 q 418 -271 440 -231 q 345 -337 396 -311 q 217 -364 294 -364 q 67 -319 129 -364 l 129 -221 q 210 -244 165 -244 q 264 -233 243 -244 q 285 -197 285 -221 q 258 -165 285 -175 q 165 -156 231 -156 l 201 -11 q 81 181 81 28 q 85 244 81 211 l 133 585 l 32 585 l 53 738 l 164 738 l 210 901 l 396 922 l 369 738 l 536 738 l 493 585 l 349 585 l 301 244 z "},"ț":{"ha":522,"x_min":32,"x_max":536,"o":"m 301 244 q 299 210 299 219 q 312 165 299 178 q 351 151 325 151 q 435 175 393 151 l 493 31 q 393 -10 447 4 q 290 -24 339 -24 q 81 181 81 -22 q 85 244 81 211 l 133 585 l 32 585 l 53 738 l 164 738 l 210 901 l 396 922 l 369 738 l 536 738 l 493 585 l 349 585 l 301 244 m 250 -94 q 319 -122 293 -94 q 346 -190 346 -149 q 334 -251 346 -222 q 293 -324 322 -279 l 211 -451 l 104 -451 l 167 -289 q 129 -214 129 -258 q 165 -128 129 -161 q 250 -94 200 -94 z "},"u":{"ha":781,"x_min":50,"x_max":747,"o":"m 458 0 l 463 110 q 229 -24 360 -24 q 96 24 142 -24 q 50 158 50 72 q 54 210 50 183 l 129 738 l 344 738 l 276 246 q 274 211 274 218 q 286 165 274 178 q 325 151 299 151 q 467 271 393 151 l 532 738 l 747 738 l 644 0 l 458 0 z "},"ú":{"ha":781,"x_min":50,"x_max":747,"o":"m 458 0 l 463 110 q 229 -24 360 -24 q 96 24 142 -24 q 50 158 50 72 q 54 210 50 183 l 129 738 l 344 738 l 276 246 q 274 211 274 218 q 286 165 274 178 q 325 151 299 151 q 467 271 393 151 l 532 738 l 747 738 l 644 0 l 458 0 m 314 864 l 271 976 l 592 1160 l 654 996 l 314 864 z "},"ŭ":{"ha":781,"x_min":50,"x_max":747,"o":"m 458 0 l 463 110 q 229 -24 360 -24 q 96 24 142 -24 q 50 158 50 72 q 54 210 50 183 l 129 738 l 344 738 l 276 246 q 274 211 274 218 q 286 165 274 178 q 325 151 299 151 q 467 271 393 151 l 532 738 l 747 738 l 644 0 l 458 0 m 463 878 q 306 947 358 878 q 257 1119 253 1015 l 378 1138 q 476 1031 389 1031 q 558 1060 524 1031 q 611 1142 592 1089 l 728 1115 q 635 944 706 1011 q 463 878 565 878 z "},"û":{"ha":781,"x_min":50,"x_max":747,"o":"m 458 0 l 463 110 q 229 -24 360 -24 q 96 24 142 -24 q 50 158 50 72 q 54 210 50 183 l 129 738 l 344 738 l 276 246 q 274 211 274 218 q 286 165 274 178 q 325 151 299 151 q 467 271 393 151 l 532 738 l 747 738 l 644 0 l 458 0 m 431 1142 l 563 1142 l 729 951 l 642 861 l 478 989 l 281 861 l 211 951 l 431 1142 z "},"ü":{"ha":781,"x_min":50,"x_max":747,"o":"m 458 0 l 463 110 q 229 -24 360 -24 q 96 24 142 -24 q 50 158 50 72 q 54 210 50 183 l 129 738 l 344 738 l 276 246 q 274 211 274 218 q 286 165 274 178 q 325 151 299 151 q 467 271 393 151 l 532 738 l 747 738 l 644 0 l 458 0 m 322 1110 q 394 1082 365 1110 q 422 1013 422 1054 q 385 926 422 963 q 299 890 349 890 q 228 918 256 890 q 200 988 200 946 q 237 1074 200 1038 q 322 1110 274 1110 m 639 1110 q 711 1083 683 1110 q 739 1014 739 1056 q 703 926 739 963 q 615 890 667 890 q 544 918 572 890 q 517 988 517 946 q 553 1074 517 1038 q 639 1110 590 1110 z "},"ù":{"ha":781,"x_min":50,"x_max":747,"o":"m 458 0 l 463 110 q 229 -24 360 -24 q 96 24 142 -24 q 50 158 50 72 q 54 210 50 183 l 129 738 l 344 738 l 276 246 q 274 211 274 218 q 286 165 274 178 q 325 151 299 151 q 467 271 393 151 l 532 738 l 747 738 l 644 0 l 458 0 m 606 864 l 300 996 l 407 1160 l 678 975 l 606 864 z "},"ű":{"ha":781,"x_min":50,"x_max":813,"o":"m 458 0 l 463 110 q 229 -24 360 -24 q 96 24 142 -24 q 50 158 50 72 q 54 210 50 183 l 129 738 l 344 738 l 276 246 q 274 211 274 218 q 286 165 274 178 q 325 151 299 151 q 467 271 393 151 l 532 738 l 747 738 l 644 0 l 458 0 m 386 875 l 278 921 l 438 1194 l 575 1125 l 386 875 m 613 868 l 507 921 l 676 1194 l 813 1121 l 613 868 z "},"ū":{"ha":781,"x_min":50,"x_max":747,"o":"m 458 0 l 463 110 q 229 -24 360 -24 q 96 24 142 -24 q 50 158 50 72 q 54 210 50 183 l 129 738 l 344 738 l 276 246 q 274 211 274 218 q 286 165 274 178 q 325 151 299 151 q 467 271 393 151 l 532 738 l 747 738 l 644 0 l 458 0 m 276 1063 l 694 1063 l 674 910 l 256 910 l 276 1063 z "},"ų":{"ha":781,"x_min":50,"x_max":747,"o":"m 646 0 q 460 -158 460 -67 q 521 -204 460 -204 q 608 -193 557 -204 l 578 -331 q 483 -340 538 -340 q 349 -301 400 -340 q 299 -196 299 -262 q 458 14 299 -67 l 463 110 q 229 -24 360 -24 q 96 24 142 -24 q 50 158 50 72 q 54 210 50 183 l 129 738 l 344 738 l 276 246 q 274 211 274 218 q 286 165 274 178 q 325 151 299 151 q 467 271 393 151 l 532 738 l 747 738 l 644 3 l 646 0 z "},"ů":{"ha":781,"x_min":50,"x_max":747,"o":"m 458 0 l 463 110 q 229 -24 360 -24 q 96 24 142 -24 q 50 158 50 72 q 54 210 50 183 l 129 738 l 344 738 l 276 246 q 274 211 274 218 q 286 165 274 178 q 325 151 299 151 q 467 271 393 151 l 532 738 l 747 738 l 644 0 l 458 0 m 503 1204 q 626 1159 581 1204 q 671 1044 671 1114 q 644 944 671 992 q 568 869 617 897 q 458 840 519 840 q 335 885 381 840 q 290 1000 290 931 q 317 1101 290 1054 q 393 1176 344 1149 q 503 1204 442 1204 m 493 1093 q 442 1074 463 1093 q 417 1017 422 1054 q 415 1003 415 1011 q 430 965 415 978 q 469 953 444 953 q 519 972 499 953 q 544 1028 539 992 q 534 1076 549 1058 q 493 1093 519 1093 z "},"ũ":{"ha":781,"x_min":50,"x_max":747,"o":"m 458 0 l 463 110 q 229 -24 360 -24 q 96 24 142 -24 q 50 158 50 72 q 54 210 50 183 l 129 738 l 344 738 l 276 246 q 274 211 274 218 q 286 165 274 178 q 325 151 299 151 q 467 271 393 151 l 532 738 l 747 738 l 644 0 l 458 0 m 549 882 q 501 891 521 882 q 451 919 482 900 q 422 938 433 932 q 397 944 410 944 q 354 929 372 944 q 313 881 336 914 l 213 939 q 300 1056 250 1011 q 407 1100 350 1100 q 459 1090 438 1100 q 507 1061 481 1079 q 533 1043 522 1049 q 557 1038 544 1038 q 598 1052 579 1038 q 640 1100 617 1067 l 742 1043 q 653 926 703 969 q 549 882 603 882 z "},"v":{"ha":699,"x_min":43,"x_max":760,"o":"m 172 0 l 43 738 l 275 738 l 325 167 l 532 738 l 760 738 l 432 0 l 172 0 z "},"w":{"ha":1026,"x_min":60,"x_max":1069,"o":"m 561 0 l 540 542 l 368 0 l 111 0 l 60 738 l 276 738 l 272 164 l 465 738 l 676 738 l 696 164 l 863 738 l 1069 738 l 817 0 l 561 0 z "},"ẃ":{"ha":1026,"x_min":60,"x_max":1069,"o":"m 561 0 l 540 542 l 368 0 l 111 0 l 60 738 l 276 738 l 272 164 l 465 738 l 676 738 l 696 164 l 863 738 l 1069 738 l 817 0 l 561 0 m 439 864 l 396 976 l 717 1160 l 779 996 l 439 864 z "},"ŵ":{"ha":1026,"x_min":60,"x_max":1069,"o":"m 561 0 l 540 542 l 368 0 l 111 0 l 60 738 l 276 738 l 272 164 l 465 738 l 676 738 l 696 164 l 863 738 l 1069 738 l 817 0 l 561 0 m 556 1142 l 688 1142 l 854 951 l 767 861 l 603 989 l 406 861 l 336 951 l 556 1142 z "},"ẅ":{"ha":1026,"x_min":60,"x_max":1069,"o":"m 561 0 l 540 542 l 368 0 l 111 0 l 60 738 l 276 738 l 272 164 l 465 738 l 676 738 l 696 164 l 863 738 l 1069 738 l 817 0 l 561 0 m 447 1110 q 519 1082 490 1110 q 547 1013 547 1054 q 510 926 547 963 q 424 890 474 890 q 353 918 381 890 q 325 988 325 946 q 362 1074 325 1038 q 447 1110 399 1110 m 764 1110 q 836 1083 808 1110 q 864 1014 864 1056 q 828 926 864 963 q 740 890 792 890 q 669 918 697 890 q 642 988 642 946 q 678 1074 642 1038 q 764 1110 715 1110 z "},"ẁ":{"ha":1026,"x_min":60,"x_max":1069,"o":"m 561 0 l 540 542 l 368 0 l 111 0 l 60 738 l 276 738 l 272 164 l 465 738 l 676 738 l 696 164 l 863 738 l 1069 738 l 817 0 l 561 0 m 731 864 l 425 996 l 532 1160 l 803 975 l 731 864 z "},"x":{"ha":697,"x_min":-67,"x_max":729,"o":"m 661 0 l 422 0 l 332 271 l 168 0 l -67 0 l 221 393 l 58 738 l 297 738 l 367 501 l 497 738 l 729 738 l 483 388 l 661 0 z "},"y":{"ha":704,"x_min":-24,"x_max":765,"o":"m 439 -3 q -18 -308 313 -290 l -24 -154 q 138 -107 83 -142 q 232 1 192 -72 l 161 0 l 43 738 l 268 738 l 317 142 l 539 738 l 765 738 l 439 -3 z "},"ý":{"ha":704,"x_min":-24,"x_max":765,"o":"m 439 -3 q -18 -308 313 -290 l -24 -154 q 138 -107 83 -142 q 232 1 192 -72 l 161 0 l 43 738 l 268 738 l 317 142 l 539 738 l 765 738 l 439 -3 m 278 864 l 235 976 l 556 1160 l 618 996 l 278 864 z "},"ŷ":{"ha":704,"x_min":-24,"x_max":765,"o":"m 439 -3 q -18 -308 313 -290 l -24 -154 q 138 -107 83 -142 q 232 1 192 -72 l 161 0 l 43 738 l 268 738 l 317 142 l 539 738 l 765 738 l 439 -3 m 394 1142 l 526 1142 l 693 951 l 606 861 l 442 989 l 244 861 l 175 951 l 394 1142 z "},"ÿ":{"ha":704,"x_min":-24,"x_max":765,"o":"m 439 -3 q -18 -308 313 -290 l -24 -154 q 138 -107 83 -142 q 232 1 192 -72 l 161 0 l 43 738 l 268 738 l 317 142 l 539 738 l 765 738 l 439 -3 m 286 1110 q 358 1082 329 1110 q 386 1013 386 1054 q 349 926 386 963 q 263 890 313 890 q 192 918 219 890 q 164 988 164 946 q 201 1074 164 1038 q 286 1110 238 1110 m 603 1110 q 675 1083 647 1110 q 703 1014 703 1056 q 667 926 703 963 q 579 890 631 890 q 508 918 536 890 q 481 988 481 946 q 517 1074 481 1038 q 603 1110 554 1110 z "},"ỳ":{"ha":704,"x_min":-24,"x_max":765,"o":"m 439 -3 q -18 -308 313 -290 l -24 -154 q 138 -107 83 -142 q 232 1 192 -72 l 161 0 l 43 738 l 268 738 l 317 142 l 539 738 l 765 738 l 439 -3 m 569 864 l 264 996 l 371 1160 l 642 975 l 569 864 z "},"z":{"ha":624,"x_min":-36,"x_max":646,"o":"m 256 167 l 574 167 l 531 0 l -36 0 l -15 156 l 356 572 l 72 572 l 96 738 l 646 738 l 625 583 l 256 167 z "},"ź":{"ha":624,"x_min":-36,"x_max":646,"o":"m 256 167 l 574 167 l 531 0 l -36 0 l -15 156 l 356 572 l 72 572 l 96 738 l 646 738 l 625 583 l 256 167 m 242 864 l 199 976 l 519 1160 l 582 996 l 242 864 z "},"ž":{"ha":624,"x_min":-36,"x_max":669,"o":"m 256 167 l 574 167 l 531 0 l -36 0 l -15 156 l 356 572 l 72 572 l 96 738 l 646 738 l 625 583 l 256 167 m 451 849 l 319 849 l 151 1039 l 235 1129 l 399 1003 l 600 1129 l 669 1039 l 451 849 z "},"ż":{"ha":624,"x_min":-36,"x_max":646,"o":"m 256 167 l 574 167 l 531 0 l -36 0 l -15 156 l 356 572 l 72 572 l 96 738 l 646 738 l 625 583 l 256 167 m 418 1126 q 502 1095 471 1126 q 533 1015 533 1064 q 492 917 533 957 q 390 876 451 876 q 308 908 339 876 q 276 986 276 939 q 317 1085 276 1044 q 418 1126 358 1126 z "},"ﬁ":{"ha":814,"x_min":-111,"x_max":781,"o":"m 678 0 l 463 0 l 544 585 l 357 585 l 286 81 q 225 -109 271 -35 q 111 -228 179 -183 q -57 -308 43 -272 l -111 -150 q 15 -71 -26 -118 q 69 72 57 -24 l 142 585 l 32 585 l 53 738 l 163 738 l 172 806 q 272 985 188 915 q 494 1054 357 1054 q 623 1039 565 1054 q 738 993 681 1024 l 663 854 q 513 892 586 892 q 423 868 453 892 q 386 792 393 844 l 379 738 l 781 738 l 678 0 z "},"ﬂ":{"ha":882,"x_min":-111,"x_max":856,"o":"m 767 150 q 803 158 778 150 l 828 4 q 688 -24 768 -24 q 561 19 606 -24 q 517 142 517 63 q 521 188 517 163 l 618 879 q 503 899 565 899 q 419 873 446 899 q 386 792 393 847 l 379 738 l 515 738 l 471 585 l 357 585 l 286 81 q 225 -109 271 -35 q 111 -228 179 -183 q -57 -308 43 -272 l -111 -150 q 15 -71 -26 -118 q 69 72 57 -24 l 142 585 l 32 585 l 53 738 l 163 738 l 172 806 q 267 985 188 917 q 479 1054 347 1054 q 654 1026 578 1054 l 856 1047 l 738 201 q 736 185 736 196 q 767 150 736 150 z "},"ª":{"ha":681,"x_min":8,"x_max":638,"o":"m 408 963 q 582 922 526 963 q 638 799 638 881 q 633 750 638 775 l 607 560 q 604 536 604 543 q 635 497 604 508 l 581 371 q 494 392 528 374 q 442 449 461 411 q 257 367 375 367 q 132 414 178 367 q 86 532 86 461 q 156 676 86 618 q 389 733 226 733 l 442 733 l 443 747 l 446 775 q 428 813 446 803 q 367 824 410 824 q 210 793 306 824 l 181 921 q 298 952 238 942 q 408 963 358 963 m 397 629 q 286 551 286 629 q 331 506 286 506 q 417 549 378 506 l 428 629 l 397 629 m 590 169 l 568 0 l 8 0 l 32 169 l 590 169 z "},"º":{"ha":681,"x_min":0,"x_max":678,"o":"m 414 963 q 608 899 538 963 q 678 719 678 836 q 647 557 678 638 q 542 422 615 476 q 351 367 469 367 q 157 431 228 367 q 86 610 86 494 q 118 774 86 693 q 224 908 150 854 q 414 963 297 963 m 408 821 q 312 753 339 821 q 285 601 285 686 q 302 531 285 553 q 357 508 319 508 q 453 577 426 508 q 479 731 479 646 q 462 800 479 779 q 408 821 444 821 m 601 169 l 578 0 l 0 0 l 24 169 l 601 169 z "},"А":{"ha":807,"x_min":-71,"x_max":774,"o":"m 239 207 l 163 0 l -71 0 l 351 963 l 622 963 l 774 0 l 538 0 l 518 207 l 239 207 m 461 810 l 300 372 l 503 372 l 461 810 z "},"Б":{"ha":815,"x_min":38,"x_max":789,"o":"m 449 619 q 701 554 613 619 q 789 360 789 489 q 747 189 789 271 q 612 53 706 107 q 369 0 518 0 l 38 0 l 172 963 l 174 963 l 764 963 l 718 790 l 372 790 l 349 619 l 449 619 m 371 165 q 509 216 465 165 q 553 347 553 267 q 411 461 553 461 l 326 461 l 285 165 l 371 165 z "},"В":{"ha":843,"x_min":38,"x_max":818,"o":"m 607 508 q 745 447 693 493 q 797 307 797 400 q 691 84 797 168 q 344 0 585 0 l 38 0 l 172 963 l 454 963 q 818 744 818 963 q 758 588 818 647 q 607 508 697 529 m 425 578 q 547 617 507 578 q 588 719 588 657 q 555 783 588 764 q 457 801 522 801 l 372 801 l 342 578 l 425 578 m 364 165 q 522 207 478 165 q 567 324 567 249 q 422 426 567 426 l 319 426 l 283 165 l 364 165 z "},"Г":{"ha":696,"x_min":39,"x_max":779,"o":"m 371 783 l 263 0 l 39 0 l 172 963 l 176 960 l 174 963 l 779 963 l 732 783 l 371 783 z "},"Ѓ":{"ha":696,"x_min":39,"x_max":779,"o":"m 371 783 l 263 0 l 39 0 l 172 963 l 176 960 l 174 963 l 779 963 l 732 783 l 371 783 m 381 1038 l 326 1149 l 636 1329 l 715 1164 l 381 1038 z "},"Ґ":{"ha":668,"x_min":39,"x_max":807,"o":"m 779 963 l 732 783 l 371 783 l 263 0 l 39 0 l 172 963 l 176 960 l 174 963 l 571 963 l 600 1167 l 807 1167 l 778 963 l 779 963 z "},"Д":{"ha":861,"x_min":-87,"x_max":843,"o":"m 814 174 l 757 -231 l 603 -231 l 610 0 l 140 0 l 67 -231 l -87 -231 l -32 174 l 21 174 q 83 247 58 203 q 129 360 108 292 q 190 583 150 428 l 211 663 l 290 963 l 843 963 l 732 174 l 814 174 m 457 794 l 429 678 q 357 420 389 515 q 289 268 325 325 q 203 174 253 211 l 515 174 l 603 794 l 457 794 z "},"Е":{"ha":718,"x_min":38,"x_max":754,"o":"m 374 800 l 340 569 l 632 569 l 611 410 l 319 410 l 285 164 l 642 164 l 619 0 l 38 0 l 172 963 l 754 963 l 707 800 l 374 800 z "},"Ѐ":{"ha":718,"x_min":38,"x_max":754,"o":"m 374 800 l 340 569 l 632 569 l 611 410 l 319 410 l 285 164 l 642 164 l 619 0 l 38 0 l 172 963 l 754 963 l 707 800 l 374 800 m 631 1039 l 307 1165 l 397 1331 l 693 1150 l 631 1039 z "},"Ё":{"ha":718,"x_min":38,"x_max":764,"o":"m 374 800 l 340 569 l 632 569 l 611 410 l 319 410 l 285 164 l 642 164 l 619 0 l 38 0 l 172 963 l 754 963 l 707 800 l 374 800 m 349 1285 q 419 1258 392 1285 q 447 1189 447 1231 q 446 1171 447 1176 q 406 1096 440 1126 q 325 1065 371 1065 q 253 1094 282 1065 q 225 1165 225 1122 q 262 1249 225 1214 q 349 1285 299 1285 m 665 1285 q 736 1258 708 1285 q 764 1189 764 1231 q 763 1171 764 1176 q 722 1096 757 1126 q 642 1065 688 1065 q 570 1094 599 1065 q 542 1165 542 1122 q 578 1249 542 1214 q 665 1285 615 1285 z "},"Ж":{"ha":1229,"x_min":-58,"x_max":1294,"o":"m 1294 829 q 1206 794 1240 819 q 1128 704 1171 769 l 994 507 l 1188 0 l 957 0 l 806 421 l 732 421 l 672 0 l 465 0 l 525 421 l 454 421 l 188 0 l -58 0 l 286 528 l 201 717 q 147 792 179 768 q 54 831 115 817 l 110 986 q 281 930 221 971 q 376 808 342 889 l 478 582 l 549 582 l 601 963 l 807 963 l 754 582 l 818 582 l 963 806 q 1043 906 1006 872 q 1126 957 1081 940 q 1249 986 1172 974 l 1294 829 z "},"З":{"ha":736,"x_min":-39,"x_max":726,"o":"m 432 986 q 648 925 569 986 q 726 763 726 864 q 663 600 726 667 q 479 510 600 533 q 636 447 581 499 q 692 303 692 394 q 637 131 692 206 q 487 17 582 57 q 272 -24 392 -24 q -39 114 65 -24 l 94 228 q 176 165 132 186 q 274 144 219 144 q 410 193 363 144 q 458 310 458 242 q 421 395 458 365 q 308 425 383 425 l 207 425 l 254 589 l 332 589 q 449 628 406 589 q 493 736 493 668 q 388 821 493 821 q 186 740 289 821 l 92 860 q 432 986 243 986 z "},"И":{"ha":907,"x_min":38,"x_max":901,"o":"m 549 0 l 599 363 q 637 563 615 476 q 693 765 658 649 l 311 0 l 38 0 l 172 963 l 390 963 l 339 601 q 298 385 319 478 q 246 203 276 293 l 633 963 l 901 963 l 767 0 l 549 0 z "},"Й":{"ha":907,"x_min":38,"x_max":901,"o":"m 549 0 l 599 363 q 637 563 615 476 q 693 765 658 649 l 311 0 l 38 0 l 172 963 l 390 963 l 339 601 q 298 385 319 478 q 246 203 276 293 l 633 963 l 901 963 l 767 0 l 549 0 m 542 1053 q 383 1113 438 1053 q 332 1269 329 1172 l 451 1286 q 482 1224 457 1243 q 553 1206 507 1206 q 683 1290 649 1206 l 801 1264 q 713 1110 781 1167 q 542 1053 644 1053 z "},"Ѝ":{"ha":907,"x_min":38,"x_max":901,"o":"m 549 0 l 599 363 q 637 563 615 476 q 693 765 658 649 l 311 0 l 38 0 l 172 963 l 390 963 l 339 601 q 298 385 319 478 q 246 203 276 293 l 633 963 l 901 963 l 767 0 l 549 0 m 703 1039 l 379 1165 l 469 1331 l 765 1150 l 703 1039 z "},"К":{"ha":854,"x_min":38,"x_max":917,"o":"m 917 829 q 830 796 864 819 q 751 708 796 772 l 611 507 l 817 0 l 585 0 l 422 421 l 321 421 l 261 0 l 38 0 l 172 963 l 396 963 l 343 582 l 436 582 l 588 810 q 667 908 631 875 q 749 958 704 942 q 871 986 793 974 l 917 829 z "},"Ќ":{"ha":854,"x_min":38,"x_max":917,"o":"m 917 829 q 830 796 864 819 q 751 708 796 772 l 611 507 l 817 0 l 585 0 l 422 421 l 321 421 l 261 0 l 38 0 l 172 963 l 396 963 l 343 582 l 436 582 l 588 810 q 667 908 631 875 q 749 958 704 942 q 871 986 793 974 l 917 829 m 413 1038 l 358 1149 l 668 1329 l 747 1164 l 413 1038 z "},"Л":{"ha":886,"x_min":-35,"x_max":881,"o":"m 522 0 l 633 790 l 440 790 l 388 575 q 282 210 328 326 q 174 44 236 94 q -3 -25 113 -6 l -35 146 q 41 190 15 163 q 95 297 67 217 q 171 567 124 378 l 274 963 l 881 963 l 746 0 l 522 0 z "},"М":{"ha":1088,"x_min":-6,"x_max":1043,"o":"m 761 0 l 796 379 q 849 788 815 590 l 608 101 l 393 101 l 331 785 q 282 371 322 585 l 214 0 l -6 0 l 201 963 l 475 963 l 528 294 l 751 963 l 1043 963 l 981 0 l 761 0 z "},"Н":{"ha":911,"x_min":38,"x_max":906,"o":"m 319 413 l 261 0 l 38 0 l 172 963 l 396 963 l 343 590 l 629 590 l 682 963 l 906 963 l 771 0 l 547 0 l 603 413 l 319 413 z "},"О":{"ha":946,"x_min":54,"x_max":924,"o":"m 557 986 q 828 883 732 986 q 924 592 924 781 q 875 306 924 446 q 714 71 826 165 q 422 -24 601 -24 q 150 80 246 -24 q 54 371 54 183 q 103 656 54 515 q 265 891 153 796 q 557 986 378 986 m 540 819 q 386 742 443 819 q 307 556 329 664 q 285 346 285 449 q 438 143 285 143 q 592 221 535 143 q 671 408 649 299 q 693 621 693 517 q 655 772 693 724 q 540 819 617 819 z "},"П":{"ha":908,"x_min":38,"x_max":903,"o":"m 544 0 l 654 788 l 372 788 l 261 0 l 38 0 l 172 963 l 903 963 l 768 0 l 544 0 z "},"Р":{"ha":821,"x_min":38,"x_max":836,"o":"m 478 963 q 742 894 649 963 q 836 694 836 826 q 793 514 836 599 q 654 375 750 429 q 411 321 558 321 l 306 321 l 261 0 l 38 0 l 172 963 l 478 963 m 411 485 q 559 544 515 485 q 603 683 603 603 q 566 772 603 744 q 456 800 529 800 l 374 800 l 329 485 l 411 485 z "},"С":{"ha":785,"x_min":54,"x_max":833,"o":"m 549 986 q 833 872 731 986 l 710 750 q 637 801 674 785 q 553 818 600 818 q 399 747 458 818 q 313 573 339 675 q 286 374 286 471 q 331 207 286 261 q 456 153 375 153 q 551 174 507 153 q 651 235 596 194 l 738 99 q 597 11 678 46 q 426 -24 517 -24 q 153 79 253 -24 q 54 374 54 182 q 106 659 54 518 q 268 893 157 800 q 549 986 379 986 z "},"Т":{"ha":736,"x_min":69,"x_max":821,"o":"m 539 788 l 429 0 l 204 0 l 315 788 l 69 788 l 94 963 l 821 963 l 772 788 l 539 788 z "},"У":{"ha":788,"x_min":67,"x_max":896,"o":"m 547 285 q 429 109 490 172 q 292 16 368 46 q 103 -24 215 -14 l 90 129 q 237 168 186 142 q 324 257 288 194 l 258 254 l 67 963 l 292 963 l 407 383 l 664 963 l 896 963 l 547 285 z "},"Ў":{"ha":788,"x_min":67,"x_max":896,"o":"m 547 285 q 429 109 490 172 q 292 16 368 46 q 103 -24 215 -14 l 90 129 q 237 168 186 142 q 324 257 288 194 l 258 254 l 67 963 l 292 963 l 407 383 l 664 963 l 896 963 l 547 285 m 482 1053 q 324 1113 378 1053 q 272 1269 269 1172 l 392 1286 q 422 1224 397 1243 q 493 1206 447 1206 q 624 1290 589 1206 l 742 1264 q 653 1110 721 1167 q 482 1053 585 1053 z "},"Ф":{"ha":1171,"x_min":42,"x_max":1161,"o":"m 1161 561 q 1112 324 1161 435 q 948 139 1063 213 q 650 58 833 65 l 633 -56 l 417 -56 l 433 60 q 145 158 249 71 q 42 404 42 244 q 91 643 42 532 q 254 827 140 754 q 551 908 368 900 l 567 1015 l 785 1015 l 769 908 q 1058 810 956 897 q 1161 561 1161 724 m 660 200 q 876 321 817 214 q 935 565 935 428 q 887 712 935 661 q 740 768 839 763 l 660 200 m 268 400 q 315 256 268 306 q 461 200 363 206 l 543 768 q 328 647 388 754 q 268 400 268 539 z "},"Х":{"ha":793,"x_min":-58,"x_max":860,"o":"m 749 0 l 507 0 l 396 375 l 183 0 l -58 0 l 278 511 l 279 513 l 99 963 l 338 963 l 429 646 l 619 963 l 860 963 l 549 519 l 547 518 l 749 0 z "},"Ч":{"ha":843,"x_min":58,"x_max":836,"o":"m 701 0 l 482 0 l 532 353 q 426 299 478 315 q 313 282 375 282 q 125 353 192 282 q 58 547 58 424 q 63 615 58 579 l 113 963 l 333 963 l 283 614 q 279 567 279 586 q 307 478 279 506 q 394 451 335 451 q 553 508 489 451 l 617 963 l 836 963 l 701 0 z "},"Ц":{"ha":950,"x_min":38,"x_max":893,"o":"m 892 174 l 836 -231 l 682 -231 l 689 0 l 38 0 l 172 963 l 396 963 l 286 178 l 558 178 l 669 963 l 893 963 l 782 174 l 892 174 z "},"Ш":{"ha":1244,"x_min":38,"x_max":1239,"o":"m 38 0 l 172 963 l 392 963 l 282 178 l 490 178 l 601 963 l 810 963 l 700 178 l 908 178 l 1019 963 l 1239 963 l 1104 0 l 38 0 z "},"Щ":{"ha":1279,"x_min":38,"x_max":1239,"o":"m 1236 174 l 1181 -231 l 1026 -231 l 1033 0 l 38 0 l 172 963 l 392 963 l 282 178 l 490 178 l 601 963 l 810 963 l 700 178 l 908 178 l 1019 963 l 1239 963 l 1128 174 l 1236 174 z "},"Џ":{"ha":899,"x_min":38,"x_max":893,"o":"m 485 0 l 453 -231 l 299 -231 l 306 0 l 38 0 l 172 963 l 396 963 l 286 178 l 558 178 l 669 963 l 893 963 l 758 0 l 485 0 z "},"Я":{"ha":825,"x_min":-54,"x_max":819,"o":"m 685 0 l 461 0 l 510 347 l 396 349 l 192 0 l -54 0 l 197 392 q 101 478 135 424 q 68 606 68 533 q 166 858 68 754 q 503 963 264 963 l 819 963 l 685 0 m 493 803 q 347 745 389 803 q 304 615 304 688 q 338 534 304 563 q 428 506 371 506 l 531 506 l 572 803 l 493 803 z "},"Ь":{"ha":813,"x_min":38,"x_max":790,"o":"m 450 635 q 701 566 613 635 q 790 365 790 497 q 747 188 790 271 q 610 53 704 106 q 369 0 515 0 l 38 0 l 172 963 l 396 963 l 350 635 l 450 635 m 371 165 q 513 221 471 165 q 554 351 554 276 q 414 476 554 476 l 328 476 l 285 165 l 371 165 z "},"Ъ":{"ha":956,"x_min":58,"x_max":933,"o":"m 593 635 q 844 566 756 635 q 933 365 933 497 q 890 188 933 271 q 753 53 847 106 q 513 0 658 0 l 181 0 l 290 790 l 58 790 l 83 963 l 539 963 l 493 635 l 593 635 m 514 165 q 656 221 614 165 q 697 351 697 276 q 556 476 697 476 l 471 476 l 428 165 l 514 165 z "},"Ы":{"ha":1165,"x_min":38,"x_max":1160,"o":"m 436 635 q 688 566 599 635 q 776 365 776 497 q 733 188 776 271 q 596 53 690 106 q 356 0 501 0 l 38 0 l 172 963 l 396 963 l 350 635 l 436 635 m 1025 0 l 801 0 l 936 963 l 1160 963 l 1025 0 m 357 165 q 499 221 457 165 q 540 351 540 276 q 400 476 540 476 l 328 476 l 285 165 l 357 165 z "},"Љ":{"ha":1267,"x_min":-35,"x_max":1244,"o":"m 904 635 q 1156 566 1067 635 q 1244 365 1244 497 q 1201 188 1244 271 q 1065 53 1158 106 q 825 0 971 0 l 506 0 l 617 790 l 440 790 l 388 575 q 282 210 328 326 q 174 44 236 94 q -3 -25 113 -6 l -35 146 q 41 190 15 163 q 95 298 67 217 q 171 567 124 379 l 271 963 l 865 963 l 819 635 l 904 635 m 825 165 q 967 221 925 165 q 1010 351 1010 276 q 868 476 1010 476 l 797 476 l 753 165 l 825 165 z "},"Њ":{"ha":1301,"x_min":38,"x_max":1278,"o":"m 938 615 q 1189 547 1100 615 q 1278 353 1278 479 q 1235 185 1278 265 q 1097 52 1192 104 q 857 0 1003 0 l 539 0 l 603 453 l 325 453 l 261 0 l 38 0 l 172 963 l 396 963 l 347 615 l 625 615 l 674 963 l 897 963 l 850 615 l 938 615 m 858 165 q 1000 219 958 165 q 1042 339 1042 272 q 901 457 1042 457 l 828 457 l 786 165 l 858 165 z "},"Ѕ":{"ha":781,"x_min":-22,"x_max":790,"o":"m 475 986 q 790 860 671 986 l 671 740 q 476 819 588 819 q 371 791 411 819 q 331 713 331 763 q 345 665 331 685 q 393 629 360 646 q 492 589 426 613 q 676 485 614 549 q 739 315 739 421 q 699 156 739 233 q 566 27 658 78 q 328 -24 474 -24 q 124 15 211 -24 q -22 117 38 53 l 107 244 q 328 150 199 150 q 455 185 407 150 q 503 278 503 219 q 469 356 503 326 q 351 417 436 386 q 156 525 217 460 q 96 688 96 590 q 137 831 96 763 q 263 942 178 899 q 475 986 349 986 z "},"Є":{"ha":783,"x_min":54,"x_max":835,"o":"m 449 147 q 553 169 506 147 q 656 232 601 192 l 738 100 q 595 11 678 46 q 417 -24 513 -24 q 151 79 247 -24 q 54 374 54 182 q 104 657 54 517 q 267 892 154 797 q 554 986 379 986 q 714 958 647 986 q 835 874 781 931 l 711 753 q 635 804 674 788 q 550 821 596 821 q 397 758 464 821 q 301 574 331 696 l 626 574 l 604 413 l 279 413 q 276 364 276 396 q 324 203 276 258 q 449 147 371 147 z "},"Э":{"ha":742,"x_min":-28,"x_max":721,"o":"m 388 986 q 634 890 547 986 q 721 608 721 794 q 675 312 721 456 q 523 72 629 168 q 247 -24 417 -24 q 88 7 157 -24 q -28 92 19 38 l 88 214 q 160 163 124 179 q 247 147 197 147 q 399 220 343 147 q 478 413 454 293 l 153 413 l 174 574 l 496 574 l 497 631 q 462 776 497 731 q 354 821 426 821 q 262 803 303 821 q 169 749 221 786 l 78 878 q 220 960 147 933 q 388 986 293 986 z "},"І":{"ha":403,"x_min":38,"x_max":397,"o":"m 38 0 l 172 963 l 397 963 l 263 0 l 38 0 z "},"Ї":{"ha":403,"x_min":38,"x_max":583,"o":"m 38 0 l 172 963 l 397 963 l 263 0 l 38 0 m 168 1285 q 239 1258 211 1285 q 267 1189 267 1231 q 265 1171 267 1176 q 225 1096 260 1126 q 144 1065 190 1065 q 73 1094 101 1065 q 44 1165 44 1122 q 81 1249 44 1214 q 168 1285 118 1285 m 485 1285 q 556 1258 528 1285 q 583 1189 583 1231 q 582 1171 583 1176 q 542 1096 576 1126 q 461 1065 507 1065 q 390 1094 418 1065 q 361 1165 361 1122 q 398 1249 361 1214 q 485 1285 435 1285 z "},"Ј":{"ha":431,"x_min":-82,"x_max":429,"o":"m 315 144 q 248 -46 299 29 q 126 -163 197 -121 q -42 -236 54 -206 l -82 -74 q 16 -19 -19 -50 q 67 53 51 13 q 92 157 83 94 l 206 963 l 429 963 l 315 144 z "},"Ћ":{"ha":968,"x_min":69,"x_max":931,"o":"m 671 653 q 864 583 797 653 q 931 389 931 514 q 925 315 931 350 l 881 0 l 657 0 l 701 319 q 706 372 706 349 q 678 457 706 429 q 593 485 651 485 q 432 419 501 485 l 372 0 l 149 0 l 260 790 l 69 790 l 94 963 l 819 963 l 774 790 l 483 790 l 454 579 q 671 653 550 653 z "},"Ю":{"ha":1274,"x_min":38,"x_max":1251,"o":"m 897 986 q 1160 885 1069 986 q 1251 590 1251 783 q 1203 310 1251 450 q 1046 73 1156 169 q 763 -24 936 -24 q 507 77 593 -24 q 421 363 421 178 l 422 410 l 319 410 l 261 0 l 38 0 l 172 963 l 396 963 l 343 588 l 446 588 q 598 875 488 764 q 897 986 708 986 m 778 143 q 925 223 871 143 q 1000 413 979 303 q 1021 629 1021 524 q 986 774 1021 729 q 882 819 951 819 q 736 740 790 819 q 661 550 682 660 q 640 338 640 440 q 778 143 640 143 z "},"Ђ":{"ha":1025,"x_min":69,"x_max":988,"o":"m 726 653 q 920 583 853 653 q 988 389 988 514 q 982 315 988 349 l 958 144 q 891 -46 942 29 q 769 -163 840 -121 q 603 -236 699 -206 l 561 -74 q 659 -19 624 -50 q 711 53 694 13 q 736 157 728 94 l 758 319 q 763 371 763 347 q 735 457 763 429 q 650 485 707 485 q 488 418 558 485 l 429 0 l 204 0 l 315 790 l 69 790 l 94 963 l 819 963 l 774 790 l 539 790 l 510 579 q 609 635 557 617 q 726 653 661 653 z "},"Ѣ":{"ha":971,"x_min":69,"x_max":946,"o":"m 606 635 q 857 566 768 635 q 946 365 946 497 q 903 188 946 271 q 765 53 860 106 q 525 0 671 0 l 193 0 l 304 790 l 69 790 l 94 963 l 819 963 l 774 790 l 528 790 l 506 635 l 606 635 m 526 165 q 668 221 626 165 q 710 351 710 276 q 568 476 710 476 l 483 476 l 440 165 l 526 165 z "},"Ѳ":{"ha":944,"x_min":54,"x_max":924,"o":"m 556 986 q 828 883 732 986 q 924 592 924 781 q 915 476 924 538 q 826 209 893 322 q 656 36 760 96 q 422 -24 553 -24 q 150 79 246 -24 q 54 371 54 182 q 63 486 54 426 q 150 754 83 642 q 321 926 217 867 q 556 986 425 986 m 540 819 q 299 551 357 819 l 699 551 q 700 613 700 574 q 659 769 700 719 q 540 819 618 819 m 438 143 q 681 424 626 143 l 281 424 q 278 353 278 399 q 438 143 278 143 z "},"Ѵ":{"ha":775,"x_min":65,"x_max":896,"o":"m 896 935 q 841 851 864 893 q 790 739 818 810 l 482 0 l 204 0 l 65 963 l 301 963 l 369 174 l 589 793 q 634 901 614 861 q 682 979 654 940 l 896 935 z "},"Ғ":{"ha":704,"x_min":4,"x_max":789,"o":"m 353 590 l 549 590 l 529 454 l 333 454 l 271 0 l 47 0 l 110 454 l 4 454 l 24 590 l 129 590 l 181 963 l 185 960 l 182 963 l 789 963 l 740 783 l 379 783 l 353 590 z "},"Җ":{"ha":1229,"x_min":-58,"x_max":1294,"o":"m 1268 174 l 1213 -231 l 1058 -231 l 1065 0 l 957 0 l 806 421 l 732 421 l 672 0 l 465 0 l 525 421 l 454 421 l 188 0 l -58 0 l 286 528 l 201 717 q 147 792 179 768 q 54 831 115 817 l 110 986 q 281 930 221 971 q 376 808 342 889 l 478 582 l 549 582 l 601 963 l 807 963 l 754 582 l 818 582 l 963 806 q 1043 906 1006 872 q 1126 957 1081 940 q 1249 986 1172 974 l 1294 829 q 1206 794 1240 819 q 1128 704 1171 769 l 994 507 l 1121 174 l 1268 174 z "},"Ҙ":{"ha":736,"x_min":-39,"x_max":726,"o":"m 726 763 q 663 600 726 667 q 479 510 600 533 q 636 447 581 499 q 692 303 692 394 l 690 279 q 591 82 681 160 q 361 -17 501 4 q 456 -165 456 -76 q 431 -257 456 -212 q 356 -329 406 -301 q 232 -357 306 -357 q 85 -321 150 -357 l 139 -214 q 219 -235 178 -235 q 288 -209 264 -235 q 313 -142 313 -183 q 243 -22 313 -79 q -39 114 58 -14 l 94 228 q 176 165 132 186 q 274 144 219 144 q 410 193 363 144 q 458 310 458 242 q 421 395 458 365 q 308 425 383 425 l 207 425 l 254 589 l 332 589 q 449 628 406 589 q 493 736 493 668 q 388 821 493 821 q 186 740 289 821 l 92 860 q 432 986 243 986 q 648 925 569 986 q 726 763 726 864 z "},"Қ":{"ha":854,"x_min":38,"x_max":917,"o":"m 893 174 l 838 -231 l 683 -231 l 690 0 l 585 0 l 422 421 l 321 421 l 261 0 l 38 0 l 172 963 l 396 963 l 343 582 l 436 582 l 588 810 q 667 908 631 875 q 749 958 704 942 q 871 986 793 974 l 917 829 q 830 796 864 819 q 751 708 796 772 l 611 507 l 746 174 l 893 174 z "},"Ҝ":{"ha":864,"x_min":38,"x_max":933,"o":"m 933 829 q 843 792 879 819 q 769 699 807 765 l 663 507 l 833 0 l 603 0 l 474 421 l 440 421 l 411 204 l 326 204 l 357 421 l 321 421 l 261 0 l 38 0 l 172 963 l 396 963 l 343 582 l 379 582 l 410 796 l 493 796 l 464 582 l 488 582 l 599 792 q 672 897 633 858 q 761 954 711 935 q 888 986 811 974 l 933 829 z "},"Ҡ":{"ha":967,"x_min":58,"x_max":1031,"o":"m 931 0 l 700 0 l 538 421 l 435 421 l 376 0 l 153 0 l 264 790 l 58 790 l 83 963 l 511 963 l 458 582 l 550 582 l 701 810 q 781 908 744 875 q 863 958 818 942 q 985 986 908 974 l 1031 829 q 944 796 978 819 q 865 708 911 772 l 726 507 l 931 0 z "},"Ң":{"ha":943,"x_min":38,"x_max":906,"o":"m 904 174 l 849 -231 l 694 -231 l 701 0 l 547 0 l 603 413 l 319 413 l 261 0 l 38 0 l 172 963 l 396 963 l 343 590 l 629 590 l 682 963 l 906 963 l 794 174 l 904 174 z "},"Ԥ":{"ha":940,"x_min":38,"x_max":903,"o":"m 901 174 l 846 -231 l 692 -231 l 699 0 l 544 0 l 654 788 l 372 788 l 261 0 l 38 0 l 172 963 l 903 963 l 792 174 l 901 174 z "},"Ҫ":{"ha":785,"x_min":54,"x_max":833,"o":"m 738 99 q 622 22 688 54 q 483 -19 557 -10 q 574 -165 574 -79 q 549 -257 574 -212 q 474 -329 524 -301 q 350 -357 424 -357 q 203 -321 268 -357 l 257 -214 q 338 -235 296 -235 q 406 -209 382 -235 q 431 -142 431 -183 q 356 -19 431 -76 q 133 101 213 0 q 54 374 54 203 q 106 659 54 518 q 268 893 157 800 q 549 986 379 986 q 833 872 731 986 l 710 750 q 637 801 674 785 q 553 818 600 818 q 399 747 458 818 q 313 573 339 675 q 286 374 286 471 q 331 207 286 261 q 456 153 375 153 q 551 174 507 153 q 651 235 596 194 l 738 99 z "},"Ҭ":{"ha":736,"x_min":69,"x_max":821,"o":"m 453 174 l 561 174 l 506 -231 l 351 -231 l 358 0 l 204 0 l 315 788 l 69 788 l 94 963 l 821 963 l 772 788 l 539 788 l 453 174 z "},"Ү":{"ha":811,"x_min":74,"x_max":906,"o":"m 467 0 l 242 0 l 293 360 l 74 963 l 313 963 l 429 539 l 664 963 l 906 963 l 517 361 l 467 0 z "},"Ұ":{"ha":811,"x_min":74,"x_max":906,"o":"m 740 438 l 722 308 l 510 308 l 467 0 l 242 0 l 286 308 l 189 308 l 207 438 l 265 438 l 74 963 l 313 963 l 429 539 l 664 963 l 906 963 l 567 438 l 740 438 z "},"Ҳ":{"ha":793,"x_min":-58,"x_max":860,"o":"m 782 174 l 726 -231 l 572 -231 l 579 0 l 507 0 l 396 375 l 183 0 l -58 0 l 278 511 l 279 513 l 99 963 l 338 963 l 429 646 l 619 963 l 860 963 l 549 519 l 547 518 l 682 174 l 782 174 z "},"Ҷ":{"ha":878,"x_min":58,"x_max":843,"o":"m 788 -231 l 632 -231 l 639 0 l 482 0 l 532 353 q 426 299 478 315 q 313 282 375 282 q 125 353 192 282 q 58 547 58 424 q 63 615 58 579 l 113 963 l 333 963 l 283 614 q 279 567 279 586 q 307 478 279 506 q 394 451 335 451 q 553 508 489 451 l 617 963 l 836 963 l 725 174 l 843 174 l 788 -231 z "},"Ҹ":{"ha":843,"x_min":58,"x_max":836,"o":"m 701 0 l 482 0 l 532 353 q 433 301 476 315 l 415 171 l 329 171 l 344 283 l 313 282 q 125 353 192 282 q 58 547 58 424 q 63 615 58 581 l 113 963 l 333 963 l 283 614 q 279 567 279 588 q 301 485 279 513 q 368 453 322 458 l 411 763 l 499 763 l 456 458 q 553 508 508 471 l 617 963 l 836 963 l 701 0 z "},"Һ":{"ha":856,"x_min":38,"x_max":819,"o":"m 560 653 q 753 583 686 653 q 819 389 819 514 q 814 315 819 350 l 771 0 l 546 0 l 590 319 q 594 372 594 349 q 567 457 594 429 q 482 485 540 485 q 321 419 390 485 l 261 0 l 38 0 l 172 954 l 396 954 l 343 579 q 560 653 439 653 z "},"Ԧ":{"ha":932,"x_min":38,"x_max":903,"o":"m 847 -231 l 693 -231 l 700 0 l 546 0 l 590 319 q 594 372 594 349 q 567 457 594 429 q 482 485 540 485 q 321 419 390 485 l 261 0 l 38 0 l 172 954 l 396 954 l 343 579 q 560 653 439 653 q 753 583 686 653 q 819 389 819 514 q 814 315 819 350 l 794 174 l 903 174 l 847 -231 z "},"Ӏ":{"ha":403,"x_min":38,"x_max":397,"o":"m 38 0 l 172 963 l 397 963 l 263 0 l 38 0 z "},"Ӂ":{"ha":1229,"x_min":-58,"x_max":1294,"o":"m 1294 829 q 1206 794 1240 819 q 1128 704 1171 769 l 994 507 l 1188 0 l 957 0 l 806 421 l 732 421 l 672 0 l 465 0 l 525 421 l 454 421 l 188 0 l -58 0 l 286 528 l 201 717 q 147 792 179 768 q 54 831 115 817 l 110 986 q 281 930 221 971 q 376 808 342 889 l 478 582 l 549 582 l 601 963 l 807 963 l 754 582 l 818 582 l 963 806 q 1043 906 1006 872 q 1126 957 1081 940 q 1249 986 1172 974 l 1294 829 m 710 1053 q 551 1113 606 1053 q 500 1269 497 1172 l 619 1286 q 650 1224 625 1243 q 721 1206 675 1206 q 851 1290 817 1206 l 969 1264 q 881 1110 949 1167 q 710 1053 813 1053 z "},"Ӌ":{"ha":843,"x_min":58,"x_max":836,"o":"m 701 0 l 550 0 l 475 -231 l 321 -231 l 376 174 l 506 174 l 532 353 q 426 299 478 315 q 313 282 375 282 q 125 353 192 282 q 58 547 58 424 q 63 615 58 579 l 113 963 l 333 963 l 283 614 q 279 567 279 586 q 307 478 279 506 q 394 451 335 451 q 553 508 489 451 l 617 963 l 836 963 l 701 0 z "},"Ӑ":{"ha":807,"x_min":-71,"x_max":774,"o":"m 239 207 l 163 0 l -71 0 l 351 963 l 622 963 l 774 0 l 538 0 l 518 207 l 239 207 m 461 810 l 300 372 l 503 372 l 461 810 m 492 1053 q 333 1113 388 1053 q 282 1269 279 1172 l 401 1286 q 432 1224 407 1243 q 503 1206 457 1206 q 633 1290 599 1206 l 751 1264 q 663 1110 731 1167 q 492 1053 594 1053 z "},"Ӓ":{"ha":807,"x_min":-71,"x_max":786,"o":"m 239 207 l 163 0 l -71 0 l 351 963 l 622 963 l 774 0 l 538 0 l 518 207 l 239 207 m 461 810 l 300 372 l 503 372 l 461 810 m 371 1285 q 442 1258 414 1285 q 469 1189 469 1231 q 468 1171 469 1176 q 428 1096 463 1126 q 347 1065 393 1065 q 276 1094 304 1065 q 247 1165 247 1122 q 284 1249 247 1214 q 371 1285 321 1285 m 688 1285 q 758 1258 731 1285 q 786 1189 786 1231 q 785 1171 786 1176 q 744 1096 779 1126 q 664 1065 710 1065 q 592 1094 621 1065 q 564 1165 564 1122 q 601 1249 564 1214 q 688 1285 638 1285 z "},"Ӗ":{"ha":718,"x_min":38,"x_max":754,"o":"m 374 800 l 340 569 l 632 569 l 611 410 l 319 410 l 285 164 l 642 164 l 619 0 l 38 0 l 172 963 l 754 963 l 707 800 l 374 800 m 469 1053 q 311 1113 365 1053 q 260 1269 257 1172 l 379 1286 q 410 1224 385 1243 q 481 1206 435 1206 q 611 1290 576 1206 l 729 1264 q 640 1110 708 1167 q 469 1053 572 1053 z "},"Ә":{"ha":872,"x_min":36,"x_max":854,"o":"m 504 986 q 763 890 672 986 q 854 608 854 794 q 844 485 854 563 q 686 106 808 235 q 379 -24 564 -24 q 122 73 208 -24 q 36 346 36 169 q 65 564 36 463 l 628 563 q 632 629 632 599 q 469 819 632 819 q 349 797 404 819 q 242 735 294 774 l 153 865 q 317 956 232 926 q 504 986 403 986 m 389 143 q 528 205 474 143 q 606 406 582 267 l 251 403 q 246 319 246 363 q 283 185 246 226 q 389 143 319 143 z "},"Ӛ":{"ha":872,"x_min":36,"x_max":854,"o":"m 504 986 q 763 890 672 986 q 854 608 854 794 q 844 485 854 563 q 686 106 808 235 q 379 -24 564 -24 q 122 73 208 -24 q 36 346 36 169 q 65 564 36 463 l 628 563 q 632 629 632 599 q 469 819 632 819 q 349 797 404 819 q 242 735 294 774 l 153 865 q 317 956 232 926 q 504 986 403 986 m 389 143 q 528 205 474 143 q 606 406 582 267 l 251 403 q 246 319 246 363 q 283 185 246 226 q 389 143 319 143 m 388 1285 q 458 1258 431 1285 q 486 1189 486 1231 q 485 1171 486 1176 q 444 1096 479 1126 q 364 1065 410 1065 q 292 1094 321 1065 q 264 1165 264 1122 q 301 1249 264 1214 q 388 1285 338 1285 m 704 1285 q 775 1258 747 1285 q 803 1189 803 1231 q 801 1171 803 1176 q 761 1096 796 1126 q 681 1065 726 1065 q 609 1094 638 1065 q 581 1165 581 1122 q 617 1249 581 1214 q 704 1285 654 1285 z "},"Ӝ":{"ha":1229,"x_min":-58,"x_max":1294,"o":"m 1294 829 q 1206 794 1240 819 q 1128 704 1171 769 l 994 507 l 1188 0 l 957 0 l 806 421 l 732 421 l 672 0 l 465 0 l 525 421 l 454 421 l 188 0 l -58 0 l 286 528 l 201 717 q 147 792 179 768 q 54 831 115 817 l 110 986 q 281 930 221 971 q 376 808 342 889 l 478 582 l 549 582 l 601 963 l 807 963 l 754 582 l 818 582 l 963 806 q 1043 906 1006 872 q 1126 957 1081 940 q 1249 986 1172 974 l 1294 829 m 589 1285 q 660 1258 632 1285 q 688 1189 688 1231 q 686 1171 688 1176 q 646 1096 681 1126 q 565 1065 611 1065 q 494 1094 522 1065 q 465 1165 465 1122 q 502 1249 465 1214 q 589 1285 539 1285 m 906 1285 q 976 1258 949 1285 q 1004 1189 1004 1231 q 1003 1171 1004 1176 q 963 1096 997 1126 q 882 1065 928 1065 q 810 1094 839 1065 q 782 1165 782 1122 q 819 1249 782 1214 q 906 1285 856 1285 z "},"Ӟ":{"ha":736,"x_min":-39,"x_max":743,"o":"m 432 986 q 648 925 569 986 q 726 763 726 864 q 663 600 726 667 q 479 510 600 533 q 636 447 581 499 q 692 303 692 394 q 637 131 692 206 q 487 17 582 57 q 272 -24 392 -24 q -39 114 65 -24 l 94 228 q 176 165 132 186 q 274 144 219 144 q 410 193 363 144 q 458 310 458 242 q 421 395 458 365 q 308 425 383 425 l 207 425 l 254 589 l 332 589 q 449 628 406 589 q 493 736 493 668 q 388 821 493 821 q 186 740 289 821 l 92 860 q 432 986 243 986 m 328 1285 q 399 1258 371 1285 q 426 1189 426 1231 q 425 1171 426 1176 q 385 1096 419 1126 q 304 1065 350 1065 q 233 1094 261 1065 q 204 1165 204 1122 q 241 1249 204 1214 q 328 1285 278 1285 m 644 1285 q 715 1258 688 1285 q 743 1189 743 1231 q 742 1171 743 1176 q 701 1096 736 1126 q 621 1065 667 1065 q 549 1094 578 1065 q 521 1165 521 1122 q 558 1249 521 1214 q 644 1285 594 1285 z "},"Ӣ":{"ha":907,"x_min":38,"x_max":901,"o":"m 549 0 l 599 363 q 637 563 615 476 q 693 765 658 649 l 311 0 l 38 0 l 172 963 l 390 963 l 339 601 q 298 385 319 478 q 246 203 276 293 l 633 963 l 901 963 l 767 0 l 549 0 m 367 1238 l 785 1238 l 763 1085 l 344 1085 l 367 1238 z "},"Ӥ":{"ha":907,"x_min":38,"x_max":901,"o":"m 549 0 l 599 363 q 637 563 615 476 q 693 765 658 649 l 311 0 l 38 0 l 172 963 l 390 963 l 339 601 q 298 385 319 478 q 246 203 276 293 l 633 963 l 901 963 l 767 0 l 549 0 m 421 1285 q 492 1258 464 1285 q 519 1189 519 1231 q 518 1171 519 1176 q 478 1096 513 1126 q 397 1065 443 1065 q 326 1094 354 1065 q 297 1165 297 1122 q 334 1249 297 1214 q 421 1285 371 1285 m 738 1285 q 808 1258 781 1285 q 836 1189 836 1231 q 835 1171 836 1176 q 794 1096 829 1126 q 714 1065 760 1065 q 642 1094 671 1065 q 614 1165 614 1122 q 651 1249 614 1214 q 738 1285 688 1285 z "},"Ӧ":{"ha":946,"x_min":54,"x_max":924,"o":"m 557 986 q 828 883 732 986 q 924 592 924 781 q 875 306 924 446 q 714 71 826 165 q 422 -24 601 -24 q 150 80 246 -24 q 54 371 54 183 q 103 656 54 515 q 265 891 153 796 q 557 986 378 986 m 540 819 q 386 742 443 819 q 307 556 329 664 q 285 346 285 449 q 438 143 285 143 q 592 221 535 143 q 671 408 649 299 q 693 621 693 517 q 655 772 693 724 q 540 819 617 819 m 442 1285 q 513 1258 485 1285 q 540 1189 540 1231 q 539 1171 540 1176 q 499 1096 533 1126 q 418 1065 464 1065 q 347 1094 375 1065 q 318 1165 318 1122 q 355 1249 318 1214 q 442 1285 392 1285 m 758 1285 q 829 1258 801 1285 q 857 1189 857 1231 q 856 1171 857 1176 q 815 1096 850 1126 q 735 1065 781 1065 q 663 1094 692 1065 q 635 1165 635 1122 q 672 1249 635 1214 q 758 1285 708 1285 z "},"Ө":{"ha":944,"x_min":54,"x_max":924,"o":"m 556 986 q 828 883 732 986 q 924 592 924 781 q 915 476 924 538 q 826 209 893 322 q 656 36 760 96 q 422 -24 553 -24 q 150 79 246 -24 q 54 371 54 182 q 63 486 54 426 q 150 754 83 642 q 321 926 217 867 q 556 986 425 986 m 540 819 q 299 551 357 819 l 699 551 q 700 613 700 574 q 659 769 700 719 q 540 819 618 819 m 438 143 q 681 424 626 143 l 281 424 q 278 353 278 399 q 438 143 278 143 z "},"Ӫ":{"ha":944,"x_min":54,"x_max":924,"o":"m 556 986 q 828 883 732 986 q 924 592 924 781 q 915 476 924 538 q 826 209 893 322 q 656 36 760 96 q 422 -24 553 -24 q 150 79 246 -24 q 54 371 54 182 q 63 486 54 426 q 150 754 83 642 q 321 926 217 867 q 556 986 425 986 m 540 819 q 299 551 357 819 l 699 551 q 700 613 700 574 q 659 769 700 719 q 540 819 618 819 m 438 143 q 681 424 626 143 l 281 424 q 278 353 278 399 q 438 143 278 143 m 439 1285 q 510 1258 482 1285 q 538 1189 538 1231 q 536 1171 538 1176 q 496 1096 531 1126 q 415 1065 461 1065 q 344 1094 372 1065 q 315 1165 315 1122 q 352 1249 315 1214 q 439 1285 389 1285 m 756 1285 q 826 1258 799 1285 q 854 1189 854 1231 q 853 1171 854 1176 q 813 1096 847 1126 q 732 1065 778 1065 q 660 1094 689 1065 q 632 1165 632 1122 q 669 1249 632 1214 q 756 1285 706 1285 z "},"Ӭ":{"ha":742,"x_min":-28,"x_max":721,"o":"m 388 986 q 634 890 547 986 q 721 608 721 794 q 675 312 721 456 q 523 72 629 168 q 247 -24 417 -24 q 88 7 157 -24 q -28 92 19 38 l 88 214 q 160 163 124 179 q 247 147 197 147 q 399 220 343 147 q 478 413 454 293 l 153 413 l 174 574 l 496 574 l 497 631 q 462 776 497 731 q 354 821 426 821 q 262 803 303 821 q 169 749 221 786 l 78 878 q 220 960 147 933 q 388 986 293 986 m 293 1285 q 364 1258 336 1285 q 392 1189 392 1231 q 390 1171 392 1176 q 350 1096 385 1126 q 269 1065 315 1065 q 198 1094 226 1065 q 169 1165 169 1122 q 206 1249 169 1214 q 293 1285 243 1285 m 610 1285 q 681 1258 653 1285 q 708 1189 708 1231 q 707 1171 708 1176 q 667 1096 701 1126 q 586 1065 632 1065 q 515 1094 543 1065 q 486 1165 486 1122 q 523 1249 486 1214 q 610 1285 560 1285 z "},"Ӯ":{"ha":788,"x_min":67,"x_max":896,"o":"m 547 285 q 429 109 490 172 q 292 16 368 46 q 103 -24 215 -14 l 90 129 q 237 168 186 142 q 324 257 288 194 l 258 254 l 67 963 l 292 963 l 407 383 l 664 963 l 896 963 l 547 285 m 307 1238 l 725 1238 l 703 1085 l 285 1085 l 307 1238 z "},"Ӱ":{"ha":788,"x_min":67,"x_max":896,"o":"m 547 285 q 429 109 490 172 q 292 16 368 46 q 103 -24 215 -14 l 90 129 q 237 168 186 142 q 324 257 288 194 l 258 254 l 67 963 l 292 963 l 407 383 l 664 963 l 896 963 l 547 285 m 361 1285 q 432 1258 404 1285 q 460 1189 460 1231 q 458 1171 460 1176 q 418 1096 453 1126 q 338 1065 383 1065 q 266 1094 294 1065 q 238 1165 238 1122 q 274 1249 238 1214 q 361 1285 311 1285 m 678 1285 q 749 1258 721 1285 q 776 1189 776 1231 q 775 1171 776 1176 q 735 1096 769 1126 q 654 1065 700 1065 q 583 1094 611 1065 q 554 1165 554 1122 q 591 1249 554 1214 q 678 1285 628 1285 z "},"Ӳ":{"ha":788,"x_min":67,"x_max":896,"o":"m 547 285 q 429 109 490 172 q 292 16 368 46 q 103 -24 215 -14 l 90 129 q 237 168 186 142 q 324 257 288 194 l 258 254 l 67 963 l 292 963 l 407 383 l 664 963 l 896 963 l 547 285 m 353 1050 l 244 1096 l 403 1369 l 540 1300 l 353 1050 m 579 1043 l 474 1096 l 643 1369 l 779 1296 l 579 1043 z "},"Ӵ":{"ha":843,"x_min":58,"x_max":836,"o":"m 701 0 l 482 0 l 532 353 q 426 299 478 315 q 313 282 375 282 q 125 353 192 282 q 58 547 58 424 q 63 615 58 579 l 113 963 l 333 963 l 283 614 q 279 567 279 586 q 307 478 279 506 q 394 451 335 451 q 553 508 489 451 l 617 963 l 836 963 l 701 0 m 358 1285 q 429 1258 401 1285 q 457 1189 457 1231 q 456 1171 457 1176 q 415 1096 450 1126 q 335 1065 381 1065 q 263 1094 292 1065 q 235 1165 235 1122 q 272 1249 235 1214 q 358 1285 308 1285 m 675 1285 q 746 1258 718 1285 q 774 1189 774 1231 q 772 1171 774 1176 q 732 1096 767 1126 q 651 1065 697 1065 q 580 1094 608 1065 q 551 1165 551 1122 q 588 1249 551 1214 q 675 1285 625 1285 z "},"Ӷ":{"ha":696,"x_min":39,"x_max":779,"o":"m 286 174 l 394 174 l 339 -231 l 185 -231 l 192 0 l 39 0 l 172 963 l 176 960 l 174 963 l 779 963 l 732 783 l 371 783 l 286 174 z "},"Ӹ":{"ha":1165,"x_min":38,"x_max":1160,"o":"m 436 635 q 688 566 599 635 q 776 365 776 497 q 733 188 776 271 q 596 53 690 106 q 356 0 501 0 l 38 0 l 172 963 l 396 963 l 350 635 l 436 635 m 1025 0 l 801 0 l 936 963 l 1160 963 l 1025 0 m 357 165 q 499 221 457 165 q 540 351 540 276 q 400 476 540 476 l 328 476 l 285 165 l 357 165 m 550 1285 q 621 1258 593 1285 q 649 1189 649 1231 q 647 1171 649 1176 q 607 1096 642 1126 q 526 1065 572 1065 q 455 1094 483 1065 q 426 1165 426 1122 q 463 1249 426 1214 q 550 1285 500 1285 m 867 1285 q 938 1258 910 1285 q 965 1189 965 1231 q 964 1171 965 1176 q 924 1096 958 1126 q 843 1065 889 1065 q 772 1094 800 1065 q 743 1165 743 1122 q 780 1249 743 1214 q 867 1285 817 1285 z "},"Ԝ":{"ha":1163,"x_min":99,"x_max":1231,"o":"m 647 0 l 632 735 l 403 0 l 119 0 l 99 963 l 319 963 l 303 172 l 546 963 l 782 963 l 794 172 l 1015 963 l 1231 963 l 938 0 l 647 0 z "},"а":{"ha":794,"x_min":35,"x_max":761,"o":"m 458 761 q 761 683 619 761 l 690 211 q 688 181 688 189 q 697 143 688 156 q 726 122 707 131 l 665 -19 q 555 16 600 -14 q 494 103 510 46 q 276 -24 406 -24 q 97 55 158 -24 q 35 269 35 133 q 78 499 35 386 q 217 686 121 611 q 458 761 313 761 m 453 606 q 341 554 385 606 q 278 426 297 503 q 258 271 258 350 q 281 167 258 197 q 343 138 303 138 q 482 240 415 138 l 535 592 q 453 606 494 606 z "},"б":{"ha":794,"x_min":50,"x_max":751,"o":"m 519 694 q 639 660 586 694 q 722 563 692 626 q 751 413 751 499 q 711 210 751 311 q 583 43 671 110 q 360 -24 494 -24 q 134 72 218 -24 q 50 342 50 167 q 128 732 50 558 q 425 956 207 906 q 568 997 521 978 q 672 1056 615 1015 l 743 919 q 633 857 689 881 q 488 814 576 833 q 342 740 394 793 q 269 563 290 686 q 519 694 374 694 m 367 138 q 491 224 454 138 q 528 419 528 310 q 439 540 528 540 q 344 506 393 540 q 258 414 296 472 q 254 300 254 360 q 284 181 254 224 q 367 138 314 138 z "},"в":{"ha":768,"x_min":36,"x_max":725,"o":"m 468 761 q 652 715 579 761 q 725 588 725 668 q 575 393 725 458 q 681 335 642 375 q 721 231 721 296 q 674 90 721 147 q 549 5 626 33 q 385 -24 472 -24 q 131 61 225 -24 q 36 304 36 146 q 87 522 36 417 q 235 694 138 626 q 468 761 333 761 m 453 619 q 336 567 385 619 q 267 431 288 514 q 522 556 522 454 q 505 603 522 586 q 453 619 488 619 m 432 350 q 253 321 354 332 l 253 299 q 286 172 253 217 q 386 128 319 128 q 472 157 439 128 q 504 242 504 186 q 485 303 504 278 q 432 350 467 329 z "},"г":{"ha":657,"x_min":-6,"x_max":629,"o":"m 364 761 q 557 707 485 761 q 629 565 629 653 q 575 419 629 483 q 388 314 521 356 q 281 273 317 292 q 233 237 244 254 q 222 196 222 219 q 244 150 222 167 q 308 133 267 133 q 415 154 361 133 q 515 210 469 175 l 607 85 q 459 6 546 35 q 278 -24 372 -24 q 74 35 153 -24 q -6 192 -6 94 q 54 342 -6 279 q 264 450 114 404 q 361 487 329 469 q 403 519 393 504 q 413 553 413 533 q 393 590 413 576 q 335 604 374 604 q 158 546 250 604 l 86 671 q 216 738 143 714 q 364 761 289 761 z "},"ѓ":{"ha":657,"x_min":-6,"x_max":629,"o":"m 364 761 q 557 707 485 761 q 629 565 629 653 q 575 419 629 483 q 388 314 521 356 q 281 273 317 292 q 233 237 244 254 q 222 196 222 219 q 244 150 222 167 q 308 133 267 133 q 415 154 361 133 q 515 210 469 175 l 607 85 q 459 6 546 35 q 278 -24 372 -24 q 74 35 153 -24 q -6 192 -6 94 q 54 342 -6 279 q 264 450 114 404 q 361 487 329 469 q 403 519 393 504 q 413 553 413 533 q 393 590 413 576 q 335 604 374 604 q 158 546 250 604 l 86 671 q 216 738 143 714 q 364 761 289 761 m 261 864 l 218 976 l 539 1160 l 601 996 l 261 864 z "},"ґ":{"ha":646,"x_min":33,"x_max":679,"o":"m 650 738 l 600 571 l 329 571 l 249 0 l 33 0 l 136 738 l 454 738 l 483 949 l 679 949 l 650 738 z "},"д":{"ha":785,"x_min":35,"x_max":754,"o":"m 247 1053 q 571 984 461 1040 q 717 828 681 928 q 754 563 754 729 q 749 476 754 529 q 739 388 744 424 q 617 90 714 203 q 347 -24 521 -24 q 188 13 258 -24 q 76 117 117 49 q 35 279 35 186 q 71 478 35 383 q 182 634 107 574 q 368 694 257 694 q 544 618 472 694 q 519 785 550 728 q 416 869 489 843 q 201 906 343 894 l 247 1053 m 411 540 q 290 458 325 540 q 254 274 254 376 q 281 171 254 206 q 357 136 308 136 q 522 361 489 136 q 533 475 531 408 q 411 540 486 540 z "},"е":{"ha":743,"x_min":38,"x_max":728,"o":"m 728 560 q 597 354 728 419 q 254 268 465 289 q 386 138 261 138 q 477 154 432 138 q 574 206 522 171 l 651 75 q 358 -24 515 -24 q 119 60 201 -24 q 38 289 38 144 q 80 508 38 400 q 217 689 122 617 q 456 761 311 761 q 656 704 585 761 q 728 560 728 647 m 264 401 q 451 452 392 411 q 510 547 510 493 q 492 596 510 576 q 435 615 475 615 q 322 554 364 615 q 264 401 281 493 z "},"ѐ":{"ha":743,"x_min":38,"x_max":728,"o":"m 728 560 q 597 354 728 419 q 254 268 465 289 q 386 138 261 138 q 477 154 432 138 q 574 206 522 171 l 651 75 q 358 -24 515 -24 q 119 60 201 -24 q 38 289 38 144 q 80 508 38 400 q 217 689 122 617 q 456 761 311 761 q 656 704 585 761 q 728 560 728 647 m 264 401 q 451 452 392 411 q 510 547 510 493 q 492 596 510 576 q 435 615 475 615 q 322 554 364 615 q 264 401 281 493 m 603 864 l 297 996 l 404 1160 l 675 975 l 603 864 z "},"ё":{"ha":743,"x_min":38,"x_max":738,"o":"m 728 560 q 597 354 728 419 q 254 268 465 289 q 386 138 261 138 q 477 154 432 138 q 574 206 522 171 l 651 75 q 358 -24 515 -24 q 119 60 201 -24 q 38 289 38 144 q 80 508 38 400 q 217 689 122 617 q 456 761 311 761 q 656 704 585 761 q 728 560 728 647 m 264 401 q 451 452 392 411 q 510 547 510 493 q 492 596 510 576 q 435 615 475 615 q 322 554 364 615 q 264 401 281 493 m 321 1110 q 392 1082 364 1110 q 421 1013 421 1054 q 384 926 421 963 q 297 890 347 890 q 226 918 254 890 q 199 988 199 946 q 235 1074 199 1038 q 321 1110 272 1110 m 638 1110 q 710 1083 682 1110 q 738 1014 738 1056 q 701 926 738 963 q 614 890 665 890 q 543 918 571 890 q 515 988 515 946 q 552 1074 515 1038 q 638 1110 589 1110 z "},"ж":{"ha":1065,"x_min":-28,"x_max":1072,"o":"m 1072 619 q 988 574 1018 601 q 926 493 957 547 l 864 382 l 985 0 l 776 0 l 688 315 l 621 315 l 578 0 l 389 0 l 433 315 l 368 315 l 192 0 l -28 0 l 215 397 l 164 535 q 128 588 150 569 q 60 621 106 607 l 115 761 q 260 701 214 736 q 332 592 306 665 l 385 447 l 451 447 l 492 738 l 681 738 l 640 447 l 706 447 l 792 599 q 881 708 836 675 q 1014 761 925 742 l 1072 619 z "},"з":{"ha":676,"x_min":-25,"x_max":626,"o":"m 365 761 q 553 711 479 761 q 626 575 626 661 q 582 460 626 508 q 443 392 538 411 q 571 338 526 382 q 615 224 615 294 q 578 102 615 158 q 463 11 542 46 q 264 -24 385 -24 q -25 68 89 -24 l 82 190 q 169 147 128 160 q 260 133 210 133 q 358 160 325 133 q 392 231 392 188 q 279 308 392 308 l 164 308 l 196 450 l 279 450 q 374 476 340 450 q 407 543 407 503 q 318 610 407 610 q 234 596 272 610 q 153 554 196 582 l 67 676 q 206 740 133 719 q 365 761 278 761 z "},"и":{"ha":781,"x_min":50,"x_max":747,"o":"m 458 0 l 463 110 q 229 -24 360 -24 q 96 24 142 -24 q 50 158 50 72 q 54 210 50 183 l 129 738 l 344 738 l 276 246 q 274 211 274 218 q 286 165 274 178 q 325 151 299 151 q 467 271 393 151 l 532 738 l 747 738 l 644 0 l 458 0 z "},"й":{"ha":781,"x_min":50,"x_max":747,"o":"m 458 0 l 463 110 q 229 -24 360 -24 q 96 24 142 -24 q 50 158 50 72 q 54 210 50 183 l 129 738 l 344 738 l 276 246 q 274 211 274 218 q 286 165 274 178 q 325 151 299 151 q 467 271 393 151 l 532 738 l 747 738 l 644 0 l 458 0 m 471 878 q 312 938 367 878 q 260 1094 257 997 l 379 1111 q 410 1049 385 1068 q 482 1031 435 1031 q 563 1051 531 1031 q 613 1115 594 1072 l 731 1089 q 642 935 710 992 q 471 878 574 878 z "},"ѝ":{"ha":781,"x_min":50,"x_max":747,"o":"m 458 0 l 463 110 q 229 -24 360 -24 q 96 24 142 -24 q 50 158 50 72 q 54 210 50 183 l 129 738 l 344 738 l 276 246 q 274 211 274 218 q 286 165 274 178 q 325 151 299 151 q 467 271 393 151 l 532 738 l 747 738 l 644 0 l 458 0 m 606 864 l 300 996 l 407 1160 l 678 975 l 606 864 z "},"к":{"ha":758,"x_min":33,"x_max":760,"o":"m 760 604 q 680 560 708 586 q 613 475 651 533 l 547 375 l 692 0 l 469 0 l 357 315 l 293 315 l 249 0 l 33 0 l 136 738 l 351 738 l 311 447 l 374 447 l 475 601 q 569 709 524 676 q 701 761 614 742 l 760 604 z "},"ќ":{"ha":758,"x_min":33,"x_max":760,"o":"m 760 604 q 680 560 708 586 q 613 475 651 533 l 547 375 l 692 0 l 469 0 l 357 315 l 293 315 l 249 0 l 33 0 l 136 738 l 351 738 l 311 447 l 374 447 l 475 601 q 569 709 524 676 q 701 761 614 742 l 760 604 m 318 864 l 275 976 l 596 1160 l 658 996 l 318 864 z "},"л":{"ha":779,"x_min":-17,"x_max":746,"o":"m 429 0 l 508 576 l 372 576 l 343 446 q 271 174 300 257 q 185 44 242 92 q 14 -21 128 -3 l -17 143 q 54 181 32 158 q 93 258 76 203 q 138 446 110 313 l 199 738 l 746 738 l 643 0 l 429 0 z "},"м":{"ha":919,"x_min":-11,"x_max":867,"o":"m 624 0 l 644 267 q 662 408 651 347 q 693 560 672 468 l 504 75 l 325 75 l 275 560 q 242 261 269 410 l 192 0 l -11 0 l 154 738 l 407 738 l 440 263 l 610 738 l 867 738 l 828 0 l 624 0 z "},"н":{"ha":800,"x_min":33,"x_max":767,"o":"m 290 293 l 249 0 l 33 0 l 136 738 l 351 738 l 313 456 l 513 456 l 551 738 l 767 738 l 664 0 l 449 0 l 490 293 l 290 293 z "},"о":{"ha":797,"x_min":39,"x_max":758,"o":"m 450 761 q 676 678 594 761 q 758 451 758 594 q 718 229 758 338 q 585 49 678 121 q 347 -24 493 -24 q 120 60 201 -24 q 39 290 39 143 q 79 512 39 404 q 212 690 119 619 q 450 761 304 761 m 435 600 q 299 497 339 600 q 260 276 260 394 q 285 171 260 204 q 363 138 311 138 q 498 242 460 138 q 536 467 536 347 q 511 568 536 536 q 435 600 486 600 z "},"п":{"ha":796,"x_min":33,"x_max":763,"o":"m 329 575 l 249 0 l 33 0 l 136 738 l 763 738 l 660 0 l 444 0 l 524 575 l 329 575 z "},"р":{"ha":815,"x_min":-10,"x_max":771,"o":"m 544 761 q 713 687 656 761 q 771 474 771 613 q 732 242 771 356 q 606 52 693 128 q 381 -24 518 -24 q 246 -4 307 -24 l 208 -286 l -10 -310 l 136 738 l 326 738 l 326 656 q 544 761 425 761 m 461 600 q 321 515 388 600 l 271 154 q 364 136 317 136 q 469 188 428 136 q 531 316 511 239 q 550 469 550 393 q 526 571 550 542 q 461 600 503 600 z "},"с":{"ha":651,"x_min":36,"x_max":685,"o":"m 449 761 q 685 667 593 761 l 579 542 q 518 581 549 569 q 450 593 488 593 q 306 499 349 593 q 263 286 263 406 q 292 181 263 213 q 378 150 322 150 q 448 163 415 150 q 525 201 481 175 l 604 61 q 351 -24 489 -24 q 119 62 203 -24 q 36 294 36 147 q 80 508 36 400 q 217 688 124 615 q 449 761 310 761 z "},"т":{"ha":1154,"x_min":33,"x_max":1103,"o":"m 938 761 q 1059 714 1015 761 q 1103 583 1103 667 q 1100 536 1103 553 l 1025 0 l 810 0 l 882 488 q 885 524 885 501 q 839 582 885 582 q 767 538 804 582 q 696 417 731 493 l 636 0 l 421 0 l 493 488 q 496 524 496 501 q 450 582 496 582 q 376 535 415 582 q 306 408 338 488 l 249 0 l 33 0 l 136 738 l 324 738 l 319 618 q 424 724 365 686 q 549 761 483 761 q 658 726 615 761 q 713 624 701 690 q 817 724 757 688 q 938 761 876 761 z "},"у":{"ha":704,"x_min":-24,"x_max":765,"o":"m 439 -3 q -18 -308 313 -290 l -24 -154 q 138 -107 83 -142 q 232 1 192 -72 l 161 0 l 43 738 l 268 738 l 317 142 l 539 738 l 765 738 l 439 -3 z "},"ў":{"ha":704,"x_min":-24,"x_max":765,"o":"m 439 -3 q -18 -308 313 -290 l -24 -154 q 138 -107 83 -142 q 232 1 192 -72 l 161 0 l 43 738 l 268 738 l 317 142 l 539 738 l 765 738 l 439 -3 m 429 878 q 270 938 325 878 q 218 1094 215 997 l 338 1111 q 368 1049 343 1068 q 440 1031 393 1031 q 521 1051 489 1031 q 571 1115 553 1072 l 689 1089 q 600 935 668 992 q 429 878 532 878 z "},"ф":{"ha":1153,"x_min":44,"x_max":1108,"o":"m 719 689 q 899 761 793 761 q 1056 690 1004 761 q 1108 489 1108 618 q 1076 247 1108 364 q 972 53 1043 129 q 790 -24 900 -24 q 632 60 685 -24 l 583 -286 l 378 -310 l 428 53 q 254 -24 354 -24 q 100 55 156 -24 q 44 276 44 133 q 74 499 44 389 q 175 685 104 610 q 361 761 246 761 q 517 686 460 761 l 568 1054 l 768 1031 l 719 689 m 407 603 q 296 494 329 603 q 263 268 263 386 q 281 166 263 197 q 333 135 299 135 q 449 201 393 135 l 497 546 q 407 603 463 603 m 815 603 q 756 587 783 603 q 700 539 729 571 l 650 193 q 688 149 668 163 q 739 135 708 135 q 828 194 794 135 q 875 333 861 253 q 889 486 889 414 q 872 575 889 547 q 815 603 854 603 z "},"х":{"ha":697,"x_min":-67,"x_max":729,"o":"m 661 0 l 422 0 l 332 271 l 168 0 l -67 0 l 221 393 l 58 738 l 297 738 l 367 501 l 497 738 l 729 738 l 483 388 l 661 0 z "},"ч":{"ha":751,"x_min":51,"x_max":718,"o":"m 400 0 l 440 293 q 264 222 360 231 q 232 221 254 221 q 97 269 142 221 q 51 407 51 317 q 56 471 51 438 l 92 738 l 307 738 l 272 490 q 269 454 269 463 q 285 400 269 417 q 332 383 301 383 q 402 403 367 383 q 463 456 438 424 l 503 738 l 718 738 l 615 0 l 400 0 z "},"ц":{"ha":824,"x_min":54,"x_max":793,"o":"m 739 -231 l 589 -231 l 596 0 l 463 0 l 468 110 q 233 -24 363 -24 q 100 24 146 -24 q 54 158 54 72 q 58 210 54 183 l 133 738 l 349 738 l 281 246 q 278 211 278 218 q 290 165 278 178 q 329 151 303 151 q 471 271 397 151 l 536 738 l 751 738 l 671 161 l 793 161 l 739 -231 z "},"ш":{"ha":1154,"x_min":50,"x_max":1121,"o":"m 1018 0 l 831 0 l 833 121 q 729 15 789 53 q 606 -24 669 -24 q 495 13 539 -24 q 442 114 451 49 q 337 13 397 50 q 217 -24 276 -24 q 94 24 139 -24 q 50 154 50 71 q 53 201 50 185 l 128 738 l 344 738 l 272 250 q 269 213 269 236 q 281 168 269 181 q 315 156 293 156 q 387 201 350 156 q 458 325 424 246 l 517 738 l 732 738 l 660 250 q 657 215 657 222 q 669 169 657 182 q 704 156 682 156 q 777 203 739 156 q 847 329 815 250 l 904 738 l 1121 738 l 1018 0 z "},"щ":{"ha":1196,"x_min":51,"x_max":1165,"o":"m 1110 -231 l 961 -231 l 968 0 l 832 0 l 835 121 q 731 15 790 53 q 607 -24 671 -24 q 497 13 540 -24 q 443 114 453 49 q 338 13 399 50 q 218 -24 278 -24 q 96 24 140 -24 q 51 154 51 71 q 54 201 51 185 l 129 738 l 346 738 l 274 250 q 271 213 271 236 q 283 168 271 181 q 317 156 294 156 q 388 201 351 156 q 460 325 425 246 l 518 738 l 733 738 l 661 250 q 658 215 658 222 q 671 169 658 182 q 706 156 683 156 q 778 203 740 156 q 849 329 817 250 l 906 738 l 1122 738 l 1042 161 l 1165 161 l 1110 -231 z "},"џ":{"ha":781,"x_min":50,"x_max":747,"o":"m 644 0 l 458 0 l 463 110 q 311 -10 393 19 l 282 -231 l 136 -231 l 147 -10 q 74 51 99 8 q 50 158 50 94 q 54 210 50 183 l 129 738 l 344 738 l 276 246 q 274 211 274 218 q 286 165 274 178 q 325 151 299 151 q 467 271 393 151 l 532 738 l 747 738 l 644 0 z "},"я":{"ha":760,"x_min":-49,"x_max":724,"o":"m 442 761 q 724 729 589 761 l 624 0 l 408 0 l 444 257 l 363 257 l 197 0 l -49 0 l 172 308 q 101 388 126 342 q 76 488 76 433 q 111 619 76 558 q 227 721 146 681 q 442 761 308 761 m 439 618 q 332 580 365 618 q 299 482 299 542 q 393 388 299 388 l 464 388 l 496 613 q 439 618 468 618 z "},"ь":{"ha":711,"x_min":38,"x_max":678,"o":"m 369 508 q 678 281 678 508 q 642 138 678 207 q 526 22 606 68 q 321 -24 446 -24 q 178 -12 246 -24 q 38 22 111 -1 l 136 738 l 351 738 l 319 508 l 369 508 m 324 121 q 428 167 396 121 q 461 276 461 214 q 435 344 461 321 q 350 368 410 368 l 300 368 l 268 128 q 324 121 303 121 z "},"ъ":{"ha":822,"x_min":25,"x_max":788,"o":"m 479 508 q 788 281 788 508 q 752 138 788 207 q 636 22 717 68 q 431 -24 556 -24 q 288 -12 356 -24 q 147 22 221 -1 l 224 581 l 25 581 l 47 738 l 461 738 l 429 508 l 479 508 m 433 121 q 538 167 506 121 q 571 276 571 214 q 546 345 571 322 q 460 368 521 368 l 410 368 l 378 128 q 433 121 413 121 z "},"ы":{"ha":1039,"x_min":38,"x_max":1006,"o":"m 367 508 q 590 450 517 508 q 664 281 664 392 q 628 138 664 208 q 515 22 593 68 q 318 -24 438 -24 q 38 22 183 -24 l 136 738 l 351 738 l 319 508 l 367 508 m 685 0 l 790 738 l 1006 738 l 903 0 l 685 0 m 321 121 q 417 168 386 121 q 447 276 447 215 q 424 344 447 321 q 347 368 401 368 l 300 368 l 268 128 q 321 121 303 121 z "},"љ":{"ha":1085,"x_min":-17,"x_max":1051,"o":"m 754 508 q 978 450 904 508 q 1051 281 1051 392 q 1016 138 1051 208 q 903 22 981 68 q 706 -24 825 -24 q 568 -12 633 -24 q 429 22 503 -1 l 506 576 l 369 576 l 343 446 q 274 177 304 263 q 186 44 244 92 q 14 -21 128 -3 l -17 143 q 54 181 32 158 q 93 258 76 203 q 138 446 110 313 l 199 738 l 739 738 l 707 508 l 754 508 m 656 128 q 708 121 690 121 q 804 168 774 121 q 835 276 835 215 q 812 344 835 321 q 735 368 789 368 l 688 368 l 656 128 z "},"њ":{"ha":1113,"x_min":33,"x_max":1078,"o":"m 778 479 q 1003 421 928 479 q 1078 254 1078 363 q 1042 128 1078 192 q 928 20 1007 64 q 731 -24 850 -24 q 450 22 599 -24 l 493 329 l 294 329 l 249 0 l 33 0 l 136 738 l 351 738 l 315 478 l 514 478 l 550 738 l 765 738 l 729 479 l 778 479 m 735 121 q 830 161 799 121 q 861 249 861 201 q 758 339 861 339 l 710 339 l 681 128 q 735 121 715 121 z "},"ѕ":{"ha":657,"x_min":-25,"x_max":646,"o":"m 379 761 q 526 735 454 761 q 646 667 599 710 l 549 544 q 469 589 515 574 q 379 604 424 604 q 279 544 279 604 q 291 513 279 525 q 331 488 303 500 q 421 457 358 476 q 565 372 517 426 q 613 232 613 318 q 576 103 613 161 q 466 11 540 46 q 282 -24 392 -24 q 106 10 186 -24 q -25 97 25 43 l 88 214 q 174 156 124 178 q 282 133 224 133 q 368 154 339 133 q 397 207 397 175 q 385 247 397 232 q 344 274 374 261 q 251 310 315 288 q 64 525 64 374 q 101 643 64 589 q 208 729 138 697 q 379 761 279 761 z "},"є":{"ha":663,"x_min":38,"x_max":690,"o":"m 443 761 q 690 667 593 761 l 583 551 q 520 591 553 579 q 449 603 488 603 q 333 561 381 603 q 268 439 286 519 l 533 439 l 515 313 l 250 313 q 247 276 247 288 q 278 177 247 215 q 379 139 310 139 q 452 152 417 139 q 529 194 488 165 l 607 63 q 357 -24 489 -24 q 121 61 204 -24 q 38 293 38 146 q 43 369 38 335 q 113 574 60 486 q 251 712 167 663 q 443 761 336 761 z "},"э":{"ha":660,"x_min":-28,"x_max":621,"o":"m 326 761 q 543 676 465 761 q 621 443 621 590 q 615 361 621 419 q 489 77 590 178 q 217 -24 388 -24 q -28 67 74 -24 l 78 188 q 144 148 113 160 q 215 136 176 136 q 326 178 279 136 q 390 313 374 221 l 131 313 l 149 439 l 406 439 q 407 471 407 453 q 294 603 407 603 q 218 590 254 603 q 142 551 182 578 l 61 675 q 185 740 121 718 q 326 761 250 761 z "},"і":{"ha":386,"x_min":33,"x_max":410,"o":"m 294 1126 q 378 1095 347 1126 q 410 1015 410 1064 q 369 917 410 957 q 267 876 328 876 q 184 908 215 876 q 153 986 153 939 q 194 1085 153 1044 q 294 1126 235 1126 m 33 0 l 136 738 l 353 738 l 250 0 l 33 0 z "},"ї":{"ha":386,"x_min":4,"x_max":543,"o":"m 33 0 l 136 738 l 353 738 l 250 0 l 33 0 m 126 1110 q 198 1082 169 1110 q 226 1013 226 1054 q 190 926 226 963 q 103 890 153 890 q 32 918 60 890 q 4 988 4 946 q 41 1074 4 1038 q 126 1110 78 1110 m 443 1110 q 515 1083 488 1110 q 543 1014 543 1056 q 507 926 543 963 q 419 890 471 890 q 349 918 376 890 q 321 988 321 946 q 358 1074 321 1038 q 443 1110 394 1110 z "},"ј":{"ha":379,"x_min":-144,"x_max":404,"o":"m 289 1126 q 373 1095 342 1126 q 404 1015 404 1064 q 363 917 404 957 q 261 876 322 876 q 178 908 210 876 q 147 986 147 939 q 188 1085 147 1044 q 289 1126 229 1126 m 254 81 q 192 -109 239 -35 q 78 -228 146 -183 q -90 -308 10 -272 l -144 -150 q -17 -71 -60 -118 q 38 72 25 -24 l 131 738 l 346 738 l 254 81 z "},"ћ":{"ha":801,"x_min":46,"x_max":750,"o":"m 579 761 q 705 714 660 761 q 750 583 750 667 q 747 536 750 553 l 672 0 l 457 0 l 529 488 q 532 522 532 513 q 519 569 532 557 q 481 582 506 582 q 401 535 443 582 q 319 406 360 488 l 261 0 l 46 0 l 163 828 l 78 828 l 96 956 l 179 956 l 190 1031 l 408 1053 l 394 956 l 586 956 l 550 828 l 376 828 l 346 611 q 450 720 386 679 q 579 761 514 761 z "},"ю":{"ha":1124,"x_min":33,"x_max":1088,"o":"m 788 761 q 1008 678 928 761 q 1088 451 1088 594 q 1047 230 1088 339 q 917 49 1007 121 q 686 -24 826 -24 q 466 60 544 -24 q 386 299 388 143 l 292 299 l 250 0 l 33 0 l 136 738 l 353 738 l 313 450 l 406 450 q 538 674 444 586 q 788 761 631 761 m 771 600 q 673 547 710 600 q 621 419 636 493 q 606 276 606 344 q 701 138 606 138 q 828 240 790 138 q 867 461 865 343 q 842 567 867 533 q 771 600 818 600 z "},"ђ":{"ha":806,"x_min":46,"x_max":750,"o":"m 579 761 q 705 715 660 761 q 750 583 750 668 q 747 536 750 553 l 685 81 q 623 -109 669 -35 q 508 -228 576 -183 q 340 -308 440 -272 l 285 -150 q 408 -76 365 -118 q 464 53 451 -33 l 529 488 q 532 522 532 513 q 519 569 532 557 q 481 582 506 582 q 401 535 443 582 q 319 406 360 488 l 261 0 l 46 0 l 163 828 l 78 828 l 96 956 l 181 956 l 190 1031 l 408 1053 l 394 956 l 586 956 l 550 828 l 376 828 l 346 611 q 450 720 386 679 q 579 761 514 761 z "},"ѣ":{"ha":729,"x_min":53,"x_max":696,"o":"m 386 508 q 696 281 696 508 q 660 138 696 207 q 543 22 624 68 q 338 -24 463 -24 q 197 -12 264 -24 q 54 22 129 -1 l 140 638 l 53 638 l 69 765 l 157 765 l 178 913 l 396 935 l 372 765 l 554 765 l 519 638 l 354 638 l 336 508 l 386 508 m 342 121 q 447 168 414 121 q 479 276 479 215 q 453 344 479 321 q 367 368 428 368 l 317 368 l 285 128 q 342 121 319 121 z "},"ѳ":{"ha":797,"x_min":36,"x_max":760,"o":"m 450 761 q 678 678 596 761 q 760 450 760 594 q 719 229 760 338 q 585 49 678 121 q 347 -24 493 -24 q 118 60 200 -24 q 36 290 36 143 q 77 512 36 404 q 211 690 118 619 q 450 761 304 761 m 435 600 q 330 555 369 600 q 272 436 290 510 l 542 436 l 543 463 q 435 600 543 600 m 363 138 q 469 186 429 138 q 528 314 510 235 l 256 314 q 254 276 254 300 q 363 138 254 138 z "},"ѵ":{"ha":699,"x_min":43,"x_max":774,"o":"m 774 721 q 722 643 746 685 q 665 528 697 601 l 431 0 l 172 0 l 43 738 l 271 738 l 324 176 l 478 585 q 522 690 501 651 q 565 753 543 729 l 774 721 z "},"ғ":{"ha":657,"x_min":-6,"x_max":628,"o":"m 307 133 q 414 154 360 133 q 514 210 468 175 l 607 85 q 458 6 546 35 q 276 -24 371 -24 q 131 3 194 -24 q 31 76 67 29 q -6 186 -6 124 q 26 295 -6 249 q 132 376 57 342 l 39 401 l 67 503 l 246 440 q 357 483 321 464 q 403 517 393 501 q 413 551 413 532 q 393 590 413 576 q 335 604 374 604 q 158 546 249 604 l 85 671 q 215 738 142 714 q 364 761 288 761 q 556 707 483 761 q 628 565 628 653 q 594 456 628 504 q 475 371 560 408 l 569 344 l 543 244 l 356 308 q 247 256 272 281 q 221 197 221 231 q 244 151 221 168 q 307 133 267 133 z "},"җ":{"ha":1065,"x_min":-28,"x_max":1072,"o":"m 1054 161 l 1000 -231 l 851 -231 l 858 0 l 776 0 l 688 315 l 621 315 l 578 0 l 389 0 l 433 315 l 368 315 l 192 0 l -28 0 l 215 397 l 164 535 q 128 588 150 569 q 60 621 106 607 l 115 761 q 260 701 214 736 q 332 592 306 665 l 385 447 l 451 447 l 492 738 l 681 738 l 640 447 l 706 447 l 792 599 q 881 708 836 675 q 1014 761 925 742 l 1072 619 q 988 574 1018 601 q 926 493 957 547 l 864 382 l 933 161 l 1054 161 z "},"ҙ":{"ha":676,"x_min":-25,"x_max":626,"o":"m 443 392 q 571 338 526 382 q 615 224 615 294 q 546 64 615 132 q 335 -19 476 -4 q 425 -165 425 -79 q 400 -257 425 -212 q 325 -329 375 -301 q 201 -357 275 -357 q 54 -321 119 -357 l 108 -214 q 189 -235 147 -235 q 258 -209 233 -235 q 282 -142 282 -183 q 211 -21 282 -78 q -25 68 69 -8 l 82 190 q 169 147 128 160 q 260 133 210 133 q 358 160 325 133 q 392 231 392 188 q 279 308 392 308 l 164 308 l 196 450 l 279 450 q 374 476 340 450 q 407 543 407 503 q 318 610 407 610 q 234 596 272 610 q 153 554 196 582 l 67 676 q 206 740 133 719 q 365 761 278 761 q 553 711 479 761 q 626 575 626 661 q 582 460 626 508 q 443 392 538 411 z "},"қ":{"ha":758,"x_min":33,"x_max":765,"o":"m 711 -231 l 563 -231 l 569 0 l 469 0 l 357 315 l 293 315 l 249 0 l 33 0 l 136 738 l 351 738 l 311 447 l 374 447 l 475 601 q 569 709 524 676 q 701 761 614 742 l 760 604 q 680 560 708 586 q 613 475 651 533 l 547 375 l 629 161 l 765 161 l 711 -231 z "},"ҝ":{"ha":796,"x_min":33,"x_max":788,"o":"m 497 0 l 404 315 l 381 315 l 358 163 l 294 163 l 317 315 l 282 315 l 239 0 l 33 0 l 136 738 l 342 738 l 301 447 l 335 447 l 357 601 l 421 601 l 399 447 l 421 447 l 503 601 q 590 708 542 675 q 729 761 638 742 l 788 604 q 708 560 735 586 q 646 475 681 533 l 586 375 l 719 0 l 497 0 z "},"ҡ":{"ha":821,"x_min":25,"x_max":871,"o":"m 801 0 l 579 0 l 468 315 l 403 315 l 358 0 l 143 0 l 224 581 l 25 581 l 47 738 l 461 738 l 422 447 l 483 447 l 585 601 q 679 708 633 675 q 813 761 725 742 l 871 604 q 790 560 818 586 q 722 475 761 533 l 657 375 l 801 0 z "},"ң":{"ha":833,"x_min":33,"x_max":796,"o":"m 742 -231 l 593 -231 l 600 0 l 449 0 l 490 293 l 290 293 l 249 0 l 33 0 l 136 738 l 351 738 l 313 456 l 513 456 l 551 738 l 767 738 l 686 161 l 796 161 l 742 -231 z "},"ԥ":{"ha":828,"x_min":33,"x_max":792,"o":"m 738 -231 l 589 -231 l 596 0 l 444 0 l 524 575 l 329 575 l 249 0 l 33 0 l 136 738 l 763 738 l 682 161 l 792 161 l 738 -231 z "},"ҫ":{"ha":651,"x_min":36,"x_max":685,"o":"m 604 61 q 400 -21 507 -10 q 489 -165 489 -78 q 464 -257 489 -212 q 389 -329 439 -301 q 265 -357 339 -357 q 118 -321 183 -357 l 172 -214 q 253 -235 211 -235 q 322 -209 297 -235 q 346 -142 346 -183 q 267 -15 346 -74 q 97 88 157 7 q 36 294 36 169 q 80 508 36 400 q 217 688 124 615 q 449 761 310 761 q 685 667 593 761 l 579 542 q 518 581 549 569 q 450 593 488 593 q 306 499 349 593 q 263 286 263 406 q 292 181 263 213 q 378 150 322 150 q 448 163 415 150 q 525 201 481 175 l 604 61 z "},"ҭ":{"ha":1200,"x_min":33,"x_max":1157,"o":"m 1103 -231 l 954 -231 l 961 0 l 810 0 l 882 488 q 885 524 885 501 q 839 582 885 582 q 767 538 804 582 q 696 417 731 493 l 636 0 l 421 0 l 493 488 q 496 524 496 501 q 450 582 496 582 q 376 535 415 582 q 306 408 338 488 l 249 0 l 33 0 l 136 738 l 324 738 l 319 618 q 424 724 365 686 q 549 761 483 761 q 658 726 615 761 q 713 624 701 690 q 817 724 757 688 q 938 761 876 761 q 1059 714 1015 761 q 1103 583 1103 667 q 1100 536 1103 553 l 1047 161 l 1157 161 l 1103 -231 z "},"ү":{"ha":699,"x_min":43,"x_max":760,"o":"m 363 -285 l 150 -308 l 194 8 l 43 738 l 278 738 l 328 192 l 539 738 l 760 738 l 404 8 l 363 -285 z "},"ұ":{"ha":699,"x_min":43,"x_max":760,"o":"m 535 -7 l 401 -7 l 363 -285 l 150 -308 l 193 -7 l 61 -7 l 78 115 l 193 115 l 43 738 l 278 738 l 328 211 l 539 738 l 760 738 l 436 115 l 551 115 l 535 -7 z "},"ҳ":{"ha":697,"x_min":-67,"x_max":729,"o":"m 697 161 l 643 -231 l 494 -231 l 501 0 l 422 0 l 332 271 l 168 0 l -67 0 l 221 393 l 58 738 l 297 738 l 367 501 l 497 738 l 729 738 l 483 388 l 588 161 l 697 161 z "},"ҷ":{"ha":751,"x_min":51,"x_max":747,"o":"m 693 -231 l 544 -231 l 551 0 l 400 0 l 440 293 q 264 222 360 231 q 232 221 254 221 q 97 269 142 221 q 51 407 51 317 q 56 471 51 438 l 92 738 l 307 738 l 272 490 q 269 454 269 463 q 285 400 269 417 q 332 383 301 383 q 402 403 367 383 q 463 456 438 424 l 503 738 l 718 738 l 638 161 l 747 161 l 693 -231 z "},"ҹ":{"ha":751,"x_min":51,"x_max":718,"o":"m 615 0 l 400 0 l 440 293 q 365 247 411 269 l 347 118 l 276 118 l 292 226 q 240 221 269 221 l 232 221 q 97 269 142 221 q 51 407 51 317 q 56 471 51 438 l 92 738 l 307 738 l 272 490 q 269 454 269 463 q 314 385 269 393 l 338 551 l 407 551 l 386 396 q 463 456 431 415 l 503 738 l 718 738 l 615 0 z "},"һ":{"ha":781,"x_min":33,"x_max":726,"o":"m 556 678 q 681 631 636 678 q 726 500 726 583 q 724 453 726 469 l 660 0 l 443 0 l 504 404 q 507 442 507 418 q 494 486 507 474 q 456 499 481 499 q 378 451 419 499 q 294 322 336 404 l 249 0 l 33 0 l 178 1031 l 396 1053 l 321 528 q 426 637 361 596 q 556 678 490 678 z "},"ԧ":{"ha":821,"x_min":33,"x_max":793,"o":"m 739 -231 l 589 -231 l 596 0 l 443 0 l 504 404 q 507 442 507 418 q 494 486 507 474 q 456 499 481 499 q 378 451 419 499 q 294 322 336 404 l 249 0 l 33 0 l 178 1031 l 396 1053 l 321 528 q 426 637 361 596 q 556 678 490 678 q 681 631 636 678 q 726 500 726 583 q 724 453 726 469 l 682 161 l 793 161 l 739 -231 z "},"ӏ":{"ha":401,"x_min":50,"x_max":389,"o":"m 269 201 q 268 183 268 194 q 299 150 268 150 q 335 158 310 150 l 360 4 q 221 -24 297 -24 q 94 19 139 -24 q 50 146 50 63 q 53 193 50 176 l 171 1031 l 389 1054 l 269 201 z "},"ӂ":{"ha":1065,"x_min":-28,"x_max":1072,"o":"m 1072 619 q 988 574 1018 601 q 926 493 957 547 l 864 382 l 985 0 l 776 0 l 688 315 l 621 315 l 578 0 l 389 0 l 433 315 l 368 315 l 192 0 l -28 0 l 215 397 l 164 535 q 128 588 150 569 q 60 621 106 607 l 115 761 q 260 701 214 736 q 332 592 306 665 l 385 447 l 451 447 l 492 738 l 681 738 l 640 447 l 706 447 l 792 599 q 881 708 836 675 q 1014 761 925 742 l 1072 619 m 613 878 q 453 938 508 878 q 401 1094 399 997 l 521 1111 q 551 1049 526 1068 q 624 1031 576 1031 q 704 1051 672 1031 q 754 1115 736 1072 l 872 1089 q 783 935 851 992 q 613 878 715 878 z "},"ӌ":{"ha":751,"x_min":51,"x_max":718,"o":"m 615 0 l 469 0 l 393 -231 l 243 -231 l 299 161 l 422 161 l 440 293 q 264 222 360 231 q 232 221 254 221 q 97 269 142 221 q 51 407 51 317 q 56 471 51 438 l 92 738 l 307 738 l 272 490 q 269 454 269 463 q 285 400 269 417 q 332 383 301 383 q 402 403 367 383 q 463 456 438 424 l 503 738 l 718 738 l 615 0 z "},"ӑ":{"ha":794,"x_min":35,"x_max":761,"o":"m 458 761 q 761 683 619 761 l 690 211 q 688 181 688 189 q 697 143 688 156 q 726 122 707 131 l 665 -19 q 555 16 600 -14 q 494 103 510 46 q 276 -24 406 -24 q 97 55 158 -24 q 35 269 35 133 q 78 499 35 386 q 217 686 121 611 q 458 761 313 761 m 453 606 q 341 554 385 606 q 278 426 297 503 q 258 271 258 350 q 281 167 258 197 q 343 138 303 138 q 482 240 415 138 l 535 592 q 453 606 494 606 m 499 878 q 340 938 394 878 q 288 1094 285 997 l 407 1111 q 438 1049 413 1068 q 510 1031 463 1031 q 590 1051 558 1031 q 640 1115 622 1072 l 758 1089 q 669 935 738 992 q 499 878 601 878 z "},"ӓ":{"ha":794,"x_min":35,"x_max":772,"o":"m 458 761 q 761 683 619 761 l 690 211 q 688 181 688 189 q 697 143 688 156 q 726 122 707 131 l 665 -19 q 555 16 600 -14 q 494 103 510 46 q 276 -24 406 -24 q 97 55 158 -24 q 35 269 35 133 q 78 499 35 386 q 217 686 121 611 q 458 761 313 761 m 453 606 q 341 554 385 606 q 278 426 297 503 q 258 271 258 350 q 281 167 258 197 q 343 138 303 138 q 482 240 415 138 l 535 592 q 453 606 494 606 m 356 1110 q 427 1082 399 1110 q 456 1013 456 1054 q 419 926 456 963 q 332 890 382 890 q 261 918 289 890 q 233 988 233 946 q 270 1074 233 1038 q 356 1110 307 1110 m 672 1110 q 744 1083 717 1110 q 772 1014 772 1056 q 736 926 772 963 q 649 890 700 890 q 578 918 606 890 q 550 988 550 946 q 587 1074 550 1038 q 672 1110 624 1110 z "},"ӗ":{"ha":743,"x_min":38,"x_max":728,"o":"m 728 560 q 597 354 728 419 q 254 268 465 289 q 386 138 261 138 q 477 154 432 138 q 574 206 522 171 l 651 75 q 358 -24 515 -24 q 119 60 201 -24 q 38 289 38 144 q 80 508 38 400 q 217 689 122 617 q 456 761 311 761 q 656 704 585 761 q 728 560 728 647 m 264 401 q 451 452 392 411 q 510 547 510 493 q 492 596 510 576 q 435 615 475 615 q 322 554 364 615 q 264 401 281 493 m 464 878 q 305 938 360 878 q 253 1094 250 997 l 372 1111 q 403 1049 378 1068 q 475 1031 428 1031 q 556 1051 524 1031 q 606 1115 588 1072 l 724 1089 q 635 935 703 992 q 464 878 567 878 z "},"ә":{"ha":743,"x_min":15,"x_max":706,"o":"m 385 761 q 624 677 542 761 q 706 449 706 593 q 663 229 706 338 q 526 49 621 121 q 288 -24 432 -24 q 87 33 158 -24 q 15 178 15 90 q 147 383 15 318 q 489 469 278 449 q 357 600 482 600 q 266 583 311 600 q 169 532 221 567 l 92 663 q 385 761 228 761 m 308 122 q 421 183 379 122 q 479 336 463 244 q 292 285 351 326 q 233 190 233 244 q 251 142 233 161 q 308 122 268 122 z "},"ӛ":{"ha":743,"x_min":15,"x_max":708,"o":"m 385 761 q 624 677 542 761 q 706 449 706 593 q 663 229 706 338 q 526 49 621 121 q 288 -24 432 -24 q 87 33 158 -24 q 15 178 15 90 q 147 383 15 318 q 489 469 278 449 q 357 600 482 600 q 266 583 311 600 q 169 532 221 567 l 92 663 q 385 761 228 761 m 308 122 q 421 183 379 122 q 479 336 463 244 q 292 285 351 326 q 233 190 233 244 q 251 142 233 161 q 308 122 268 122 m 292 1110 q 363 1082 335 1110 q 392 1013 392 1054 q 355 926 392 963 q 268 890 318 890 q 197 918 225 890 q 169 988 169 946 q 206 1074 169 1038 q 292 1110 243 1110 m 608 1110 q 681 1083 653 1110 q 708 1014 708 1056 q 672 926 708 963 q 585 890 636 890 q 514 918 542 890 q 486 988 486 946 q 523 1074 486 1038 q 608 1110 560 1110 z "},"ӝ":{"ha":1065,"x_min":-28,"x_max":1072,"o":"m 1072 619 q 988 574 1018 601 q 926 493 957 547 l 864 382 l 985 0 l 776 0 l 688 315 l 621 315 l 578 0 l 389 0 l 433 315 l 368 315 l 192 0 l -28 0 l 215 397 l 164 535 q 128 588 150 569 q 60 621 106 607 l 115 761 q 260 701 214 736 q 332 592 306 665 l 385 447 l 451 447 l 492 738 l 681 738 l 640 447 l 706 447 l 792 599 q 881 708 836 675 q 1014 761 925 742 l 1072 619 m 469 1110 q 541 1082 513 1110 q 569 1013 569 1054 q 533 926 569 963 q 446 890 496 890 q 375 918 403 890 q 347 988 347 946 q 384 1074 347 1038 q 469 1110 421 1110 m 786 1110 q 858 1083 831 1110 q 886 1014 886 1056 q 850 926 886 963 q 763 890 814 890 q 692 918 719 890 q 664 988 664 946 q 701 1074 664 1038 q 786 1110 738 1110 z "},"ӟ":{"ha":676,"x_min":-25,"x_max":668,"o":"m 365 761 q 553 711 479 761 q 626 575 626 661 q 582 460 626 508 q 443 392 538 411 q 571 338 526 382 q 615 224 615 294 q 578 102 615 158 q 463 11 542 46 q 264 -24 385 -24 q -25 68 89 -24 l 82 190 q 169 147 128 160 q 260 133 210 133 q 358 160 325 133 q 392 231 392 188 q 279 308 392 308 l 164 308 l 196 450 l 279 450 q 374 476 340 450 q 407 543 407 503 q 318 610 407 610 q 234 596 272 610 q 153 554 196 582 l 67 676 q 206 740 133 719 q 365 761 278 761 m 251 1110 q 323 1082 294 1110 q 351 1013 351 1054 q 315 926 351 963 q 228 890 278 890 q 157 918 185 890 q 129 988 129 946 q 166 1074 129 1038 q 251 1110 203 1110 m 568 1110 q 640 1083 613 1110 q 668 1014 668 1056 q 632 926 668 963 q 544 890 596 890 q 474 918 501 890 q 446 988 446 946 q 483 1074 446 1038 q 568 1110 519 1110 z "},"ӣ":{"ha":781,"x_min":50,"x_max":747,"o":"m 458 0 l 463 110 q 229 -24 360 -24 q 96 24 142 -24 q 50 158 50 72 q 54 210 50 183 l 129 738 l 344 738 l 276 246 q 274 211 274 218 q 286 165 274 178 q 325 151 299 151 q 467 271 393 151 l 532 738 l 747 738 l 644 0 l 458 0 m 276 1063 l 694 1063 l 674 910 l 256 910 l 276 1063 z "},"ӥ":{"ha":781,"x_min":50,"x_max":747,"o":"m 458 0 l 463 110 q 229 -24 360 -24 q 96 24 142 -24 q 50 158 50 72 q 54 210 50 183 l 129 738 l 344 738 l 276 246 q 274 211 274 218 q 286 165 274 178 q 325 151 299 151 q 467 271 393 151 l 532 738 l 747 738 l 644 0 l 458 0 m 322 1110 q 394 1082 365 1110 q 422 1013 422 1054 q 385 926 422 963 q 299 890 349 890 q 228 918 256 890 q 200 988 200 946 q 237 1074 200 1038 q 322 1110 274 1110 m 639 1110 q 711 1083 683 1110 q 739 1014 739 1056 q 703 926 739 963 q 615 890 667 890 q 544 918 572 890 q 517 988 517 946 q 553 1074 517 1038 q 639 1110 590 1110 z "},"ӧ":{"ha":797,"x_min":39,"x_max":758,"o":"m 450 761 q 676 678 594 761 q 758 451 758 594 q 718 229 758 338 q 585 49 678 121 q 347 -24 493 -24 q 120 60 201 -24 q 39 290 39 143 q 79 512 39 404 q 212 690 119 619 q 450 761 304 761 m 435 600 q 299 497 339 600 q 260 276 260 394 q 285 171 260 204 q 363 138 311 138 q 498 242 460 138 q 536 467 536 347 q 511 568 536 536 q 435 600 486 600 m 325 1110 q 397 1082 368 1110 q 425 1013 425 1054 q 388 926 425 963 q 301 890 351 890 q 231 918 258 890 q 203 988 203 946 q 240 1074 203 1038 q 325 1110 276 1110 m 642 1110 q 714 1083 686 1110 q 742 1014 742 1056 q 706 926 742 963 q 618 890 669 890 q 547 918 575 890 q 519 988 519 946 q 556 1074 519 1038 q 642 1110 593 1110 z "},"ө":{"ha":797,"x_min":36,"x_max":760,"o":"m 450 761 q 678 678 596 761 q 760 450 760 594 q 719 229 760 338 q 585 49 678 121 q 347 -24 493 -24 q 118 60 200 -24 q 36 290 36 143 q 77 512 36 404 q 211 690 118 619 q 450 761 304 761 m 435 600 q 330 555 369 600 q 272 436 290 510 l 542 436 l 543 463 q 435 600 543 600 m 363 138 q 469 186 429 138 q 528 314 510 235 l 256 314 q 254 276 254 300 q 363 138 254 138 z "},"ӫ":{"ha":797,"x_min":36,"x_max":760,"o":"m 450 761 q 678 678 596 761 q 760 450 760 594 q 719 229 760 338 q 585 49 678 121 q 347 -24 493 -24 q 118 60 200 -24 q 36 290 36 143 q 77 512 36 404 q 211 690 118 619 q 450 761 304 761 m 435 600 q 330 555 369 600 q 272 436 290 510 l 542 436 l 543 463 q 435 600 543 600 m 363 138 q 469 186 429 138 q 528 314 510 235 l 256 314 q 254 276 254 300 q 363 138 254 138 m 325 1110 q 397 1082 368 1110 q 425 1013 425 1054 q 388 926 425 963 q 301 890 351 890 q 231 918 258 890 q 203 988 203 946 q 240 1074 203 1038 q 325 1110 276 1110 m 642 1110 q 714 1083 686 1110 q 742 1014 742 1056 q 706 926 742 963 q 618 890 669 890 q 547 918 575 890 q 519 988 519 946 q 556 1074 519 1038 q 642 1110 593 1110 z "},"ӭ":{"ha":660,"x_min":-28,"x_max":651,"o":"m 326 761 q 543 676 465 761 q 621 443 621 590 q 615 361 621 419 q 489 77 590 178 q 217 -24 388 -24 q -28 67 74 -24 l 78 188 q 144 148 113 160 q 215 136 176 136 q 326 178 279 136 q 390 313 374 221 l 131 313 l 149 439 l 406 439 q 407 471 407 453 q 294 603 407 603 q 218 590 254 603 q 142 551 182 578 l 61 675 q 185 740 121 718 q 326 761 250 761 m 235 1110 q 306 1082 278 1110 q 335 1013 335 1054 q 298 926 335 963 q 211 890 261 890 q 140 918 168 890 q 113 988 113 946 q 149 1074 113 1038 q 235 1110 186 1110 m 551 1110 q 624 1083 596 1110 q 651 1014 651 1056 q 615 926 651 963 q 528 890 579 890 q 457 918 485 890 q 429 988 429 946 q 466 1074 429 1038 q 551 1110 503 1110 z "},"ӯ":{"ha":704,"x_min":-24,"x_max":765,"o":"m 439 -3 q -18 -308 313 -290 l -24 -154 q 138 -107 83 -142 q 232 1 192 -72 l 161 0 l 43 738 l 268 738 l 317 142 l 539 738 l 765 738 l 439 -3 m 239 1063 l 657 1063 l 636 910 l 218 910 l 239 1063 z "},"ӱ":{"ha":704,"x_min":-24,"x_max":765,"o":"m 439 -3 q -18 -308 313 -290 l -24 -154 q 138 -107 83 -142 q 232 1 192 -72 l 161 0 l 43 738 l 268 738 l 317 142 l 539 738 l 765 738 l 439 -3 m 286 1110 q 358 1082 329 1110 q 386 1013 386 1054 q 349 926 386 963 q 263 890 313 890 q 192 918 219 890 q 164 988 164 946 q 201 1074 164 1038 q 286 1110 238 1110 m 603 1110 q 675 1083 647 1110 q 703 1014 703 1056 q 667 926 703 963 q 579 890 631 890 q 508 918 536 890 q 481 988 481 946 q 517 1074 481 1038 q 603 1110 554 1110 z "},"ӳ":{"ha":704,"x_min":-24,"x_max":775,"o":"m 439 -3 q -18 -308 313 -290 l -24 -154 q 138 -107 83 -142 q 232 1 192 -72 l 161 0 l 43 738 l 268 738 l 317 142 l 539 738 l 765 738 l 439 -3 m 349 875 l 240 921 l 400 1194 l 538 1125 l 349 875 m 575 868 l 469 921 l 639 1194 l 775 1121 l 575 868 z "},"ӵ":{"ha":751,"x_min":51,"x_max":718,"o":"m 400 0 l 440 293 q 264 222 360 231 q 232 221 254 221 q 97 269 142 221 q 51 407 51 317 q 56 471 51 438 l 92 738 l 307 738 l 272 490 q 269 454 269 463 q 285 400 269 417 q 332 383 301 383 q 402 403 367 383 q 463 456 438 424 l 503 738 l 718 738 l 615 0 l 400 0 m 288 1110 q 359 1082 331 1110 q 388 1013 388 1054 q 351 926 388 963 q 264 890 314 890 q 193 918 221 890 q 165 988 165 946 q 202 1074 165 1038 q 288 1110 239 1110 m 604 1110 q 676 1083 649 1110 q 704 1014 704 1056 q 668 926 704 963 q 581 890 632 890 q 510 918 538 890 q 482 988 482 946 q 519 1074 482 1038 q 604 1110 556 1110 z "},"ӷ":{"ha":657,"x_min":-6,"x_max":629,"o":"m 607 85 q 492 17 558 44 q 350 -19 425 -10 l 324 -231 l 178 -231 l 189 -15 q 47 58 99 4 q -6 192 -6 113 q 54 342 -6 279 q 264 450 114 404 q 361 487 329 469 q 403 519 393 504 q 413 553 413 533 q 393 590 413 576 q 335 604 374 604 q 158 546 250 604 l 86 671 q 216 738 143 714 q 364 761 289 761 q 557 707 485 761 q 629 565 629 653 q 575 419 629 483 q 388 314 521 356 q 281 273 317 292 q 233 237 244 254 q 222 196 222 219 q 244 150 222 167 q 308 133 267 133 q 415 154 361 133 q 515 210 469 175 l 607 85 z "},"ӹ":{"ha":1039,"x_min":38,"x_max":1006,"o":"m 367 508 q 590 450 517 508 q 664 281 664 392 q 628 138 664 208 q 515 22 593 68 q 318 -24 438 -24 q 38 22 183 -24 l 136 738 l 351 738 l 319 508 l 367 508 m 685 0 l 790 738 l 1006 738 l 903 0 l 685 0 m 321 121 q 417 168 386 121 q 447 276 447 215 q 424 344 447 321 q 347 368 401 368 l 300 368 l 268 128 q 321 121 303 121 m 454 1110 q 526 1082 497 1110 q 554 1013 554 1054 q 517 926 554 963 q 431 890 481 890 q 360 918 388 890 q 332 988 332 946 q 369 1074 332 1038 q 454 1110 406 1110 m 771 1110 q 843 1083 815 1110 q 871 1014 871 1056 q 835 926 871 963 q 747 890 799 890 q 676 918 704 890 q 649 988 649 946 q 685 1074 649 1038 q 771 1110 722 1110 z "},"ԝ":{"ha":1026,"x_min":60,"x_max":1069,"o":"m 561 0 l 540 542 l 368 0 l 111 0 l 60 738 l 276 738 l 272 164 l 465 738 l 676 738 l 696 164 l 863 738 l 1069 738 l 817 0 l 561 0 z "},"Ӕ":{"ha":1156,"x_min":-81,"x_max":1144,"o":"m 743 567 l 1076 567 l 1056 407 l 753 407 l 768 164 l 1083 164 l 1060 0 l 568 0 l 560 207 l 258 207 l 161 0 l -81 0 l 415 963 l 1144 963 l 1099 800 l 728 800 l 743 567 m 535 796 l 336 372 l 553 372 l 535 796 z "},"ӕ":{"ha":1178,"x_min":18,"x_max":1151,"o":"m 415 761 q 547 736 496 761 q 629 663 597 711 q 738 734 671 707 q 879 761 804 761 q 1080 704 1008 761 q 1151 560 1151 647 q 1019 354 1151 418 q 676 269 888 290 q 715 167 681 196 q 810 138 749 138 q 901 154 856 138 q 997 206 946 171 l 1075 75 q 782 -24 939 -24 q 620 8 688 -24 q 515 99 553 39 q 390 4 457 32 q 242 -24 322 -24 q 78 31 139 -24 q 18 176 18 86 q 106 369 18 292 q 401 447 194 447 l 483 447 q 508 521 494 490 q 465 579 503 558 q 367 600 426 600 q 178 564 288 600 l 143 710 q 415 761 282 761 m 858 615 q 745 555 788 615 q 686 403 703 494 q 874 454 815 414 q 933 547 933 494 q 916 596 933 576 q 858 615 899 615 m 407 321 q 289 292 331 321 q 247 204 247 264 q 321 133 247 133 q 395 155 360 133 q 469 219 431 176 q 465 321 463 257 l 407 321 z "},"Α":{"ha":807,"x_min":-71,"x_max":774,"o":"m 239 207 l 163 0 l -71 0 l 351 963 l 622 963 l 774 0 l 538 0 l 518 207 l 239 207 m 461 810 l 300 372 l 503 372 l 461 810 z "},"Β":{"ha":843,"x_min":38,"x_max":818,"o":"m 607 508 q 745 447 693 493 q 797 307 797 400 q 691 84 797 168 q 344 0 585 0 l 38 0 l 172 963 l 454 963 q 818 744 818 963 q 758 588 818 647 q 607 508 697 529 m 425 578 q 547 617 507 578 q 588 719 588 657 q 555 783 588 764 q 457 801 522 801 l 372 801 l 342 578 l 425 578 m 364 165 q 522 207 478 165 q 567 324 567 249 q 422 426 567 426 l 319 426 l 283 165 l 364 165 z "},"Γ":{"ha":696,"x_min":39,"x_max":779,"o":"m 371 783 l 263 0 l 39 0 l 172 963 l 176 960 l 174 963 l 779 963 l 732 783 l 371 783 z "},"Δ":{"ha":818,"x_min":-71,"x_max":786,"o":"m -71 0 l 357 963 l 629 963 l 786 0 l -71 0 m 535 167 l 469 794 l 226 167 l 535 167 z "},"Ε":{"ha":718,"x_min":38,"x_max":754,"o":"m 374 800 l 340 569 l 632 569 l 611 410 l 319 410 l 285 164 l 642 164 l 619 0 l 38 0 l 172 963 l 754 963 l 707 800 l 374 800 z "},"Ζ":{"ha":742,"x_min":-28,"x_max":782,"o":"m 263 181 l 681 182 l 632 0 l -28 0 l -6 171 l 500 786 l 125 786 l 150 963 l 782 963 l 758 790 l 263 181 z "},"Η":{"ha":911,"x_min":38,"x_max":906,"o":"m 319 413 l 261 0 l 38 0 l 172 963 l 396 963 l 343 590 l 629 590 l 682 963 l 906 963 l 771 0 l 547 0 l 603 413 l 319 413 z "},"Θ":{"ha":946,"x_min":54,"x_max":924,"o":"m 556 986 q 828 883 732 986 q 924 592 924 781 q 874 310 924 451 q 713 73 825 169 q 422 -24 600 -24 q 150 79 246 -24 q 54 371 54 182 q 103 652 54 511 q 265 890 153 793 q 556 986 378 986 m 540 819 q 380 745 439 819 q 297 565 321 671 q 274 353 274 460 q 315 194 274 244 q 438 143 357 143 q 599 218 539 143 q 681 400 658 293 q 704 614 704 507 q 664 771 704 722 q 540 819 624 819 m 342 424 l 360 554 l 638 554 l 618 424 l 342 424 z "},"Ι":{"ha":403,"x_min":38,"x_max":397,"o":"m 38 0 l 172 963 l 397 963 l 263 0 l 38 0 z "},"Κ":{"ha":865,"x_min":38,"x_max":942,"o":"m 38 0 l 172 963 l 396 963 l 261 0 l 38 0 m 831 0 l 575 0 l 342 514 l 701 963 l 942 963 l 575 517 l 831 0 z "},"Λ":{"ha":807,"x_min":-71,"x_max":774,"o":"m 539 0 l 464 797 l 164 0 l -71 0 l 351 963 l 622 963 l 774 0 l 539 0 z "},"Μ":{"ha":1088,"x_min":-6,"x_max":1043,"o":"m 761 0 l 796 379 q 849 788 815 590 l 608 101 l 393 101 l 331 785 q 282 371 322 585 l 214 0 l -6 0 l 201 963 l 475 963 l 528 294 l 751 963 l 1043 963 l 981 0 l 761 0 z "},"Ν":{"ha":907,"x_min":38,"x_max":901,"o":"m 483 0 l 306 774 q 308 658 308 699 q 285 342 308 511 l 236 0 l 38 0 l 172 963 l 454 963 l 635 189 q 631 333 631 267 q 649 585 631 454 l 703 963 l 901 963 l 767 0 l 483 0 z "},"Ξ":{"ha":714,"x_min":-12,"x_max":758,"o":"m 96 772 l 122 963 l 758 963 l 707 772 l 96 772 m 131 400 l 157 578 l 614 578 l 588 400 l 131 400 m -12 0 l 15 197 l 650 197 l 624 0 l -12 0 z "},"Ο":{"ha":946,"x_min":54,"x_max":924,"o":"m 557 986 q 828 883 732 986 q 924 592 924 781 q 875 306 924 446 q 714 71 826 165 q 422 -24 601 -24 q 150 80 246 -24 q 54 371 54 183 q 103 656 54 515 q 265 891 153 796 q 557 986 378 986 m 540 819 q 386 742 443 819 q 307 556 329 664 q 285 346 285 449 q 438 143 285 143 q 592 221 535 143 q 671 408 649 299 q 693 621 693 517 q 655 772 693 724 q 540 819 617 819 z "},"Π":{"ha":908,"x_min":38,"x_max":903,"o":"m 544 0 l 654 788 l 372 788 l 261 0 l 38 0 l 172 963 l 903 963 l 768 0 l 544 0 z "},"Ρ":{"ha":821,"x_min":38,"x_max":836,"o":"m 478 963 q 742 894 649 963 q 836 694 836 826 q 793 514 836 599 q 654 375 750 429 q 411 321 558 321 l 306 321 l 261 0 l 38 0 l 172 963 l 478 963 m 411 485 q 559 544 515 485 q 603 683 603 603 q 566 772 603 744 q 456 800 529 800 l 374 800 l 329 485 l 411 485 z "},"Σ":{"ha":685,"x_min":-24,"x_max":740,"o":"m 333 797 l 525 519 l 514 429 l 246 169 l 629 169 l 606 0 l -24 0 l 0 165 l 306 472 l 89 797 l 111 963 l 740 963 l 717 797 l 333 797 z "},"Τ":{"ha":736,"x_min":69,"x_max":821,"o":"m 539 788 l 429 0 l 204 0 l 315 788 l 69 788 l 94 963 l 821 963 l 772 788 l 539 788 z "},"Υ":{"ha":811,"x_min":74,"x_max":906,"o":"m 467 0 l 242 0 l 293 360 l 74 963 l 313 963 l 429 539 l 664 963 l 906 963 l 517 361 l 467 0 z "},"Φ":{"ha":1157,"x_min":36,"x_max":1153,"o":"m 1153 524 q 1102 328 1153 421 q 938 174 1051 236 q 650 104 825 111 l 636 0 l 418 0 l 432 106 q 142 202 247 117 q 36 439 36 288 q 87 633 36 540 q 250 788 138 725 q 538 857 363 850 l 553 963 l 771 963 l 756 856 q 1047 759 942 844 q 1153 524 1153 674 m 660 240 q 866 340 807 253 q 925 531 925 426 q 876 664 925 614 q 726 719 826 714 l 660 240 m 264 433 q 313 297 264 347 q 461 242 361 247 l 529 719 q 322 624 381 708 q 264 433 264 539 z "},"Χ":{"ha":793,"x_min":-58,"x_max":860,"o":"m 749 0 l 507 0 l 396 375 l 183 0 l -58 0 l 278 511 l 279 513 l 99 963 l 338 963 l 429 646 l 619 963 l 860 963 l 549 519 l 547 518 l 749 0 z "},"Ψ":{"ha":997,"x_min":56,"x_max":1053,"o":"m 1001 594 q 878 363 982 450 q 593 253 774 275 l 560 0 l 335 0 l 369 254 q 134 347 213 274 q 56 540 56 419 q 60 599 56 569 l 111 963 l 326 963 l 272 589 q 269 550 269 561 q 301 456 269 490 q 401 410 332 422 l 479 963 l 685 963 l 606 411 q 731 472 688 426 q 785 594 774 517 l 838 963 l 1053 963 l 1001 594 z "},"Ω":{"ha":946,"x_min":24,"x_max":928,"o":"m 556 986 q 758 938 674 986 q 885 806 842 890 q 928 608 928 721 q 873 350 928 471 q 690 165 818 229 l 842 165 l 818 0 l 472 0 l 493 157 q 653 344 610 204 q 696 626 696 483 q 540 819 696 819 q 386 744 443 819 q 307 562 329 668 q 285 350 285 456 q 310 227 285 274 q 389 154 335 181 l 369 0 l 24 0 l 47 165 l 196 165 q 94 276 128 208 q 61 440 61 343 q 113 683 61 557 q 275 898 164 810 q 556 986 386 986 z "},"Ά":{"ha":807,"x_min":-71,"x_max":774,"o":"m 239 207 l 163 0 l -71 0 l 351 963 l 622 963 l 774 0 l 538 0 l 518 207 l 239 207 m 461 810 l 300 372 l 503 372 l 461 810 m 125 647 l -6 672 l 92 1006 l 288 963 l 125 647 z "},"Έ":{"ha":718,"x_min":-154,"x_max":754,"o":"m 374 800 l 340 569 l 632 569 l 611 410 l 319 410 l 285 164 l 642 164 l 619 0 l 38 0 l 172 963 l 754 963 l 707 800 l 374 800 m -24 651 l -154 676 l -57 1010 l 139 967 l -24 651 z "},"Ή":{"ha":911,"x_min":-156,"x_max":906,"o":"m 319 413 l 261 0 l 38 0 l 172 963 l 396 963 l 343 590 l 629 590 l 682 963 l 906 963 l 771 0 l 547 0 l 603 413 l 319 413 m -25 651 l -156 676 l -58 1010 l 138 967 l -25 651 z "},"Ί":{"ha":403,"x_min":-154,"x_max":397,"o":"m 38 0 l 172 963 l 397 963 l 263 0 l 38 0 m -24 651 l -154 676 l -57 1010 l 139 967 l -24 651 z "},"Ό":{"ha":946,"x_min":-115,"x_max":924,"o":"m 557 986 q 828 883 732 986 q 924 592 924 781 q 875 306 924 446 q 714 71 826 165 q 422 -24 601 -24 q 150 80 246 -24 q 54 371 54 183 q 103 656 54 515 q 265 891 153 796 q 557 986 378 986 m 540 819 q 386 742 443 819 q 307 556 329 664 q 285 346 285 449 q 438 143 285 143 q 592 221 535 143 q 671 408 649 299 q 693 621 693 517 q 655 772 693 724 q 540 819 617 819 m 15 651 l -115 676 l -18 1010 l 178 967 l 15 651 z "},"Ύ":{"ha":811,"x_min":-243,"x_max":906,"o":"m 467 0 l 242 0 l 293 360 l 74 963 l 313 963 l 429 539 l 664 963 l 906 963 l 517 361 l 467 0 m -112 651 l -243 676 l -146 1010 l 50 967 l -112 651 z "},"Ώ":{"ha":946,"x_min":-132,"x_max":928,"o":"m 556 986 q 758 938 674 986 q 885 806 842 890 q 928 608 928 721 q 873 350 928 471 q 690 165 818 229 l 842 165 l 818 0 l 472 0 l 493 157 q 653 344 610 204 q 696 626 696 483 q 540 819 696 819 q 386 744 443 819 q 307 562 329 668 q 285 350 285 456 q 310 227 285 274 q 389 154 335 181 l 369 0 l 24 0 l 47 165 l 196 165 q 94 276 128 208 q 61 440 61 343 q 113 683 61 557 q 275 898 164 810 q 556 986 386 986 m -1 651 l -132 676 l -35 1010 l 161 967 l -1 651 z "},"Ϊ":{"ha":403,"x_min":38,"x_max":583,"o":"m 38 0 l 172 963 l 397 963 l 263 0 l 38 0 m 168 1285 q 239 1258 211 1285 q 267 1189 267 1231 q 265 1171 267 1176 q 225 1096 260 1126 q 144 1065 190 1065 q 73 1094 101 1065 q 44 1165 44 1122 q 81 1249 44 1214 q 168 1285 118 1285 m 485 1285 q 556 1258 528 1285 q 583 1189 583 1231 q 582 1171 583 1176 q 542 1096 576 1126 q 461 1065 507 1065 q 390 1094 418 1065 q 361 1165 361 1122 q 398 1249 361 1214 q 485 1285 435 1285 z "},"Ϋ":{"ha":811,"x_min":74,"x_max":906,"o":"m 467 0 l 242 0 l 293 360 l 74 963 l 313 963 l 429 539 l 664 963 l 906 963 l 517 361 l 467 0 m 374 1285 q 444 1258 417 1285 q 472 1189 472 1231 q 471 1171 472 1176 q 431 1096 465 1126 q 350 1065 396 1065 q 278 1094 307 1065 q 250 1165 250 1122 q 287 1249 250 1214 q 374 1285 324 1285 m 690 1285 q 761 1258 733 1285 q 789 1189 789 1231 q 788 1171 789 1176 q 747 1096 782 1126 q 667 1065 713 1065 q 595 1094 624 1065 q 567 1165 567 1122 q 603 1249 567 1214 q 690 1285 640 1285 z "},"Ὰ":{"ha":807,"x_min":-71,"x_max":774,"o":"m 239 207 l 163 0 l -71 0 l 351 963 l 622 963 l 774 0 l 538 0 l 518 207 l 239 207 m 461 810 l 300 372 l 503 372 l 461 810 m 644 1039 l 321 1165 l 411 1331 l 707 1150 l 644 1039 z "},"Ά":{"ha":807,"x_min":-71,"x_max":774,"o":"m 239 207 l 163 0 l -71 0 l 351 963 l 622 963 l 774 0 l 538 0 l 518 207 l 239 207 m 461 810 l 300 372 l 503 372 l 461 810 m 376 1038 l 322 1149 l 632 1329 l 711 1164 l 376 1038 z "},"Ᾰ":{"ha":807,"x_min":-71,"x_max":774,"o":"m 239 207 l 163 0 l -71 0 l 351 963 l 622 963 l 774 0 l 538 0 l 518 207 l 239 207 m 461 810 l 300 372 l 503 372 l 461 810 m 488 1043 q 331 1109 385 1043 q 282 1271 278 1175 l 400 1288 q 432 1220 407 1246 q 500 1194 457 1194 q 579 1222 546 1194 q 632 1292 613 1249 l 751 1265 q 660 1107 731 1171 q 488 1043 590 1043 z "},"Ᾱ":{"ha":807,"x_min":-71,"x_max":774,"o":"m 239 207 l 163 0 l -71 0 l 351 963 l 622 963 l 774 0 l 538 0 l 518 207 l 239 207 m 461 810 l 300 372 l 503 372 l 461 810 m 317 1238 l 735 1238 l 713 1085 l 294 1085 l 317 1238 z "},"Ὲ":{"ha":718,"x_min":38,"x_max":754,"o":"m 374 800 l 340 569 l 632 569 l 611 410 l 319 410 l 285 164 l 642 164 l 619 0 l 38 0 l 172 963 l 754 963 l 707 800 l 374 800 m 635 1039 l 311 1165 l 401 1331 l 697 1150 l 635 1039 z "},"Έ":{"ha":718,"x_min":38,"x_max":754,"o":"m 374 800 l 340 569 l 632 569 l 611 410 l 319 410 l 285 164 l 642 164 l 619 0 l 38 0 l 172 963 l 754 963 l 707 800 l 374 800 m 356 1038 l 301 1149 l 611 1329 l 690 1164 l 356 1038 z "},"Ὴ":{"ha":911,"x_min":38,"x_max":906,"o":"m 319 413 l 261 0 l 38 0 l 172 963 l 396 963 l 343 590 l 629 590 l 682 963 l 906 963 l 771 0 l 547 0 l 603 413 l 319 413 m 704 1039 l 381 1165 l 471 1331 l 767 1150 l 704 1039 z "},"Ή":{"ha":911,"x_min":38,"x_max":906,"o":"m 319 413 l 261 0 l 38 0 l 172 963 l 396 963 l 343 590 l 629 590 l 682 963 l 906 963 l 771 0 l 547 0 l 603 413 l 319 413 m 429 1038 l 375 1149 l 685 1329 l 764 1164 l 429 1038 z "},"Ὶ":{"ha":403,"x_min":38,"x_max":513,"o":"m 38 0 l 172 963 l 397 963 l 263 0 l 38 0 m 450 1039 l 126 1165 l 217 1331 l 513 1150 l 450 1039 z "},"Ί":{"ha":403,"x_min":38,"x_max":510,"o":"m 38 0 l 172 963 l 397 963 l 263 0 l 38 0 m 175 1038 l 121 1149 l 431 1329 l 510 1164 l 175 1038 z "},"Ῐ":{"ha":403,"x_min":38,"x_max":549,"o":"m 38 0 l 172 963 l 397 963 l 263 0 l 38 0 m 285 1043 q 128 1109 182 1043 q 79 1271 75 1175 l 197 1288 q 229 1220 204 1246 q 297 1194 254 1194 q 376 1222 343 1194 q 429 1292 410 1249 l 549 1265 q 458 1107 528 1171 q 285 1043 388 1043 z "},"Ῑ":{"ha":403,"x_min":38,"x_max":532,"o":"m 38 0 l 172 963 l 397 963 l 263 0 l 38 0 m 114 1238 l 532 1238 l 510 1085 l 92 1085 l 114 1238 z "},"Ὸ":{"ha":946,"x_min":54,"x_max":924,"o":"m 557 986 q 828 883 732 986 q 924 592 924 781 q 875 306 924 446 q 714 71 826 165 q 422 -24 601 -24 q 150 80 246 -24 q 54 371 54 183 q 103 656 54 515 q 265 891 153 796 q 557 986 378 986 m 540 819 q 386 742 443 819 q 307 556 329 664 q 285 346 285 449 q 438 143 285 143 q 592 221 535 143 q 671 408 649 299 q 693 621 693 517 q 655 772 693 724 q 540 819 617 819 m 724 1039 l 400 1165 l 490 1331 l 786 1150 l 724 1039 z "},"Ό":{"ha":946,"x_min":54,"x_max":924,"o":"m 557 986 q 828 883 732 986 q 924 592 924 781 q 875 306 924 446 q 714 71 826 165 q 422 -24 601 -24 q 150 80 246 -24 q 54 371 54 183 q 103 656 54 515 q 265 891 153 796 q 557 986 378 986 m 540 819 q 386 742 443 819 q 307 556 329 664 q 285 346 285 449 q 438 143 285 143 q 592 221 535 143 q 671 408 649 299 q 693 621 693 517 q 655 772 693 724 q 540 819 617 819 m 449 1038 l 394 1149 l 704 1329 l 783 1164 l 449 1038 z "},"Ὺ":{"ha":811,"x_min":74,"x_max":906,"o":"m 467 0 l 242 0 l 293 360 l 74 963 l 313 963 l 429 539 l 664 963 l 906 963 l 517 361 l 467 0 m 656 1039 l 332 1165 l 422 1331 l 718 1150 l 656 1039 z "},"Ύ":{"ha":811,"x_min":74,"x_max":906,"o":"m 467 0 l 242 0 l 293 360 l 74 963 l 313 963 l 429 539 l 664 963 l 906 963 l 517 361 l 467 0 m 381 1038 l 326 1149 l 636 1329 l 715 1164 l 381 1038 z "},"Ῠ":{"ha":811,"x_min":74,"x_max":906,"o":"m 467 0 l 242 0 l 293 360 l 74 963 l 313 963 l 429 539 l 664 963 l 906 963 l 517 361 l 467 0 m 490 1043 q 334 1109 388 1043 q 285 1271 281 1175 l 403 1288 q 435 1220 410 1246 q 503 1194 460 1194 q 582 1222 549 1194 q 635 1292 615 1249 l 754 1265 q 663 1107 733 1171 q 490 1043 593 1043 z "},"Ῡ":{"ha":811,"x_min":74,"x_max":906,"o":"m 467 0 l 242 0 l 293 360 l 74 963 l 313 963 l 429 539 l 664 963 l 906 963 l 517 361 l 467 0 m 319 1238 l 738 1238 l 715 1085 l 297 1085 l 319 1238 z "},"Ὼ":{"ha":946,"x_min":24,"x_max":928,"o":"m 556 986 q 758 938 674 986 q 885 806 842 890 q 928 608 928 721 q 873 350 928 471 q 690 165 818 229 l 842 165 l 818 0 l 472 0 l 493 157 q 653 344 610 204 q 696 626 696 483 q 540 819 696 819 q 386 744 443 819 q 307 562 329 668 q 285 350 285 456 q 310 227 285 274 q 389 154 335 181 l 369 0 l 24 0 l 47 165 l 196 165 q 94 276 128 208 q 61 440 61 343 q 113 683 61 557 q 275 898 164 810 q 556 986 386 986 m 718 1039 l 394 1165 l 485 1331 l 781 1150 l 718 1039 z "},"Ώ":{"ha":946,"x_min":24,"x_max":928,"o":"m 556 986 q 758 938 674 986 q 885 806 842 890 q 928 608 928 721 q 873 350 928 471 q 690 165 818 229 l 842 165 l 818 0 l 472 0 l 493 157 q 653 344 610 204 q 696 626 696 483 q 540 819 696 819 q 386 744 443 819 q 307 562 329 668 q 285 350 285 456 q 310 227 285 274 q 389 154 335 181 l 369 0 l 24 0 l 47 165 l 196 165 q 94 276 128 208 q 61 440 61 343 q 113 683 61 557 q 275 898 164 810 q 556 986 386 986 m 443 1038 l 389 1149 l 699 1329 l 778 1164 l 443 1038 z "},"α":{"ha":818,"x_min":35,"x_max":818,"o":"m 393 761 q 533 713 485 761 q 588 565 581 664 l 632 738 l 818 738 l 671 360 l 685 213 q 704 163 689 179 q 750 140 719 147 l 661 -24 q 560 18 597 -15 q 519 110 524 51 l 517 153 q 410 21 469 65 q 271 -24 350 -24 q 97 51 160 -24 q 35 268 35 125 q 72 497 35 385 q 189 685 108 610 q 393 761 269 761 m 407 601 q 319 543 354 601 q 269 406 285 485 q 253 268 253 328 q 331 136 253 136 q 424 190 381 136 q 511 382 468 244 q 482 553 506 506 q 407 601 458 601 z "},"β":{"ha":831,"x_min":-11,"x_max":788,"o":"m 492 1054 q 644 1024 579 1054 q 744 940 710 993 q 779 818 779 886 q 726 658 779 732 q 556 560 672 585 q 718 499 649 554 q 788 332 788 443 q 750 170 788 253 q 633 32 713 88 q 436 -24 554 -24 q 247 39 321 -24 l 203 -281 l -11 -310 l 139 761 q 254 976 158 899 q 492 1054 350 1054 m 479 899 q 391 863 425 899 q 347 757 357 828 l 267 182 q 394 144 318 144 q 528 205 486 144 q 571 342 571 265 q 418 478 571 478 l 363 478 l 397 626 l 429 626 q 533 683 499 626 q 568 803 568 739 q 545 875 568 851 q 479 899 522 899 z "},"γ":{"ha":690,"x_min":21,"x_max":747,"o":"m 226 760 q 299 559 271 693 q 325 221 326 425 l 540 760 l 747 713 l 407 36 q 361 -74 376 -25 q 346 -171 346 -122 q 363 -279 346 -219 l 196 -310 q 157 -227 169 -265 q 144 -150 144 -189 q 193 24 144 -78 q 123 435 168 261 q 21 694 78 608 l 226 760 z "},"δ":{"ha":793,"x_min":36,"x_max":757,"o":"m 485 1054 q 757 951 660 1054 l 646 840 q 578 887 613 872 q 503 901 544 901 q 419 879 447 901 q 392 825 392 857 q 415 772 392 793 q 511 719 439 750 q 692 595 635 665 q 750 414 750 525 q 709 219 750 319 q 577 47 668 118 q 346 -24 486 -24 q 180 16 250 -24 q 73 123 110 56 q 36 275 36 190 q 95 497 36 403 q 296 647 154 592 q 210 732 235 688 q 185 831 185 776 q 217 936 185 885 q 317 1021 250 988 q 485 1054 385 1054 m 404 589 q 289 448 319 526 q 258 269 258 369 q 284 172 258 207 q 360 138 310 138 q 460 185 422 138 q 513 297 497 232 q 528 422 528 363 q 500 517 528 481 q 404 589 472 553 z "},"ε":{"ha":668,"x_min":19,"x_max":669,"o":"m 403 761 q 669 668 571 761 l 569 561 q 502 598 536 586 q 425 610 468 610 q 340 585 369 610 q 311 524 311 561 q 334 469 311 489 q 401 450 357 450 l 494 450 l 453 308 l 375 308 q 276 281 306 308 q 246 211 246 253 q 274 154 246 175 q 357 133 303 133 q 443 148 400 133 q 540 194 486 163 l 614 69 q 479 1 557 25 q 315 -24 401 -24 q 101 31 183 -24 q 19 179 19 86 q 69 319 19 260 q 243 393 119 379 q 135 450 172 407 q 99 553 99 493 q 134 660 99 613 q 238 734 169 707 q 403 761 307 761 z "},"ζ":{"ha":568,"x_min":21,"x_max":685,"o":"m 685 913 q 339 577 433 721 q 244 331 244 433 q 275 235 244 269 q 379 167 306 201 q 497 91 458 132 q 536 -22 536 50 q 470 -181 536 -112 q 251 -310 404 -249 l 188 -179 q 282 -117 253 -143 q 311 -54 311 -90 q 292 -10 311 -26 q 213 36 272 7 q 65 143 108 86 q 21 304 21 200 q 68 485 21 388 q 220 690 115 583 q 490 897 325 797 q 409 879 463 886 q 304 872 356 872 l 113 872 l 158 1031 l 671 1031 l 685 913 z "},"η":{"ha":792,"x_min":40,"x_max":742,"o":"m 568 761 q 695 715 649 761 q 742 585 742 668 q 738 536 742 561 l 618 -289 l 404 -310 l 515 489 q 518 522 518 514 q 505 572 518 558 q 464 585 492 585 q 397 547 431 585 q 314 417 363 510 l 256 0 l 40 0 l 115 533 q 121 625 121 576 q 113 732 121 689 l 313 754 q 325 713 321 733 q 329 658 329 692 q 328 614 329 631 q 568 761 425 761 z "},"θ":{"ha":771,"x_min":51,"x_max":758,"o":"m 475 1054 q 686 959 614 1054 q 758 679 758 864 q 746 513 758 603 q 603 113 708 250 q 333 -24 497 -24 q 123 72 194 -24 q 51 351 51 167 q 64 522 51 429 q 206 918 101 782 q 475 1054 311 1054 m 461 897 q 349 828 392 897 q 276 582 306 760 l 550 582 q 561 735 561 665 q 537 861 561 825 q 461 897 513 897 m 258 454 q 249 303 249 371 q 273 172 249 210 q 350 135 297 135 q 427 163 394 135 q 485 261 460 192 q 532 454 511 331 l 258 454 z "},"ι":{"ha":372,"x_min":53,"x_max":344,"o":"m 276 246 q 274 207 274 231 q 284 161 274 178 q 319 132 294 144 l 238 -24 q 99 39 144 -8 q 53 171 53 86 q 57 224 53 197 l 129 738 l 344 738 l 276 246 z "},"κ":{"ha":764,"x_min":40,"x_max":785,"o":"m 544 388 l 660 204 q 691 165 676 178 q 732 138 706 151 l 640 -24 q 535 19 578 -12 q 464 110 492 51 l 315 390 l 614 761 l 785 674 l 544 388 m 314 756 q 335 621 335 693 q 322 476 335 564 l 256 0 l 40 0 l 115 533 q 121 625 121 576 q 113 732 121 689 l 314 756 z "},"λ":{"ha":724,"x_min":-39,"x_max":700,"o":"m 203 1054 q 395 998 324 1036 q 505 885 467 960 q 554 682 543 811 q 590 380 572 494 q 634 189 608 265 q 700 44 660 113 l 485 -22 q 425 122 446 56 q 392 285 404 188 q 378 540 381 382 l 171 -24 l -39 29 l 290 753 l 356 736 q 325 824 344 793 q 268 874 306 856 q 160 903 231 892 l 203 1054 z "},"μ":{"ha":794,"x_min":-10,"x_max":751,"o":"m 683 251 q 674 111 674 178 q 682 -1 674 44 l 482 -22 q 471 31 474 6 q 468 94 468 56 q 304 -11 399 -11 q 214 19 242 -11 q 222 -56 222 -14 q 214 -160 222 -107 l 196 -285 l -10 -306 l 136 738 l 351 738 l 279 224 q 278 203 278 215 q 333 142 278 142 q 467 232 407 142 l 536 738 l 751 738 l 683 251 z "},"ν":{"ha":690,"x_min":21,"x_max":747,"o":"m 224 760 q 293 554 268 696 q 318 188 318 413 l 544 760 l 747 713 l 418 0 l 151 1 q 106 449 135 281 q 21 694 78 617 l 224 760 z "},"ξ":{"ha":611,"x_min":33,"x_max":722,"o":"m 467 1054 q 610 1030 546 1054 q 722 960 675 1006 l 615 851 q 554 888 583 876 q 488 899 525 899 q 397 864 428 899 q 367 776 367 829 q 471 679 367 679 l 550 679 l 508 532 l 443 532 q 308 476 358 532 q 258 340 258 419 q 294 247 258 282 q 428 167 331 211 q 546 91 507 132 q 585 -22 585 50 q 519 -181 585 -112 q 300 -310 453 -249 l 236 -179 q 331 -117 301 -143 q 360 -54 360 -90 q 340 -10 360 -26 q 261 36 321 7 q 90 153 146 92 q 33 319 33 215 q 97 510 33 431 q 299 618 160 590 q 191 683 229 638 q 153 797 153 729 q 190 920 153 861 q 297 1017 226 979 q 467 1054 368 1054 z "},"ο":{"ha":797,"x_min":39,"x_max":758,"o":"m 450 761 q 676 678 594 761 q 758 451 758 594 q 718 229 758 338 q 585 49 678 121 q 347 -24 493 -24 q 120 60 201 -24 q 39 290 39 143 q 79 512 39 404 q 212 690 119 619 q 450 761 304 761 m 435 600 q 299 497 339 600 q 260 276 260 394 q 285 171 260 204 q 363 138 311 138 q 498 242 460 138 q 536 467 536 347 q 511 568 536 536 q 435 600 486 600 z "}}}
